<?xml version="1.0" encoding="UTF-8" standalone="no"?>
<!-- Created with Inkscape (http://www.inkscape.org/) -->

<svg
   xmlns:dc="http://purl.org/dc/elements/1.1/"
   xmlns:cc="http://creativecommons.org/ns#"
   xmlns:rdf="http://www.w3.org/1999/02/22-rdf-syntax-ns#"
   xmlns:svg="http://www.w3.org/2000/svg"
   xmlns="http://www.w3.org/2000/svg"
   xmlns:sodipodi="http://sodipodi.sourceforge.net/DTD/sodipodi-0.dtd"
   xmlns:inkscape="http://www.inkscape.org/namespaces/inkscape"
   width="512"
   height="512"
   id="svg4658"
   version="1.1"
   inkscape:version="0.48.4 r9939"
   sodipodi:docname="kumir2-icon-python.svg"
   inkscape:export-filename="/home/victor/Work/git/kumir2/app_icons/linux/hicolor/32x32/apps/kumir2-python.png"
   inkscape:export-xdpi="5.6199999"
   inkscape:export-ydpi="5.6199999">
  <defs
     id="defs4660" />
  <sodipodi:namedview
     id="base"
     pagecolor="#ffffff"
     bordercolor="#666666"
     borderopacity="1.0"
     inkscape:pageopacity="0.0"
     inkscape:pageshadow="2"
     inkscape:zoom="0.7"
     inkscape:cx="168.34525"
     inkscape:cy="99.533565"
     inkscape:document-units="px"
     inkscape:current-layer="layer1"
     showgrid="false"
     fit-margin-top="0"
     fit-margin-left="0"
     fit-margin-right="0"
     fit-margin-bottom="0"
     inkscape:window-width="1596"
     inkscape:window-height="1026"
     inkscape:window-x="1672"
     inkscape:window-y="-3"
     inkscape:window-maximized="1" />
  <metadata
     id="metadata4663">
    <rdf:RDF>
      <cc:Work
         rdf:about="">
        <dc:format>image/svg+xml</dc:format>
        <dc:type
           rdf:resource="http://purl.org/dc/dcmitype/StillImage" />
        <dc:title></dc:title>
      </cc:Work>
    </rdf:RDF>
  </metadata>
  <g
     inkscape:label="Layer 1"
     inkscape:groupmode="layer"
     id="layer1"
     transform="translate(-198.28721,91.167399)">
    <path
       style="fill:#031840;fill-opacity:1;stroke:#ffffff;stroke-width:7.85619879;stroke-miterlimit:4;stroke-opacity:1;stroke-dasharray:none"
       d="m 446.60562,-87.235208 c -20.3974,0.09477 -39.87645,1.834375 -57.01604,4.867234 -50.49103,8.920083 -59.65821,27.590635 -59.65824,62.022297 l 0,45.473766 119.31648,0 0,15.157913 -119.31648,0 -44.77843,0 c -34.67669,0 -65.04059,20.842677 -74.53801,60.492618 -10.95519,45.44802 -11.44109,73.8083 0,121.26335 8.48143,35.32368 28.73627,60.49259 63.41294,60.49261 l 41.02372,0 0,-54.51287 c 0,-39.38236 34.07452,-74.12084 74.53802,-74.12084 l 119.17741,0 c 33.17476,0 59.65825,-27.31501 59.65822,-60.63168 l 0,-113.614867 c 0,-32.335436 -27.2786,-56.62566 -59.65822,-62.022297 -20.49679,-3.411953 -41.76397,-4.962007 -62.16137,-4.867234 z m -64.52546,36.573705 c 12.32459,0 22.38921,10.229048 22.38921,22.806405 0,12.532792 -10.06462,22.6673336 -22.38921,22.6673336 -12.36875,0 -22.38922,-10.1345686 -22.38922,-22.6673336 0,-12.577357 10.02047,-22.806405 22.38922,-22.806405 z"
       id="path1948"
       inkscape:connector-curvature="0" />
    <path
       style="fill:#ffffff;fill-opacity:1;stroke:#031840;stroke-width:15.87471104;stroke-miterlimit:4;stroke-opacity:1;stroke-dasharray:none"
       d="m 583.30501,40.286002 0,52.983188 c 0,41.07716 -34.82548,75.65052 -74.53802,75.65052 l -119.17741,0 c -32.64468,0 -59.65821,27.93946 -59.65824,60.63168 l 0,113.61484 c 0,32.33544 28.11794,51.35479 59.65824,60.63168 37.76888,11.10555 73.98729,13.11258 119.17741,0 30.0384,-8.69709 59.65825,-26.20004 59.65822,-60.63168 l 0,-45.47373 -119.17739,0 0,-15.15792 119.17739,0 59.65826,0 c 34.67668,0 47.59864,-24.18773 59.65818,-60.49261 12.4571,-37.37531 11.92707,-73.31773 0,-121.26335 -8.56977,-34.520855 -24.9374,-60.492618 -59.65818,-60.492618 l -44.77846,0 z m -67.0286,287.722308 c 12.36878,3e-5 22.3892,10.13461 22.3892,22.66735 0,12.57735 -10.02045,22.8064 -22.3892,22.8064 -12.32458,0 -22.38922,-10.22905 -22.38922,-22.8064 0,-12.53274 10.06464,-22.66735 22.38922,-22.66735 z"
       id="path1950"
       inkscape:connector-curvature="0" />
  </g>
</svg>
