<?xml version="1.0" encoding="UTF-8" standalone="no"?>
<!-- Generator: Adobe Illustrator 15.0.2, SVG Export Plug-In . SVG Version: 6.00 Build 0)  -->

<svg
   xmlns:dc="http://purl.org/dc/elements/1.1/"
   xmlns:cc="http://creativecommons.org/ns#"
   xmlns:rdf="http://www.w3.org/1999/02/22-rdf-syntax-ns#"
   xmlns:svg="http://www.w3.org/2000/svg"
   xmlns="http://www.w3.org/2000/svg"
   xmlns:sodipodi="http://sodipodi.sourceforge.net/DTD/sodipodi-0.dtd"
   xmlns:inkscape="http://www.inkscape.org/namespaces/inkscape"
   version="1.1"
   id="Layer_1"
   x="0px"
   y="0px"
   width="512px"
   height="512px"
   viewBox="0 0 512 512"
   enable-background="new 0 0 512 512"
   xml:space="preserve"
   inkscape:version="0.48.4 r9939"
   sodipodi:docname="kumir2-teacher.svg"><metadata
     id="metadata5452"><rdf:RDF><cc:Work
         rdf:about=""><dc:format>image/svg+xml</dc:format><dc:type
           rdf:resource="http://purl.org/dc/dcmitype/StillImage" /><dc:title></dc:title></cc:Work></rdf:RDF></metadata><defs
     id="defs5450" /><sodipodi:namedview
     pagecolor="#ffffff"
     bordercolor="#666666"
     borderopacity="1"
     objecttolerance="10"
     gridtolerance="10"
     guidetolerance="10"
     inkscape:pageopacity="0"
     inkscape:pageshadow="2"
     inkscape:window-width="1429"
     inkscape:window-height="805"
     id="namedview5448"
     showgrid="false"
     inkscape:zoom="0.4609375"
     inkscape:cx="-154.0339"
     inkscape:cy="256"
     inkscape:window-x="78"
     inkscape:window-y="0"
     inkscape:window-maximized="0"
     inkscape:current-layer="Layer_1" /><path
     fill="#FFFFFF"
     d="M512,412c0,55.229-44.771,100-100,100H100C44.771,512,0,467.229,0,412V100C0,44.772,44.771,0,100,0h312  c55.229,0,100,44.771,100,100V412z"
     id="path5431" /><linearGradient
     id="SVGID_1_"
     gradientUnits="userSpaceOnUse"
     x1="96.9492"
     y1="292.751"
     x2="498.371"
     y2="-108.6709"
     gradientTransform="matrix(1 0 0 -1 -41.6602 348.04)"><stop
       offset="0"
       style="stop-color:#ff6601;stop-opacity:1;"
       id="stop5434" /><stop
       offset="1"
       style="stop-color:#803300;stop-opacity:1;"
       id="stop5436" /></linearGradient><path
     fill="url(#SVGID_1_)"
     d="M486,386c0,55.229-44.771,100-100,100H126c-55.229,0-100-44.771-100-100V126  C26,70.771,70.771,26,126,26h260c55.229,0,100,44.771,100,100V386z"
     id="path5438" /><g
     opacity="0.2"
     id="g5440"><path
       d="M155.75,406.572V115.428h54.923v129.287l88.577-129.287h76.039L285.25,243.572l95,163h-71l-70.196-122.791l-28.381,34.812   v87.979H161.75H155.75L155.75,406.572z"
       id="path5442" /></g><g
     id="g5444"><path
       fill="#FFF200"
       d="M141.75,396.572V105.428h54.923v129.287l88.577-129.287h76.039L271.25,233.572l95,163h-71l-70.196-122.791   l-28.381,34.812v87.979H147.75H141.75L141.75,396.572z"
       id="path5446" /></g></svg>