<?xml version="1.0" encoding="UTF-8" standalone="no"?>
<!-- Generator: Adobe Illustrator 13.0.2, SVG Export Plug-In . SVG Version: 6.00 Build 14948)  -->

<svg
   xmlns:dc="http://purl.org/dc/elements/1.1/"
   xmlns:cc="http://creativecommons.org/ns#"
   xmlns:rdf="http://www.w3.org/1999/02/22-rdf-syntax-ns#"
   xmlns:svg="http://www.w3.org/2000/svg"
   xmlns="http://www.w3.org/2000/svg"
   xmlns:sodipodi="http://sodipodi.sourceforge.net/DTD/sodipodi-0.dtd"
   xmlns:inkscape="http://www.inkscape.org/namespaces/inkscape"
   version="1.1"
   id="Layer_2"
   x="0px"
   y="0px"
   width="16"
   height="16"
   viewBox="0 0 26.375174 16"
   enable-background="new 0 0 17.795 15.161"
   xml:space="preserve"
   inkscape:version="0.48.2 r9819"
   sodipodi:docname="10.svg"><metadata
   id="metadata3101"><rdf:RDF><cc:Work
       rdf:about=""><dc:format>image/svg+xml</dc:format><dc:type
         rdf:resource="http://purl.org/dc/dcmitype/StillImage" /><dc:title></dc:title></cc:Work></rdf:RDF></metadata><defs
   id="defs3099" /><sodipodi:namedview
   pagecolor="#ffffff"
   bordercolor="#666666"
   borderopacity="1"
   objecttolerance="10"
   gridtolerance="10"
   guidetolerance="10"
   inkscape:pageopacity="0"
   inkscape:pageshadow="2"
   inkscape:window-width="1281"
   inkscape:window-height="839"
   id="namedview3097"
   showgrid="false"
   inkscape:zoom="21.7"
   inkscape:cx="14.740852"
   inkscape:cy="15"
   inkscape:window-x="60"
   inkscape:window-y="23"
   inkscape:window-maximized="0"
   inkscape:current-layer="Layer_2" />
<linearGradient
   id="SVGID_1_"
   gradientUnits="userSpaceOnUse"
   x1="8.8970003"
   y1="0"
   x2="8.8970003"
   y2="15.1611"
   gradientTransform="matrix(1.0725759,0,0,1.2605999,3.8395288,-1.3168996)">
	<stop
   offset="0"
   style="stop-color:#FF0000"
   id="stop3073" />
	<stop
   offset="0.0365"
   style="stop-color:#FD2604"
   id="stop3075" />
	<stop
   offset="0.0851"
   style="stop-color:#FB5009"
   id="stop3077" />
	<stop
   offset="0.1344"
   style="stop-color:#F9740D"
   id="stop3079" />
	<stop
   offset="0.1839"
   style="stop-color:#F79010"
   id="stop3081" />
	<stop
   offset="0.2336"
   style="stop-color:#F6A312"
   id="stop3083" />
	<stop
   offset="0.2838"
   style="stop-color:#F5AF14"
   id="stop3085" />
	<stop
   offset="0.3352"
   style="stop-color:#F5B314"
   id="stop3087" />
	<stop
   offset="0.5206"
   style="stop-color:#F8850F"
   id="stop3089" />
	<stop
   offset="0.94"
   style="stop-color:#FE1102"
   id="stop3091" />
	<stop
   offset="1"
   style="stop-color:#FF0000"
   id="stop3093" />
</linearGradient>
<path
   d="M 10.305015,14.831385 C 10.056177,14.501108 9.7655095,14.276721 9.4340835,14.159485 H 8.7862479 c 0,-2.320765 0.00427,-4.6364863 0.012871,-6.9471662 0.00746,-2.3106793 0.00319,-4.6364858 -0.012871,-6.97615911 0,-0.1752233 -0.053631,-0.3693563 -0.1619595,-0.5849185 -0.108329,-0.2155622 -0.2273856,-0.3807012 -0.3603846,-0.4979371 C 7.9314048,-1.1782335 7.5377701,-1.315639 7.0819258,-1.2563903 6.6250083,-1.1984023 6.1820345,-1.0219192 5.7497864,-0.72946001 5.3175383,-0.43700071 4.9410642,-0.06638481 4.6182189,0.38238889 4.2953735,0.83116249 4.1076727,1.269851 4.0583343,1.6984552 c -0.034323,0.2533809 -0.00429,0.5017188 0.086879,0.7450145 0.091169,0.2445563 0.219878,0.4538158 0.3861274,0.6290391 0.1651767,0.1752233 0.3571677,0.3075866 0.5727554,0.3945679 0.2155878,0.088242 0.4311756,0.1033693 0.6467632,0.044119 V 14.158222 c -0.5137638,0 -0.9374312,0.180266 -1.2688572,0.542059 -0.3324985,0.36053 -0.5352153,0.761401 -0.6102956,1.19883 -0.074008,0.438688 -0.017161,0.843341 0.1748298,1.213956 0.1909186,0.369356 0.5427234,0.555925 1.0575598,0.555925 0.7465128,0.01891 1.5423641,0.03152 2.3896989,0.04286 0.8462622,0.0088 1.6678552,-0.06302 2.4637055,-0.220604 0.4140145,-0.07816 0.6843035,-0.277332 0.8087225,-0.598785 0.124419,-0.322714 0.140507,-0.661814 0.04934,-1.023607 -0.09224,-0.359271 -0.261708,-0.704675 -0.510545,-1.037474 z M 22.749039,4.9155063 C 22.617113,4.1162861 22.388655,3.341017 22.065809,2.5909595 21.740819,1.8396422 21.296772,1.1526159 20.73367,0.52861899 c -0.564175,-0.6239969 -1.181978,-1.0916795 -1.854483,-1.4043081 -0.672506,-0.31136819 -1.353592,-0.45759829 -2.04004,-0.43868939 -0.689666,0.020172 -1.365389,0.2004358 -2.029313,0.54205859 -0.663925,0.3403614 -1.268857,0.8420801 -1.816944,1.5051554 C 12.312877,1.552226 11.786243,2.5077606 11.412986,3.59944 c -0.373257,1.09294 -0.634965,2.1934432 -0.784053,3.3052924 -0.215588,1.5795321 -0.20379,3.0809058 0.03754,4.5041236 0.240257,1.424478 0.775472,2.799793 1.605646,4.123422 0.381837,0.605088 0.837681,1.087898 1.368606,1.44843 0.530926,0.360531 1.095101,0.600045 1.692526,0.716019 0.597424,0.115975 1.202357,0.127321 1.81587,0.029 0.613514,-0.09833 1.194849,-0.302543 1.742936,-0.613912 1.095101,-0.80048 1.948871,-1.848038 2.563457,-3.143935 0.61244,-1.297157 1.029672,-2.656084 1.24526,-4.080562 0.131927,-0.8193897 0.204862,-1.6539067 0.222024,-2.5010303 0.01716,-0.8471264 -0.03969,-1.6702977 -0.173757,-2.4707784 z m -2.912042,4.3881487 -0.0236,0.1462289 c -0.09975,0.6252571 -0.237039,1.2240421 -0.411869,1.8001361 -0.173757,0.574834 -0.402216,1.081596 -0.683231,1.520284 -0.28316,0.439949 -0.627456,0.800481 -1.033963,1.081595 -0.406506,0.283635 -0.908471,0.444992 -1.504824,0.482809 -0.431176,0.02018 -0.801214,-0.08698 -1.10797,-0.321452 -0.306757,-0.234472 -0.559886,-0.54584 -0.759384,-0.936626 -0.199499,-0.389524 -0.360386,-0.816869 -0.485877,-1.287073 -0.123346,-0.467682 -0.211298,-0.916456 -0.260636,-1.34506 -0.08366,-0.6429058 -0.09975,-1.4282592 -0.05041,-2.3548001 0.04934,-0.9265417 0.195209,-1.8228276 0.435465,-2.6913808 0.240257,-0.8672935 0.601716,-1.6034834 1.08223,-2.2085714 0.481586,-0.6038274 1.120842,-0.906371 1.916693,-0.906371 0.730423,0 1.307471,0.2533801 1.730064,0.7601418 0.423668,0.506761 0.737933,1.1307579 0.94494,1.8719908 0.207007,0.741232 0.3207,1.511459 0.336788,2.3106786 0.01716,0.8004814 -0.0236,1.4925514 -0.124418,2.0774701 z"
   id="path3095"
   inkscape:connector-curvature="0"
   style="fill:url(#SVGID_1_)" />
</svg>