<?xml version="1.0" encoding="utf-8"?>
<!-- Generator: Adobe Illustrator 13.0.2, SVG Export Plug-In . SVG Version: 6.00 Build 14948)  -->
<!DOCTYPE svg PUBLIC "-//W3C//DTD SVG 1.1//EN" "http://www.w3.org/Graphics/SVG/1.1/DTD/svg11.dtd">
<svg version="1.1" id="Layer_2" xmlns="http://www.w3.org/2000/svg" xmlns:xlink="http://www.w3.org/1999/xlink" x="0px" y="0px"
	 width="10.071px" height="15.251px" viewBox="0 0 10.071 15.251" enable-background="new 0 0 10.071 15.251" xml:space="preserve">
<g>
	<linearGradient id="SVGID_1_" gradientUnits="userSpaceOnUse" x1="5.0352" y1="0" x2="5.0352" y2="15.2515">
		<stop  offset="0" style="stop-color:#FF0000"/>
		<stop  offset="0.0365" style="stop-color:#FD2604"/>
		<stop  offset="0.0851" style="stop-color:#FB5009"/>
		<stop  offset="0.1344" style="stop-color:#F9740D"/>
		<stop  offset="0.1839" style="stop-color:#F79010"/>
		<stop  offset="0.2336" style="stop-color:#F6A312"/>
		<stop  offset="0.2838" style="stop-color:#F5AF14"/>
		<stop  offset="0.3352" style="stop-color:#F5B314"/>
		<stop  offset="0.5206" style="stop-color:#F8850F"/>
		<stop  offset="0.94" style="stop-color:#FE1102"/>
		<stop  offset="1" style="stop-color:#FF0000"/>
	</linearGradient>
	<path fill="url(#SVGID_1_)" d="M6.252,3.812C5.989,3.271,5.657,2.988,5.255,2.965C4.853,2.941,4.396,3.1,3.886,3.44
		C3.638,3.595,3.371,3.812,3.085,4.09c-0.286,0.278-0.584,0.51-0.893,0.696c-0.31,0.186-0.623,0.279-0.94,0.279
		c-0.317,0-0.63-0.193-0.94-0.58C0.049,4.16-0.047,3.827,0.022,3.487c0.07-0.34,0.221-0.661,0.453-0.963S0.981,1.948,1.298,1.7
		c0.317-0.248,0.584-0.449,0.801-0.604c0.51-0.371,1.067-0.653,1.67-0.847c0.604-0.193,1.203-0.274,1.798-0.244
		S6.72,0.204,7.239,0.505c0.519,0.302,0.947,0.77,1.288,1.404c0.325,0.604,0.534,1.215,0.627,1.833s0.069,1.222-0.07,1.81
		c-0.139,0.588-0.383,1.145-0.73,1.67c-0.349,0.526-0.801,0.99-1.357,1.393C6.655,8.862,6.28,9.103,5.87,9.334
		C5.459,9.566,5.065,9.821,4.686,10.1s-0.711,0.588-0.998,0.929c-0.287,0.34-0.476,0.75-0.568,1.229c0.17,0,0.421,0.016,0.754,0.047
		s0.696,0.054,1.091,0.069s0.804,0.008,1.23-0.023c0.425-0.03,0.809-0.101,1.148-0.209c-0.062,0.062-0.108,0.101-0.139,0.116
		c0.231-0.232,0.452-0.444,0.661-0.638s0.499-0.274,0.87-0.244c0.263,0.016,0.499,0.104,0.708,0.267
		c0.208,0.163,0.367,0.36,0.476,0.592c0.107,0.232,0.158,0.484,0.15,0.755s-0.104,0.514-0.29,0.73
		c-0.355,0.434-0.75,0.797-1.184,1.091c-0.433,0.294-0.943,0.44-1.531,0.44H1.542c-0.356,0-0.665-0.116-0.928-0.348
		c-0.263-0.232-0.433-0.519-0.51-0.858c-0.062-0.263-0.066-0.526-0.012-0.789s0.097-0.526,0.127-0.789
		c0.093-0.634,0.232-1.207,0.418-1.717c0.186-0.511,0.425-0.975,0.719-1.393c0.293-0.418,0.646-0.8,1.056-1.148
		C2.822,7.861,3.298,7.524,3.839,7.2c0.247-0.139,0.549-0.325,0.905-0.557s0.681-0.495,0.975-0.789
		C6.013,5.56,6.226,5.239,6.357,4.891C6.489,4.542,6.454,4.183,6.252,3.812z"/>
</g>
</svg>
