<?xml version="1.0" encoding="utf-8"?>
<!-- Generator: Adobe Illustrator 13.0.2, SVG Export Plug-In . SVG Version: 6.00 Build 14948)  -->
<!DOCTYPE svg PUBLIC "-//W3C//DTD SVG 1.1//EN" "http://www.w3.org/Graphics/SVG/1.1/DTD/svg11.dtd">
<svg version="1.1" id="Layer_2" xmlns="http://www.w3.org/2000/svg" xmlns:xlink="http://www.w3.org/1999/xlink" x="0px" y="0px"
	 width="9.277px" height="15.212px" viewBox="0 0 9.277 15.212" enable-background="new 0 0 9.277 15.212" xml:space="preserve">
<g>
	<linearGradient id="SVGID_1_" gradientUnits="userSpaceOnUse" x1="4.6382" y1="0" x2="4.6382" y2="15.2124">
		<stop  offset="0" style="stop-color:#FF0000"/>
		<stop  offset="0.0365" style="stop-color:#FD2604"/>
		<stop  offset="0.0851" style="stop-color:#FB5009"/>
		<stop  offset="0.1344" style="stop-color:#F9740D"/>
		<stop  offset="0.1839" style="stop-color:#F79010"/>
		<stop  offset="0.2336" style="stop-color:#F6A312"/>
		<stop  offset="0.2838" style="stop-color:#F5AF14"/>
		<stop  offset="0.3352" style="stop-color:#F5B314"/>
		<stop  offset="0.5206" style="stop-color:#F8850F"/>
		<stop  offset="0.94" style="stop-color:#FE1102"/>
		<stop  offset="1" style="stop-color:#FF0000"/>
	</linearGradient>
	<path fill="url(#SVGID_1_)" d="M0.319,13.33c-0.17-0.263-0.271-0.537-0.302-0.823c-0.031-0.286,0.008-0.549,0.116-0.789
		c0.108-0.239,0.282-0.43,0.522-0.568c0.24-0.14,0.53-0.193,0.87-0.162c0.372,0.03,0.688,0.158,0.952,0.383
		c0.263,0.224,0.53,0.433,0.8,0.626s0.561,0.325,0.87,0.395s0.688-0.035,1.137-0.313C5.393,12,5.485,11.919,5.563,11.834
		c0.077-0.085,0.155-0.174,0.232-0.267c0.093-0.124,0.163-0.229,0.209-0.313c0.046-0.085,0.093-0.197,0.139-0.337
		c0.093-0.263,0.155-0.51,0.186-0.742c0.031-0.232,0.031-0.479,0-0.742c-0.231-0.434-0.522-0.72-0.87-0.859
		c-0.348-0.139-0.711-0.228-1.09-0.266C3.989,8.269,3.614,8.226,3.243,8.179S2.554,7.994,2.292,7.762
		c-0.232-0.201-0.375-0.433-0.43-0.696C1.808,6.803,1.823,6.551,1.908,6.312s0.232-0.453,0.441-0.638
		c0.209-0.186,0.46-0.302,0.754-0.348c0.232-0.046,0.483-0.089,0.754-0.127s0.53-0.101,0.777-0.186s0.479-0.197,0.696-0.337
		c0.216-0.139,0.395-0.325,0.534-0.557C5.88,3.949,5.884,3.782,5.876,3.62c-0.008-0.162-0.05-0.321-0.128-0.476
		c-0.155-0.139-0.375-0.236-0.661-0.29C4.801,2.8,4.5,2.777,4.183,2.784C3.865,2.792,3.567,2.827,3.289,2.889
		C3.011,2.951,2.786,3.021,2.616,3.098C2.245,3.469,1.866,3.643,1.479,3.62C1.092,3.597,0.768,3.461,0.504,3.214
		S0.079,2.657,0.017,2.286c-0.062-0.372,0.046-0.704,0.325-0.998c0.216-0.247,0.46-0.444,0.731-0.592
		c0.271-0.146,0.568-0.267,0.893-0.359C2.755,0.12,3.579,0.008,4.438,0c0.859-0.008,1.66,0.182,2.402,0.568
		c0.604,0.31,1.056,0.719,1.357,1.23c0.302,0.51,0.472,1.052,0.511,1.624c0.038,0.573-0.051,1.141-0.267,1.706
		c-0.217,0.565-0.55,1.064-0.998,1.497C8,7.012,8.421,7.457,8.708,7.959c0.286,0.503,0.464,1.021,0.534,1.555
		c0.069,0.533,0.038,1.075-0.094,1.624c-0.131,0.549-0.352,1.063-0.661,1.543s-0.692,0.917-1.148,1.312s-0.971,0.707-1.543,0.939
		C5.3,15.133,4.812,15.226,4.333,15.21c-0.48-0.016-0.948-0.101-1.404-0.255c-0.456-0.155-0.897-0.368-1.322-0.639
		c-0.426-0.271-0.824-0.568-1.195-0.894L0.319,13.33z"/>
</g>
</svg>
