<?xml version="1.0" encoding="utf-8"?>
<!-- Generator: Adobe Illustrator 13.0.2, SVG Export Plug-In . SVG Version: 6.00 Build 14948)  -->
<!DOCTYPE svg PUBLIC "-//W3C//DTD SVG 1.1//EN" "http://www.w3.org/Graphics/SVG/1.1/DTD/svg11.dtd">
<svg version="1.1" id="Layer_2" xmlns="http://www.w3.org/2000/svg" xmlns:xlink="http://www.w3.org/1999/xlink" x="0px" y="0px"
	 width="11.142px" height="15.504px" viewBox="0 0 11.142 15.504" enable-background="new 0 0 11.142 15.504" xml:space="preserve">
<g>
	<linearGradient id="SVGID_1_" gradientUnits="userSpaceOnUse" x1="5.5703" y1="0" x2="5.5703" y2="15.5049">
		<stop  offset="0" style="stop-color:#FF0000"/>
		<stop  offset="0.0365" style="stop-color:#FD2604"/>
		<stop  offset="0.0851" style="stop-color:#FB5009"/>
		<stop  offset="0.1344" style="stop-color:#F9740D"/>
		<stop  offset="0.1839" style="stop-color:#F79010"/>
		<stop  offset="0.2336" style="stop-color:#F6A312"/>
		<stop  offset="0.2838" style="stop-color:#F5AF14"/>
		<stop  offset="0.3352" style="stop-color:#F5B314"/>
		<stop  offset="0.5206" style="stop-color:#F8850F"/>
		<stop  offset="0.94" style="stop-color:#FE1102"/>
		<stop  offset="1" style="stop-color:#FF0000"/>
	</linearGradient>
	<path fill="url(#SVGID_1_)" d="M8.525,14.85c-0.193,0.248-0.418,0.43-0.673,0.546s-0.519,0.139-0.789,0.069
		s-0.507-0.259-0.708-0.568c-0.124-0.201-0.209-0.434-0.255-0.696s-0.073-0.537-0.081-0.823s-0.004-0.561,0.012-0.824
		c0.015-0.263,0.015-0.495,0-0.696c-0.588,0-1.191-0.003-1.81-0.012c-0.619-0.007-1.222-0.019-1.81-0.034c-0.186,0-0.379,0-0.58,0
		s-0.398-0.02-0.592-0.059c-0.193-0.038-0.375-0.1-0.545-0.186c-0.17-0.085-0.317-0.212-0.441-0.383
		c-0.201-0.294-0.283-0.6-0.244-0.916c0.038-0.317,0.131-0.631,0.278-0.94C0.435,9.019,0.608,8.725,0.81,8.446
		c0.201-0.278,0.356-0.518,0.464-0.719C1.676,7,2.089,6.285,2.515,5.581C2.94,4.877,3.354,4.169,3.757,3.458
		C3.88,3.241,4.012,2.993,4.151,2.715c0.139-0.278,0.282-0.557,0.429-0.835c0.146-0.278,0.305-0.545,0.476-0.8
		c0.17-0.255,0.348-0.476,0.534-0.662C5.822,0.201,6.069,0.07,6.333,0.023C6.595-0.023,6.843,0,7.075,0.093s0.433,0.244,0.604,0.453
		c0.17,0.208,0.271,0.468,0.302,0.777c0.015,0.186-0.023,0.395-0.116,0.626S7.663,2.41,7.539,2.634S7.292,3.06,7.168,3.237
		C7.044,3.415,6.959,3.542,6.913,3.62c-0.217,0.387-0.434,0.766-0.65,1.137C6.046,5.128,5.83,5.5,5.613,5.871
		C5.319,6.397,5.025,6.915,4.731,7.425C4.437,7.936,4.136,8.446,3.826,8.957c0.387,0.031,0.754,0.047,1.103,0.047
		c0.348,0,0.7,0,1.056,0C6,8.585,6,8.172,5.984,7.762C5.969,7.352,6.007,6.954,6.1,6.567c0.078-0.325,0.244-0.576,0.499-0.754
		c0.255-0.177,0.53-0.274,0.824-0.29C7.717,5.507,7.992,5.573,8.247,5.72C8.502,5.867,8.676,6.111,8.77,6.451
		c0.062,0.232,0.1,0.476,0.115,0.731C8.9,7.437,8.904,7.688,8.896,7.936S8.881,8.404,8.873,8.597S8.862,8.933,8.862,9.026
		c0.2,0,0.39-0.011,0.568-0.034C9.608,8.968,9.79,8.996,9.976,9.073c0.232,0.093,0.444,0.229,0.639,0.406
		c0.192,0.178,0.336,0.375,0.429,0.592s0.12,0.44,0.081,0.673c-0.038,0.231-0.174,0.456-0.406,0.673
		c-0.278,0.263-0.564,0.41-0.858,0.44c-0.294,0.031-0.626,0.047-0.997,0.047v2.088C8.831,14.317,8.719,14.603,8.525,14.85z"/>
</g>
</svg>
