<?xml version="1.0" encoding="utf-8"?>
<!-- Generator: Adobe Illustrator 13.0.2, SVG Export Plug-In . SVG Version: 6.00 Build 14948)  -->
<!DOCTYPE svg PUBLIC "-//W3C//DTD SVG 1.1//EN" "http://www.w3.org/Graphics/SVG/1.1/DTD/svg11.dtd">
<svg version="1.1" id="Layer_2" xmlns="http://www.w3.org/2000/svg" xmlns:xlink="http://www.w3.org/1999/xlink" x="0px" y="0px"
	 width="10.513px" height="15.883px" viewBox="0 0 10.513 15.883" enable-background="new 0 0 10.513 15.883" xml:space="preserve">
<g>
	<linearGradient id="SVGID_1_" gradientUnits="userSpaceOnUse" x1="5.2563" y1="-4.882812e-04" x2="5.2563" y2="15.8833">
		<stop  offset="0" style="stop-color:#FF0000"/>
		<stop  offset="0.0365" style="stop-color:#FD2604"/>
		<stop  offset="0.0851" style="stop-color:#FB5009"/>
		<stop  offset="0.1344" style="stop-color:#F9740D"/>
		<stop  offset="0.1839" style="stop-color:#F79010"/>
		<stop  offset="0.2336" style="stop-color:#F6A312"/>
		<stop  offset="0.2838" style="stop-color:#F5AF14"/>
		<stop  offset="0.3352" style="stop-color:#F5B314"/>
		<stop  offset="0.5206" style="stop-color:#F8850F"/>
		<stop  offset="0.94" style="stop-color:#FE1102"/>
		<stop  offset="1" style="stop-color:#FF0000"/>
	</linearGradient>
	<path fill="url(#SVGID_1_)" d="M0.012,11.955c-0.015-0.232-0.015-0.503,0-0.812c0-0.402,0.078-0.781,0.232-1.137
		c0.154-0.356,0.352-0.688,0.592-0.998c0.239-0.309,0.51-0.595,0.812-0.858c0.302-0.263,0.615-0.495,0.94-0.696
		C2.309,7.206,2.05,6.943,1.811,6.665C1.57,6.386,1.358,6.069,1.172,5.713c-0.511-0.897-0.7-1.706-0.569-2.425
		S1.06,1.962,1.578,1.466c0.518-0.495,1.176-0.87,1.973-1.125c0.796-0.255,1.601-0.368,2.413-0.336
		C6.776,0.036,7.542,0.217,8.262,0.55C8.98,0.883,9.526,1.389,9.897,2.07c0.154,0.278,0.239,0.58,0.255,0.905
		c0.016,0.325,0.016,0.635,0,0.928c-0.016,0.31-0.069,0.611-0.162,0.905S9.773,5.38,9.619,5.644
		C9.387,6.046,9.093,6.397,8.737,6.699c-0.356,0.302-0.72,0.584-1.091,0.847c0.371,0.279,0.762,0.569,1.172,0.87
		c0.409,0.302,0.746,0.653,1.01,1.056c0.401,0.619,0.626,1.223,0.673,1.811c0.046,0.588-0.043,1.137-0.268,1.647
		c-0.224,0.51-0.564,0.975-1.021,1.392c-0.457,0.418-1.002,0.766-1.636,1.044c-0.526,0.232-1.106,0.387-1.741,0.465
		c-0.635,0.077-1.265,0.069-1.891-0.023c-0.627-0.093-1.218-0.274-1.775-0.545c-0.557-0.271-1.029-0.639-1.416-1.103
		c-0.263-0.31-0.445-0.657-0.545-1.044S0.043,12.342,0.012,11.955z M5.001,9.124c-0.402,0.263-0.77,0.537-1.102,0.823
		c-0.333,0.287-0.631,0.631-0.894,1.033c0,0.031-0.023,0.081-0.07,0.15s-0.069,0.244-0.069,0.522c0,0.077,0.003,0.162,0.012,0.255
		c0.007,0.093,0.035,0.201,0.081,0.325c0.278,0.402,0.653,0.673,1.125,0.812c0.472,0.14,0.947,0.167,1.427,0.082
		s0.913-0.275,1.3-0.569c0.386-0.293,0.649-0.673,0.788-1.137c-0.062-0.263-0.193-0.507-0.394-0.73
		c-0.202-0.225-0.43-0.43-0.685-0.615C6.266,9.89,6.002,9.716,5.732,9.553C5.461,9.391,5.217,9.248,5.001,9.124z M3.493,3.648
		C3.461,3.741,3.458,3.826,3.481,3.903c0.023,0.078,0.05,0.163,0.081,0.255c0.217,0.34,0.464,0.65,0.743,0.928
		s0.58,0.549,0.905,0.812c0.371-0.247,0.727-0.514,1.067-0.8c0.34-0.286,0.642-0.623,0.905-1.01c0.062-0.17,0.101-0.293,0.116-0.371
		C7.313,3.64,7.29,3.501,7.229,3.3C6.997,3.067,6.71,2.909,6.37,2.824C6.029,2.739,5.677,2.708,5.314,2.731
		C4.951,2.754,4.606,2.839,4.282,2.986c-0.325,0.147-0.58,0.336-0.766,0.568C3.5,3.586,3.493,3.617,3.493,3.648z"/>
</g>
</svg>
