<?xml version="1.0" encoding="utf-8"?>
<!-- Generator: Adobe Illustrator 13.0.2, SVG Export Plug-In . SVG Version: 6.00 Build 14948)  -->
<!DOCTYPE svg PUBLIC "-//W3C//DTD SVG 1.1//EN" "http://www.w3.org/Graphics/SVG/1.1/DTD/svg11.dtd">
<svg version="1.1" id="Layer_2" xmlns="http://www.w3.org/2000/svg" xmlns:xlink="http://www.w3.org/1999/xlink" x="0px" y="0px"
	 width="11.438px" height="15.288px" viewBox="0 0 11.438 15.288" enable-background="new 0 0 11.438 15.288" xml:space="preserve">
<g>
	<linearGradient id="SVGID_1_" gradientUnits="userSpaceOnUse" x1="5.7183" y1="0" x2="5.7183" y2="15.2881">
		<stop  offset="0" style="stop-color:#FF0000"/>
		<stop  offset="0.0365" style="stop-color:#FD2604"/>
		<stop  offset="0.0851" style="stop-color:#FB5009"/>
		<stop  offset="0.1344" style="stop-color:#F9740D"/>
		<stop  offset="0.1839" style="stop-color:#F79010"/>
		<stop  offset="0.2336" style="stop-color:#F6A312"/>
		<stop  offset="0.2838" style="stop-color:#F5AF14"/>
		<stop  offset="0.3352" style="stop-color:#F5B314"/>
		<stop  offset="0.5206" style="stop-color:#F8850F"/>
		<stop  offset="0.94" style="stop-color:#FE1102"/>
		<stop  offset="1" style="stop-color:#FF0000"/>
	</linearGradient>
	<path fill="url(#SVGID_1_)" d="M5.863,14.309c-0.108,0.278-0.271,0.499-0.487,0.661c-0.217,0.162-0.445,0.263-0.685,0.302
		c-0.24,0.038-0.48,0.008-0.719-0.093c-0.24-0.101-0.445-0.282-0.615-0.546c-0.201-0.294-0.275-0.622-0.22-0.985
		c0.054-0.363,0.104-0.692,0.151-0.986c0.293-1.748,0.758-3.458,1.392-5.128S6.142,4.3,7.163,2.846H1.454
		c-0.417,0-0.75-0.116-0.998-0.348C0.209,2.266,0.062,1.992,0.016,1.674c-0.046-0.317,0.012-0.626,0.174-0.928
		c0.163-0.302,0.445-0.522,0.847-0.661c0.17-0.046,0.348-0.07,0.534-0.07c1.454,0,2.896-0.003,4.328-0.012
		C7.329-0.004,8.771,0,10.226,0.015c0.278,0,0.542,0.132,0.789,0.395c0.247,0.263,0.387,0.526,0.418,0.789
		c0.03,0.464-0.085,0.851-0.349,1.16c-0.263,0.31-0.525,0.626-0.788,0.951c-0.279,0.372-0.542,0.754-0.789,1.149
		C9.259,4.854,9.02,5.252,8.787,5.654C8.029,7,7.41,8.373,6.931,9.772c-0.48,1.4-0.812,2.866-0.998,4.397L5.863,14.309z"/>
</g>
</svg>
