<?xml version="1.0" encoding="utf-8"?>
<!-- Generator: Adobe Illustrator 12.0.0, SVG Export Plug-In . SVG Version: 6.00 Build 51448)  -->
<!DOCTYPE svg PUBLIC "-//W3C//DTD SVG 1.1//EN" "http://www.w3.org/Graphics/SVG/1.1/DTD/svg11.dtd" [
	<!ENTITY ns_svg "http://www.w3.org/2000/svg">
	<!ENTITY ns_xlink "http://www.w3.org/1999/xlink">
]>
<svg  version="1.1" id="Layer_1" xmlns="&ns_svg;" xmlns:xlink="&ns_xlink;" width="25" height="25" viewBox="0 0 25 25"
	 overflow="visible" enable-background="new 0 0 25 25" xml:space="preserve">
<path fill="#FFFFFF" stroke="#FFFFFF" stroke-width="0.25" d="M6.318,21.34L6.318,21.34z"/>
<g>
	<path fill="#80CB88" d="M11.929,9.222c-4.926,0-9.623-0.606-13.929-1.7l13.992,15.753L26,7.487
		C21.654,8.602,16.906,9.222,11.929,9.222z"/>
	<path d="M11.929,8.722c-4.759,0-9.404-0.567-13.806-1.685l-0.497,0.817l13.992,15.753h0.748L26.374,7.819l-0.498-0.816
		C21.431,8.143,16.738,8.722,11.929,8.722z M25.626,7.155L11.618,22.943h0.748L-1.626,7.19l-0.497,0.817
		c4.482,1.138,9.21,1.715,14.052,1.715c4.894,0,9.669-0.589,14.195-1.75L25.626,7.155z"/>
</g>
</svg>
