<?xml version="1.0" encoding="utf-8"?>
<!-- Generator: Adobe Illustrator 15.0.2, SVG Export Plug-In . SVG Version: 6.00 Build 0)  -->
<!DOCTYPE svg PUBLIC "-//W3C//DTD SVG 1.1//EN" "http://www.w3.org/Graphics/SVG/1.1/DTD/svg11.dtd">
<svg version="1.1" id="Layer_1" xmlns="http://www.w3.org/2000/svg" xmlns:xlink="http://www.w3.org/1999/xlink" x="0px" y="0px"
	 width="200px" height="200px" viewBox="0 0 200 200" enable-background="new 0 0 200 200" xml:space="preserve">
<path fill="#999999" d="M200,188c0,6.627-5.373,12-12,12H12c-6.627,0-12-5.373-12-12V12C0,5.373,5.373,0,12,0h176
	c6.627,0,12,5.373,12,12V188z"/>
<path fill="#FFFFFF" d="M108.788,100l46.238-45.297c2.426-2.377,2.426-6.232,0-8.609c-2.428-2.377-6.361-2.377-8.789,0L100,91.39
	L53.763,46.093c-2.426-2.377-6.361-2.377-8.788,0c-2.427,2.377-2.427,6.232,0,8.609L91.211,100l-46.237,45.297
	c-2.426,2.377-2.426,6.232,0,8.609c1.214,1.189,2.804,1.783,4.395,1.783c1.59,0,3.18-0.594,4.394-1.783L100,108.609l46.237,45.297
	c1.213,1.189,2.803,1.783,4.393,1.783c1.592,0,3.182-0.594,4.396-1.783c2.426-2.377,2.426-6.232,0-8.609L108.788,100z"/>
</svg>
