<?xml version="1.0" encoding="utf-8"?>
<!-- Generator: Adobe Illustrator 15.0.2, SVG Export Plug-In . SVG Version: 6.00 Build 0)  -->
<!DOCTYPE svg PUBLIC "-//W3C//DTD SVG 1.1//EN" "http://www.w3.org/Graphics/SVG/1.1/DTD/svg11.dtd">
<svg version="1.1" id="Layer_1" xmlns="http://www.w3.org/2000/svg" xmlns:xlink="http://www.w3.org/1999/xlink" x="0px" y="0px"
	 width="512px" height="512px" viewBox="0 0 512 512" enable-background="new 0 0 512 512" xml:space="preserve">
<path fill="#FDDFB3" d="M512,464c0,26.51-21.49,48-48,48H48c-26.51,0-48-21.49-48-48V48C0,21.49,21.49,0,48,0h416
	c26.51,0,48,21.49,48,48V464z"/>
<linearGradient id="SVGID_1_" gradientUnits="userSpaceOnUse" x1="27.0596" y1="27.0596" x2="484.9416" y2="484.9416">
	<stop  offset="0" style="stop-color:#00894D"/>
	<stop  offset="1" style="stop-color:#00411D"/>
</linearGradient>
<path fill="url(#SVGID_1_)" d="M499,451c0,26.51-21.49,48-48,48H61c-26.51,0-48-21.49-48-48V61c0-26.51,21.49-48,48-48h390
	c26.51,0,48,21.49,48,48V451z"/>
<g>
	<path fill="#FDD08C" d="M130.974,394.645v-277.29h55.987V240.49L300.07,117.355h75.279L270.943,225.358l110.082,169.287h-72.443
		l-76.225-130.133l-45.396,46.34v83.793H130.974L130.974,394.645z"/>
</g>
</svg>
