<?xml version="1.0" encoding="UTF-8" standalone="no"?>
<!-- Created with Inkscape (http://www.inkscape.org/) -->

<svg
   xmlns:dc="http://purl.org/dc/elements/1.1/"
   xmlns:cc="http://creativecommons.org/ns#"
   xmlns:rdf="http://www.w3.org/1999/02/22-rdf-syntax-ns#"
   xmlns:svg="http://www.w3.org/2000/svg"
   xmlns="http://www.w3.org/2000/svg"
   xmlns:sodipodi="http://sodipodi.sourceforge.net/DTD/sodipodi-0.dtd"
   xmlns:inkscape="http://www.inkscape.org/namespaces/inkscape"
   width="512"
   height="512"
   id="svg4658"
   version="1.1"
   inkscape:version="0.48.2 r9819"
   sodipodi:docname="kumir2-icon-python.svg"
   inkscape:export-filename="/home/victor/Work/git/kumir2/share/kumir2/coregui/kumir2-icon-python.png"
   inkscape:export-xdpi="90"
   inkscape:export-ydpi="90">
  <defs
     id="defs4660" />
  <sodipodi:namedview
     id="base"
     pagecolor="#ffffff"
     bordercolor="#666666"
     borderopacity="1.0"
     inkscape:pageopacity="0.0"
     inkscape:pageshadow="2"
     inkscape:zoom="0.35"
     inkscape:cx="-323.91545"
     inkscape:cy="-461.82479"
     inkscape:document-units="px"
     inkscape:current-layer="layer1"
     showgrid="false"
     fit-margin-top="0"
     fit-margin-left="0"
     fit-margin-right="0"
     fit-margin-bottom="0"
     inkscape:window-width="1596"
     inkscape:window-height="1030"
     inkscape:window-x="1678"
     inkscape:window-y="-3"
     inkscape:window-maximized="1" />
  <metadata
     id="metadata4663">
    <rdf:RDF>
      <cc:Work
         rdf:about="">
        <dc:format>image/svg+xml</dc:format>
        <dc:type
           rdf:resource="http://purl.org/dc/dcmitype/StillImage" />
        <dc:title></dc:title>
      </cc:Work>
    </rdf:RDF>
  </metadata>
  <g
     inkscape:label="Layer 1"
     inkscape:groupmode="layer"
     id="layer1"
     transform="translate(-198.28721,91.167399)">
    <g
       id="g5187"
       transform="matrix(0.98977537,0,0,0.98977537,4.0268645,4.3032277)">
      <path
         inkscape:connector-curvature="0"
         id="path1948"
         d="m 451.09713,-92.416289 c -20.77076,0.09651 -40.60636,1.867951 -58.05967,4.956325 -51.41522,9.083357 -60.7502,28.095658 -60.75023,63.157562 l 0,46.306126 121.50047,0 0,15.435366 -121.50047,0 -45.59806,0 c -35.31142,0 -66.23111,21.224185 -75.90238,61.599875 -11.15571,46.279915 -11.6505,75.159315 0,123.482985 8.63668,35.97025 29.26227,61.59985 64.57366,61.59987 l 41.77463,0 0,-55.51068 c 0,-40.10322 34.69823,-75.47756 75.90238,-75.47756 l 121.35885,0 c 33.782,0 60.75025,-27.81499 60.75022,-61.741489 l 0,-115.694493 c 0,-32.927308 -27.77791,-57.662145 -60.75022,-63.157562 -20.87196,-3.474407 -42.52842,-5.052833 -63.29918,-4.956325 z m -65.70655,37.243155 c 12.55018,0 22.79903,10.416283 22.79903,23.223858 0,12.762194 -10.24885,23.0822405 -22.79903,23.0822405 -12.59515,0 -22.79903,-10.3200735 -22.79903,-23.0822405 0,-12.807575 10.20388,-23.223858 22.79903,-23.223858 z"
         style="fill:#031840;fill-opacity:1;stroke:#ffffff;stroke-width:8;stroke-miterlimit:4;stroke-opacity:1;stroke-dasharray:none" />
      <path
         inkscape:connector-curvature="0"
         id="path1950"
         d="m 590.29869,37.43909 0,53.953001 c 0,41.829039 -35.46293,77.035239 -75.90238,77.035239 l -121.35885,0 c -33.24221,0 -60.7502,28.45087 -60.75023,61.74149 l 0,115.69447 c 0,32.92731 28.63261,52.29479 60.75023,61.74149 38.46021,11.30882 75.34157,13.3526 121.35885,0 30.58823,-8.85629 60.75025,-26.67961 60.75022,-61.74149 l 0,-46.3061 -121.35883,0 0,-15.43537 121.35883,0 60.75025,0 c 35.31141,0 48.46989,-24.63046 60.75017,-61.59987 12.68512,-38.05944 12.14538,-74.65975 0,-123.482985 C 687.92032,63.886245 671.25309,37.43909 635.89678,37.43909 l -45.59809,0 z m -68.25551,292.98883 c 12.59518,3e-5 22.79903,10.3201 22.79903,23.08224 0,12.80758 -10.20388,23.22386 -22.79903,23.22386 -12.55017,0 -22.79903,-10.41628 -22.79903,-23.22386 0,-12.76214 10.24886,-23.08224 22.79903,-23.08224 z"
         style="fill:#ffffff;fill-opacity:1;stroke:#031840;stroke-width:8;stroke-miterlimit:4;stroke-opacity:1;stroke-dasharray:none" />
    </g>
  </g>
</svg>
