<?xml version="1.0" encoding="UTF-8" standalone="no"?>
<!-- Created with Inkscape (http://www.inkscape.org/) -->

<svg
   xmlns:dc="http://purl.org/dc/elements/1.1/"
   xmlns:cc="http://creativecommons.org/ns#"
   xmlns:rdf="http://www.w3.org/1999/02/22-rdf-syntax-ns#"
   xmlns:svg="http://www.w3.org/2000/svg"
   xmlns="http://www.w3.org/2000/svg"
   xmlns:xlink="http://www.w3.org/1999/xlink"
   xmlns:sodipodi="http://sodipodi.sourceforge.net/DTD/sodipodi-0.dtd"
   xmlns:inkscape="http://www.inkscape.org/namespaces/inkscape"
   width="440"
   height="320"
   id="svg2"
   version="1.1"
   inkscape:version="0.48.4 r9939"
   sodipodi:docname="splashscreen_python.svg"
   inkscape:export-filename="/home/victor/Work/git/kumir2/share/kumir2/coregui/splashscreens/python.png"
   inkscape:export-xdpi="90"
   inkscape:export-ydpi="90">
  <defs
     id="defs4">
    <linearGradient
       inkscape:collect="always"
       xlink:href="#linearGradient4689"
       id="linearGradient1478"
       gradientUnits="userSpaceOnUse"
       gradientTransform="matrix(0.562541,0,0,0.567972,-9.399749,-5.305317)"
       x1="26.648937"
       y1="20.603781"
       x2="135.66525"
       y2="114.39767" />
    <linearGradient
       id="linearGradient4689">
      <stop
         style="stop-color:#5a9fd4;stop-opacity:1;"
         offset="0"
         id="stop4691" />
      <stop
         style="stop-color:#306998;stop-opacity:1;"
         offset="1"
         id="stop4693" />
    </linearGradient>
    <linearGradient
       inkscape:collect="always"
       xlink:href="#linearGradient4671"
       id="linearGradient1475"
       gradientUnits="userSpaceOnUse"
       gradientTransform="matrix(0.562541,0,0,0.567972,-9.399749,-5.305317)"
       x1="150.96111"
       y1="192.35176"
       x2="112.03144"
       y2="137.27299" />
    <linearGradient
       id="linearGradient4671">
      <stop
         style="stop-color:#ffd43b;stop-opacity:1;"
         offset="0"
         id="stop4673" />
      <stop
         style="stop-color:#ffe873;stop-opacity:1"
         offset="1"
         id="stop4675" />
    </linearGradient>
    <linearGradient
       y2="137.27299"
       x2="112.03144"
       y1="192.35176"
       x1="150.96111"
       gradientTransform="matrix(0.562541,0,0,0.567972,-9.399749,-5.305317)"
       gradientUnits="userSpaceOnUse"
       id="linearGradient3152"
       xlink:href="#linearGradient4671"
       inkscape:collect="always" />
  </defs>
  <sodipodi:namedview
     id="base"
     pagecolor="#ffffff"
     bordercolor="#666666"
     borderopacity="1.0"
     inkscape:pageopacity="0.0"
     inkscape:pageshadow="2"
     inkscape:zoom="0.7"
     inkscape:cx="-14.692595"
     inkscape:cy="140.03571"
     inkscape:document-units="px"
     inkscape:current-layer="layer1"
     showgrid="false"
     inkscape:window-width="1602"
     inkscape:window-height="1026"
     inkscape:window-x="70"
     inkscape:window-y="-3"
     inkscape:window-maximized="1" />
  <metadata
     id="metadata7">
    <rdf:RDF>
      <cc:Work
         rdf:about="">
        <dc:format>image/svg+xml</dc:format>
        <dc:type
           rdf:resource="http://purl.org/dc/dcmitype/StillImage" />
        <dc:title></dc:title>
      </cc:Work>
    </rdf:RDF>
  </metadata>
  <g
     inkscape:label="Layer 1"
     inkscape:groupmode="layer"
     id="layer1"
     transform="translate(0,-732.36218)">
    <rect
       style="fill:#031840;fill-opacity:1;stroke:none"
       id="rect3160-8"
       width="440"
       height="160"
       x="0"
       y="892.36218" />
    <text
       xml:space="preserve"
       style="font-size:40px;font-style:normal;font-weight:normal;text-align:center;line-height:125%;letter-spacing:0px;word-spacing:0px;text-anchor:middle;fill:#031840;fill-opacity:1;stroke:none;font-family:Sans"
       x="219.23828"
       y="787.50507"
       id="text3152"
       sodipodi:linespacing="125%"><tspan
         sodipodi:role="line"
         id="tspan3154"
         x="219.23828"
         y="787.50507"
         style="fill:#031840;fill-opacity:1">Кумир</tspan></text>
    <rect
       style="fill:none;stroke:#000000;stroke-width:1.01033318;stroke-miterlimit:4;stroke-opacity:1;stroke-dasharray:none;stroke-dashoffset:0"
       id="rect3160"
       width="438.98965"
       height="318.98965"
       x="0.50517273"
       y="732.86737" />
    <g
       id="g4539"
       transform="matrix(0.40549707,0,0,0.40549707,142.95556,608.51158)"
       style="fill:#ffffff">
      <path
         d="m 77.26029,1024.5601 c 0,-14.5621 -4.15226,-22.0381 -12.45678,-22.4475 -3.30427,-0.156 -6.53055,0.3704 -9.66912,1.5888 -2.505,0.8967 -4.19124,1.7837 -5.07823,2.6804 l 0,34.7581 c 5.31216,3.3336 10.02976,4.8833 14.14303,4.6397 8.70415,-0.5751 13.0611,-7.6418 13.0611,-21.2195 z m 10.24419,0.6044 c 0,7.398 -1.73498,13.5387 -5.22444,18.422 -3.88909,5.5266 -9.27923,8.3727 -16.17042,8.5287 -5.1952,0.1657 -10.54635,-1.4621 -16.05346,-4.8736 l 0,31.5903 -8.90884,-3.1775 0,-70.1206 c 1.46206,-1.7934 3.34325,-3.3335 5.62407,-4.6396 5.30242,-3.08982 11.74524,-4.6786 19.32848,-4.75657 l 0.12671,0.12671 c 6.93018,-0.0877 12.27159,2.75843 16.02422,8.52866 3.4992,5.2927 5.25368,12.0767 5.25368,20.3715 z"
         style="fill:#ffffff;fill-opacity:1"
         id="path46"
         inkscape:connector-curvature="0" />
      <path
         d="m 141.95172,1045.8965 c 0,9.9226 -0.9942,16.7943 -2.9826,20.6151 -1.99816,3.8209 -5.79952,6.8717 -11.41385,9.1428 -4.55189,1.7935 -9.47417,2.7682 -14.75709,2.9339 l -1.47181,-5.6144 c 5.37064,-0.731 9.15252,-1.462 11.34561,-2.1931 4.31796,-1.462 7.28108,-3.7038 8.90884,-6.706 1.30611,-2.4465 1.94942,-7.1153 1.94942,-14.026 l 0,-2.3198 c -6.09193,2.7682 -12.47628,4.1425 -19.15303,4.1425 -4.38619,0 -8.25579,-1.3743 -11.58929,-4.1425 -3.74289,-3.0119 -5.61433,-6.8327 -5.61433,-11.4626 l 0,-37.07793 8.90884,-3.05084 0,37.32157 c 0,3.9866 1.28662,7.0569 3.85985,9.211 2.57323,2.1541 5.90674,3.1873 9.99077,3.1094 4.08403,-0.088 8.46047,-1.6668 13.10983,-4.7566 l 0,-43.54027 8.90884,0 0,48.41377 z"
         style="fill:#ffffff;fill-opacity:1"
         id="path48"
         inkscape:connector-curvature="0" />
      <path
         d="m 176.72934,1051.6278 c -1.06243,0.088 -2.03714,0.1267 -2.93387,0.1267 -5.03925,0 -8.96733,-1.1989 -11.77449,-3.6064 -2.79742,-2.4075 -4.20099,-5.7313 -4.20099,-9.9713 l 0,-35.0895 -6.10168,0 0,-5.60457 6.10168,0 0,-14.88381 8.89909,-3.16781 0,18.05162 10.01026,0 0,5.60457 -10.01026,0 0,34.8459 c 0,3.3432 0.89673,5.7117 2.6902,7.0958 1.54004,1.1404 3.98656,1.7935 7.32006,1.9592 l 0,4.6396 z"
         style="fill:#ffffff;fill-opacity:1"
         id="path50"
         inkscape:connector-curvature="0" />
      <path
         d="m 230.66973,1050.8968 -8.90884,0 0,-34.3877 c 0,-3.4993 -0.81876,-6.5111 -2.44651,-9.0259 -1.88119,-2.8461 -4.49342,-4.2692 -7.84641,-4.2692 -4.08404,0 -9.19152,2.1541 -15.32242,6.4623 l 0,41.2205 -8.90885,0 0,-82.19723 8.90885,-2.80716 0,37.43859 c 5.6923,-4.14253 11.91093,-6.21866 18.66566,-6.21866 4.7176,0 8.53846,1.58877 11.46258,4.75656 2.93388,3.1678 4.39594,7.1154 4.39594,11.833 l 0,37.1949 0,0 z"
         style="fill:#ffffff;fill-opacity:1"
         id="path52"
         inkscape:connector-curvature="0" />
      <path
         d="m 278.02109,1023.1566 c 0,-5.5949 -1.06242,-10.215 -3.17755,-13.8701 -2.51474,-4.4545 -6.42332,-6.8035 -11.70625,-7.0472 -9.76658,0.5653 -14.64012,7.5638 -14.64012,20.9757 0,6.1505 1.01369,11.2872 3.06057,15.4102 2.61223,5.2537 6.53056,7.8464 11.755,7.7587 9.80557,-0.078 14.70835,-7.8172 14.70835,-23.2273 z m 9.75685,0.058 c 0,7.9633 -2.03714,14.5914 -6.10168,19.884 -4.47391,5.9263 -10.65357,8.8991 -18.53897,8.8991 -7.81716,0 -13.90909,-2.9728 -18.30503,-8.8991 -3.98656,-5.2926 -5.97497,-11.9207 -5.97497,-19.884 0,-7.4858 2.15411,-13.7824 6.46232,-18.9094 4.5519,-5.43887 10.53661,-8.16805 17.93464,-8.16805 7.39805,0 13.42174,2.72918 18.06137,8.16805 4.3082,5.127 6.46232,11.4236 6.46232,18.9094 z"
         style="fill:#ffffff;fill-opacity:1"
         id="path54"
         inkscape:connector-curvature="0" />
      <path
         d="m 338.85268,1050.8968 -8.90884,0 0,-36.3372 c 0,-3.9865 -1.19889,-7.0958 -3.59667,-9.3377 -2.39779,-2.2321 -5.59483,-3.314 -9.58139,-3.2263 -4.23023,0.078 -8.25579,1.4621 -12.07664,4.1425 l 0,44.7587 -8.90884,0 0,-45.8601 c 5.12697,-3.7331 9.84456,-6.16989 14.15276,-7.3103 4.06455,-1.06243 7.65148,-1.58877 10.74131,-1.58877 2.11512,0 4.10352,0.20469 5.97496,0.61406 3.49921,0.80901 6.34535,2.31006 8.53845,4.51291 2.44651,2.4368 3.6649,5.3609 3.6649,8.7821 l 0,40.8501 z"
         style="fill:#ffffff;fill-opacity:1"
         id="path56"
         inkscape:connector-curvature="0" />
    </g>
    <g
       id="g4582"
       transform="translate(1.2756048e-5,0)">
      <path
         inkscape:connector-curvature="0"
         id="path1948"
         d="m 218.89359,803.57325 c -7.66192,0.0356 -14.97888,0.68905 -21.41706,1.82829 -18.96605,3.35067 -22.40954,10.36393 -22.40955,23.29757 l 0,17.08141 44.81911,0 0,5.6938 -44.81911,0 -16.82022,0 c -13.02568,0 -24.43134,7.82918 -27.99888,22.72297 -4.11512,17.07174 -4.29764,27.72478 0,45.55042 3.1859,13.26871 10.79427,22.72296 23.81994,22.72297 l 15.40983,0 0,-20.47679 c 0,-14.79328 12.79949,-27.84217 27.99888,-27.84217 l 44.76687,0 c 12.46151,0 22.40956,-10.2604 22.40955,-22.77521 l 0,-42.6774 c 0,-12.14623 -10.24672,-21.27042 -22.40955,-23.29757 -7.69925,-1.28164 -15.68789,-1.86389 -23.34981,-1.82829 z m -24.23784,13.73826 c 4.62951,0 8.41011,3.84236 8.41011,8.56682 0,4.70772 -3.7806,8.51458 -8.41011,8.51458 -4.6461,0 -8.41011,-3.80687 -8.41011,-8.51458 0,-4.72446 3.76401,-8.56682 8.41011,-8.56682 z"
         style="fill:#031840;fill-opacity:1;stroke:#ffffff;stroke-opacity:1" />
      <path
         inkscape:connector-curvature="0"
         id="path1950"
         d="m 270.24228,851.47432 0,19.90219 c 0,15.4299 -13.08157,28.41677 -27.99888,28.41677 l -44.76687,0 c -12.26239,0 -22.40954,10.49496 -22.40955,22.77521 l 0,42.67739 c 0,12.14623 10.562,19.29051 22.40955,22.77521 14.18721,4.1716 27.79201,4.92551 44.76687,0 11.28339,-3.26691 22.40956,-9.84158 22.40955,-22.77521 l 0,-17.0814 -44.76686,0 0,-5.6938 44.76686,0 22.40956,0 c 13.02568,0 17.87958,-9.08569 22.40953,-22.72297 4.67929,-14.03937 4.48019,-27.5405 0,-45.55042 -3.21908,-12.96714 -9.36729,-22.72297 -22.40953,-22.72297 l -16.82023,0 z m -25.1781,108.07776 c 4.64611,10e-6 8.41011,3.80688 8.41011,8.51458 0,4.72446 -3.76401,8.56682 -8.41011,8.56682 -4.62951,0 -8.41011,-3.84236 -8.41011,-8.56682 0,-4.7077 3.7806,-8.51458 8.41011,-8.51458 z"
         style="fill:#ffffff;fill-opacity:1;stroke:#031840;stroke-opacity:1" />
    </g>
  </g>
</svg>
