<?xml version="1.0" standalone="no"?> <!DOCTYPE svg PUBLIC "-//W3C//DTD SVG 1.0//EN" "http://www.w3.org/TR/2001/REC-SVG-20010904/DTD/svg10.dtd" > <svg xmlns="http://www.w3.org/2000/svg" width="100%" height="100%">
<defs >
<font horiz-adv-x="1054" ><font-face
    font-family="OpenGost Type A"
    units-per-em="2200"
    panose-1="2 0 5 3 0 0 0 0 0 0"
    ascent="1800"
    descent="-400"
    alphabetic="0" />
<missing-glyph horiz-adv-x="804" d="M73 0V1466H658V0H73ZM146 73H585V1393H146V73Z" />
<glyph unicode=" " glyph-name="space" horiz-adv-x="600" />
<glyph unicode="!" glyph-name="exclam" horiz-adv-x="300" d="M200 71T200 50T186 15T150 0T115 14T100 50T114 85T150 100T185 86ZM129 1400T150 1400T185 1386T200 1350V350Q200 329 186 315T150 300T115 314T100 350V1350Q100 1371 114 1385Z" />
<glyph unicode="&quot;" glyph-name="quotedbl" horiz-adv-x="450" d="M350 1400Q371 1400 385 1386T400 1350Q400 1342 399 1338L349 1138Q345 1122 331 1111T300 1100Q279 1100 265 1114T250 1150Q250 1158 251 1162L301 1362Q305 1378 319 1389T350 1400ZM150
1400Q171 1400 185 1386T200 1350Q200 1342 199 1338L149 1138Q145 1122 131 1111T100 1100Q79 1100 65 1114T50 1150Q50 1158 51 1162L101 1362Q105 1378 119 1389T150 1400Z" />
<glyph unicode="#" glyph-name="numbersign" horiz-adv-x="900" d="M279 1400T300 1400T335 1386T350 1350V1050H550V1350Q550 1371 564 1385T600 1400T635 1386T650 1350V1050H750Q771 1050 785 1036T800 1000T786 965T750 950H650V450H750Q771 450 785 436T800
400T786 365T750 350H650V50Q650 29 636 15T600 0T565 14T550 50V350H350V50Q350 29 336 15T300 0T265 14T250 50V350H150Q129 350 115 364T100 400T114 435T150 450H250V950H150Q129 950 115 964T100 1000T114 1035T150 1050H250V1350Q250 1371 264 1385ZM350
950V450H550V950H350Z" />
<glyph unicode="$" glyph-name="dollar" horiz-adv-x="900" d="M429 1600T450 1600T485 1586T500 1550V1428Q675 1415 755 1335Q770 1320 770 1300Q770 1279 756 1265T720 1250Q700 1250 685 1265Q636 1314 500 1327V745L733 460Q800 377 800 270Q800 138 713
57Q634 -16 500 -28V-150Q500 -171 486 -185T450 -200T415 -186T400 -150V-29Q201 -22 115 65Q100 80 100 100Q100 121 114 135T150 150Q170 150 185 135Q242 78 400 71V709L158 1006Q100 1078 100 1170Q100 1286 186 1357Q264 1422 400 1429V1550Q400 1571 414
1585ZM400 1329Q299 1322 249 1280Q200 1241 200 1170Q200 1115 236 1069L400 868V1329ZM500 587V72Q591 81 645 130Q700 181 700 270Q700 341 655 396L500 587Z" />
<glyph unicode="%" glyph-name="percent" horiz-adv-x="1700" d="M276 1400T400 1400T612 1312T700 1100T612 888T400 800T188 888T100 1100T188 1312ZM483 1300T400 1300T259 1242T200 1100T258 959T400 900T541 958T600 1100T542 1241ZM1176 600T1300 600T1512
512T1600 300T1512 88T1300 0T1088 88T1000 300T1088 512ZM1383 500T1300 500T1159 442T1100 300T1158 159T1300 100T1441 158T1500 300T1442 441ZM1250 1400Q1271 1400 1285 1386T1300 1350Q1300 1336 1293 1324L493 24Q478 0 450 0Q429 0 415 14T400 50Q400 64
407 76L1207 1376Q1222 1400 1250 1400Z" />
<glyph unicode="&amp;" glyph-name="ampersand" horiz-adv-x="1100" d="M332 1430T425 1430T584 1364T650 1205Q650 1144 618 1090L488 872L811 362L913 484Q927 500 950 500Q971 500 985 486T1000 450Q1000 431 990 420L867 274L992 77Q1000 64 1000 50Q1000
29 986 15T950 0Q923 0 908 23L800 193L718 95Q669 36 600 3T450 -30Q305 -30 203 72T100 320Q100 417 149 499L371 870L235 1084Q200 1140 200 1205Q200 1298 266 1364ZM477 1330T425 1330T337 1294T300 1205Q300 1168 319 1138L428 966L532 1141Q550 1172 550
1205Q550 1257 514 1293ZM431 776L235 448Q200 389 200 320Q200 216 273 143T450 70Q567 70 642 160L744 282L431 776Z" />
<glyph unicode="&apos;" glyph-name="quotesingle" horiz-adv-x="250" d="M150 1400Q171 1400 185 1386T200 1350Q200 1342 199 1338L149 1138Q145 1122 131 1111T100 1100Q79 1100 65 1114T50 1150Q50 1158 51 1162L101 1362Q105 1378 119 1389T150 1400Z" />
<glyph unicode="(" glyph-name="parenleft" horiz-adv-x="400" d="M250 1500Q271 1500 285 1486T300 1450Q300 1441 298 1437Q200 1066 200 700Q200 329 298 -37Q300 -45 300 -50Q300 -71 286 -85T250 -100Q231 -100 218 -87T199 -52Q100 350 100 700Q100 1047
198 1452Q211 1500 250 1500Z" />
<glyph unicode=")" glyph-name="parenright" horiz-adv-x="400" d="M150 1500Q189 1500 202 1452Q300 1047 300 700T202 -52Q189 -100 150 -100Q130 -100 115 -86T100 -50Q100 -45 102 -37Q200 329 200 700T102 1437Q100 1445 100 1450Q100 1471 115 1485T150 1500Z" />
<glyph unicode="*" glyph-name="asterisk" horiz-adv-x="900" d="M350 1400Q381 1400 395 1372L450 1262L505 1372Q519 1400 550 1400Q571 1400 585 1386T600 1350Q600 1338 595 1328L531 1200H650Q671 1200 685 1186T700 1150T686 1115T650 1100H531L595 972Q600
962 600 950Q600 929 586 915T550 900Q519 900 505 928L450 1038L395 928Q381 900 350 900Q329 900 315 914T300 950Q300 962 305 972L369 1100H250Q229 1100 215 1114T200 1150T214 1185T250 1200H369L305 1328Q300 1338 300 1350Q300 1371 314 1385T350 1400Z"
/>
<glyph unicode="+" glyph-name="plus" horiz-adv-x="700" d="M329 800T350 800T385 786T400 750V550H600Q621 550 635 536T650 500T636 465T600 450H400V250Q400 229 386 215T350 200T315 214T300 250V450H100Q79 450 65 464T50 500T64 535T100 550H300V750Q300
771 314 785Z" />
<glyph unicode="," glyph-name="comma" horiz-adv-x="300" d="M150 100Q171 100 185 86T200 50Q200 44 199 38L149 -162Q144 -179 131 -189T100 -200Q79 -200 65 -186T50 -150Q50 -144 51 -138L101 62Q106 79 119 89T150 100Z" />
<glyph unicode="-" glyph-name="hyphen" horiz-adv-x="700" d="M100 550H600Q621 550 635 536T650 500T636 465T600 450H100Q79 450 65 464T50 500T64 535T100 550Z" />
<glyph unicode="." glyph-name="period" horiz-adv-x="300" d="M200 71T200 50T186 15T150 0T115 14T100 50T114 85T150 100T185 86Z" />
<glyph unicode="/" glyph-name="slash" horiz-adv-x="1100" d="M950 1700Q971 1700 985 1686T1000 1650Q1000 1638 996 1630L196 -170Q182 -200 150 -200Q129 -200 115 -186T100 -150Q100 -138 104 -130L904 1670Q918 1700 950 1700Z" />
<glyph unicode="0" glyph-name="zero" horiz-adv-x="900" d="M305 1430T450 1430T697 1328T800 1080V320Q800 175 698 73T450 -30T203 72T100 320V1080Q100 1225 202 1327ZM554 1330T450 1330T273 1257T200 1080V320Q200 216 273 143T450 70T627 143T700 320V1080Q700
1184 627 1257Z" />
<glyph unicode="1" glyph-name="one" horiz-adv-x="550" d="M400 1400Q421 1400 435 1386T450 1350V50Q450 29 436 15T400 0T365 14T350 50V1229L135 1015Q120 1000 100 1000Q79 1000 65 1014T50 1050Q50 1070 65 1085L365 1385Q380 1400 400 1400Z" />
<glyph unicode="2" glyph-name="two" horiz-adv-x="900" d="M450 1430Q595 1430 697 1328T800 1080Q800 977 745 892L241 100H750Q771 100 785 86T800 50T786 15T750 0H150Q129 0 115 14T100 50Q100 64 108 77L661 946Q700 1007 700 1080Q700 1184 627 1257T450
1330Q361 1330 289 1275T199 1140Q195 1123 182 1112T150 1100Q129 1100 115 1114T100 1150Q100 1157 101 1161Q128 1277 227 1353T450 1430Z" />
<glyph unicode="3" glyph-name="three" horiz-adv-x="800" d="M150 1400H350Q474 1400 562 1312T650 1100V1000Q650 925 616 861T523 755Q604 709 652 628T700 450V350Q700 205 598 103T350 0H150Q129 0 115 14T100 50T114 85T150 100H350Q454 100 527 173T600
350V450Q600 554 527 627T350 700Q329 700 315 714T300 750T314 785T350 800Q432 800 491 859T550 1000V1100Q550 1182 491 1241T350 1300H150Q129 1300 115 1314T100 1350T114 1385T150 1400Z" />
<glyph unicode="4" glyph-name="four" horiz-adv-x="900" d="M400 1400Q421 1400 435 1386T450 1350Q450 1346 448 1338L214 400H500V650Q500 671 514 685T550 700T585 686T600 650V400H750Q771 400 785 386T800 350T786 315T750 300H600V50Q600 29 586 15T550
0T515 14T500 50V300H150Q129 300 115 314T100 350Q100 358 101 362L351 1362Q355 1378 369 1389T400 1400Z" />
<glyph unicode="5" glyph-name="five" horiz-adv-x="800" d="M150 1400H650Q671 1400 685 1386T700 1350T686 1315T650 1300H200V800H350Q495 800 597 698T700 450V350Q700 205 598 103T350 0H150Q129 0 115 14T100 50T114 85T150 100H350Q454 100 527 173T600
350V450Q600 554 527 627T350 700H150Q129 700 115 714T100 750V1350Q100 1371 114 1385T150 1400Z" />
<glyph unicode="6" glyph-name="six" horiz-adv-x="900" d="M550 1400Q571 1400 585 1386T600 1350Q600 1323 576 1308Q431 1217 334 1082T209 800H450Q595 800 697 698T800 450V320Q800 175 698 73T450 -30T203 72T100 320V700Q100 900 215 1086T524 1392Q537
1400 550 1400ZM200 700V320Q200 216 273 143T450 70T627 143T700 320V450Q700 554 627 627T450 700H200Z" />
<glyph unicode="7" glyph-name="seven" horiz-adv-x="820" d="M100 1400H700Q721 1400 735 1386T750 1350Q750 1342 749 1338L449 39Q445 22 432 11T400 0Q379 0 365 14T350 50Q350 57 351 61L637 1300H150V1200Q150 1179 136 1165T100 1150T65 1164T50 1200V1350Q50
1371 64 1385T100 1400Z" />
<glyph unicode="8" glyph-name="eight" horiz-adv-x="900" d="M305 1430T450 1430T684 1338Q780 1239 780 1065T684 792Q661 769 639 754Q684 729 719 694Q830 581 830 385T719 76Q614 -30 450 -30T181 76Q70 189 70 385T181 694Q216 729 261 754Q239 769 216
792Q120 891 120 1065T216 1338Q305 1430 450 1430ZM552 1330T450 1330T288 1268Q220 1198 220 1065T288 862Q348 800 450 800T612 862Q680 932 680 1065T612 1268Q552 1330 450 1330ZM574 700T450 700T252 624Q170 540 170 385T252 146Q326 70 450 70T648 146Q730
230 730 385T648 624Q574 700 450 700Z" />
<glyph unicode="9" glyph-name="nine" horiz-adv-x="900" d="M350 0Q329 0 315 14T300 50Q300 77 324 92Q469 183 566 318T691 600H450Q305 600 203 702T100 950V1080Q100 1225 202 1327T450 1430T697 1328T800 1080V700Q800 500 685 314T376 8Q363 0 350 0ZM700
700V1080Q700 1184 627 1257T450 1330T273 1257T200 1080V950Q200 846 273 773T450 700H700Z" />
<glyph unicode=":" glyph-name="colon" horiz-adv-x="300" d="M200 71T200 50T186 15T150 0T115 14T100 50T114 85T150 100T185 86ZM200 671T200 650T186 615T150 600T115 614T100 650T114 685T150 700T185 686Z" />
<glyph unicode=";" glyph-name="semicolon" horiz-adv-x="300" d="M150 100Q171 100 185 86T200 50Q200 44 199 38L149 -162Q144 -179 131 -189T100 -200Q79 -200 65 -186T50 -150Q50 -144 51 -138L101 62Q106 79 119 89T150 100ZM200 671T200 650T186 615T150
600T115 614T100 650T114 685T150 700T185 686Z" />
<glyph unicode="&lt;" glyph-name="less" horiz-adv-x="800" d="M650 800Q671 800 685 786T700 750Q700 719 672 705L262 500L672 295Q700 281 700 250Q700 229 686 215T650 200Q638 200 626 206L128 455Q100 469 100 500T128 545L626 794Q638 800 650 800Z" />
<glyph unicode="=" glyph-name="equal" horiz-adv-x="700" d="M100 400H600Q621 400 635 386T650 350T636 315T600 300H100Q79 300 65 314T50 350T64 385T100 400ZM100 700H600Q621 700 635 686T650 650T636 615T600 600H100Q79 600 65 614T50 650T64 685T100 700Z" />
<glyph unicode="&gt;" glyph-name="greater" horiz-adv-x="800" d="M150 800Q162 800 174 794L672 545Q700 531 700 500T672 455L174 206Q162 200 150 200Q129 200 115 214T100 250Q100 281 128 295L538 500L128 705Q100 719 100 750Q100 771 114 785T150 800Z" />
<glyph unicode="?" glyph-name="question" horiz-adv-x="800" d="M450 71T450 50T436 15T400 0T365 14T350 50T364 85T400 100T435 86ZM400 1430Q524 1430 612 1342T700 1130Q700 1020 630 937L497 778Q450 721 450 650V350Q450 329 436 315T400 300T365 314T350
350V650Q350 760 420 843L553 1002Q600 1059 600 1130Q600 1212 541 1271T400 1330Q338 1330 277 1300T195 1228Q181 1200 150 1200Q129 1200 115 1214T100 1250Q100 1260 105 1272Q143 1348 225 1389T400 1430Z" />
<glyph unicode="@" glyph-name="at" horiz-adv-x="1600" d="M657 1430T800 1430T1072 1375T1295 1226T1444 1003T1500 730V350Q1500 205 1398 103T1150 0Q1109 0 1075 20T1020 76Q931 -20 800 -20Q676 -20 588 68T500 280V750Q500 854 573 927T750 1000H1050Q1071
1000 1085 986T1100 950V150Q1100 129 1114 115T1150 100Q1254 100 1327 173T1400 350V730Q1400 893 1320 1031T1101 1249T800 1330T499 1250T281 1031T200 730V300Q200 137 280 -1T499 -219T800 -300Q821 -300 835 -314T850 -350T836 -385T800 -400Q657 -400 528
-345T305 -196T156 27T100 300V730Q100 873 155 1002T304 1225T527 1374ZM750 900Q688 900 644 856T600 750V280Q600 198 659 139T800 80T941 139T1000 280V900H750Z" />
<glyph unicode="A" glyph-name="A" horiz-adv-x="900" d="M433 1400T450 1400T480 1390T499 1362L848 63Q850 55 850 50Q850 29 836 15T800 0Q783 0 770 10T752 37L654 400H246L148 37Q143 21 130 11T100 0Q79 0 65 14T50 50Q50 55 52 63L402 1363Q407 1379 420
1389ZM450 1158L273 500H627L450 1158Z" />
<glyph unicode="B" glyph-name="B" horiz-adv-x="870" d="M150 1400H400Q545 1400 647 1298T750 1050Q750 958 706 880T587 754Q684 703 742 609T800 400Q800 234 683 117T400 0H150Q129 0 115 14T100 50V1350Q100 1371 114 1385T150 1400ZM200 1300V800H400Q504
800 577 873T650 1050T577 1227T400 1300H200ZM200 700V100H400Q524 100 612 188T700 400T612 612T400 700H200Z" />
<glyph unicode="C" glyph-name="C" horiz-adv-x="760" d="M440 1400H640Q661 1400 675 1386T690 1350T676 1315T640 1300H440Q336 1300 263 1227T190 1050V350Q190 246 263 173T440 100H640Q661 100 675 86T690 50T676 15T640 0H440Q295 0 193 102T90 350V1050Q90
1195 192 1297T440 1400Z" />
<glyph unicode="D" glyph-name="D" horiz-adv-x="890" d="M150 1400H450Q595 1400 697 1298T800 1050V350Q800 205 698 103T450 0H150Q129 0 115 14T100 50V1350Q100 1371 114 1385T150 1400ZM200 1300V100H450Q554 100 627 173T700 350V1050Q700 1154 627 1227T450
1300H200Z" />
<glyph unicode="E" glyph-name="E" horiz-adv-x="780" d="M150 1400H650Q671 1400 685 1386T700 1350T686 1315T650 1300H200V800H450Q471 800 485 786T500 750T486 715T450 700H200V100H650Q671 100 685 86T700 50T686 15T650 0H150Q129 0 115 14T100 50V1350Q100
1371 114 1385T150 1400Z" />
<glyph unicode="F" glyph-name="F" horiz-adv-x="780" d="M150 1400H650Q671 1400 685 1386T700 1350T686 1315T650 1300H200V800H650Q671 800 685 786T700 750T686 715T650 700H200V50Q200 29 186 15T150 0T115 14T100 50V1350Q100 1371 114 1385T150 1400Z" />
<glyph unicode="G" glyph-name="G" horiz-adv-x="890" d="M440 1400H740Q761 1400 775 1386T790 1350T776 1315T740 1300H440Q336 1300 263 1227T190 1050V350Q190 246 263 173T440 100H690V700H540Q519 700 505 714T490 750T504 785T540 800H740Q761 800 775
786T790 750V50Q790 29 776 15T740 0H440Q295 0 193 102T90 350V1050Q90 1195 192 1297T440 1400Z" />
<glyph unicode="H" glyph-name="H" horiz-adv-x="900" d="M129 1400T150 1400T185 1386T200 1350V800H700V1350Q700 1371 714 1385T750 1400T785 1386T800 1350V50Q800 29 786 15T750 0T715 14T700 50V700H200V50Q200 29 186 15T150 0T115 14T100 50V1350Q100
1371 114 1385Z" />
<glyph unicode="I" glyph-name="I" horiz-adv-x="300" d="M129 1400T150 1400T185 1386T200 1350V50Q200 29 186 15T150 0T115 14T100 50V1350Q100 1371 114 1385Z" />
<glyph unicode="J" glyph-name="J" horiz-adv-x="640" d="M479 1400T500 1400T535 1386T550 1350V350Q550 205 448 103T200 0H100Q79 0 65 14T50 50T64 85T100 100H200Q304 100 377 173T450 350V1350Q450 1371 464 1385Z" />
<glyph unicode="K" glyph-name="K" horiz-adv-x="880" d="M129 1400T150 1400T185 1386T200 1350V700L710 1380Q725 1400 750 1400Q771 1400 785 1386T800 1350Q800 1333 790 1320L404 805L794 74Q800 64 800 50Q800 29 786 15T750 0Q719 0 706 26L338 717L200
533V50Q200 29 186 15T150 0T115 14T100 50V1350Q100 1371 114 1385Z" />
<glyph unicode="L" glyph-name="L" horiz-adv-x="650" d="M129 1400T150 1400T185 1386T200 1350V100H550Q571 100 585 86T600 50T586 15T550 0H150Q129 0 115 14T100 50V1350Q100 1371 114 1385Z" />
<glyph unicode="M" glyph-name="M" horiz-adv-x="1100" d="M150 1400Q179 1400 193 1375L550 751L907 1375Q921 1400 950 1400Q971 1400 985 1386T1000 1350V50Q1000 29 986 15T950 0T915 14T900 50V1162L593 625Q579 600 550 600T506 626L200 1162V50Q200 29
186 15T150 0T115 14T100 50V1350Q100 1371 114 1385T150 1400Z" />
<glyph unicode="N" glyph-name="N" horiz-adv-x="900" d="M150 1400Q182 1400 195 1371L700 278V1350Q700 1371 714 1385T750 1400T785 1386T800 1350V50Q800 29 786 15T750 0Q718 0 705 29L200 1122V50Q200 29 186 15T150 0T115 14T100 50V1350Q100 1371 114
1385T150 1400Z" />
<glyph unicode="O" glyph-name="O" horiz-adv-x="880" d="M295 1430T440 1430T687 1328T790 1080V320Q790 175 688 73T440 -30T193 72T90 320V1080Q90 1225 192 1327ZM544 1330T440 1330T263 1257T190 1080V320Q190 216 263 143T440 70T617 143T690 320V1080Q690
1184 617 1257Z" />
<glyph unicode="P" glyph-name="P" horiz-adv-x="870" d="M150 1400H400Q566 1400 683 1283T800 1000T683 717T400 600H200V50Q200 29 186 15T150 0T115 14T100 50V1350Q100 1371 114 1385T150 1400ZM200 1300V700H400Q524 700 612 788T700 1000T612 1212T400 1300H200Z" />
<glyph unicode="Q" glyph-name="Q" horiz-adv-x="890" d="M295 1430T440 1430T687 1328T790 1080V320Q790 244 758 174L870 90Q890 75 890 50Q890 29 876 15T840 0Q823 0 810 10L704 90Q655 34 586 2T440 -30Q295 -30 193 72T90 320V1080Q90 1225 192 1327ZM544
1330T440 1330T263 1257T190 1080V320Q190 216 263 143T440 70Q548 70 623 150L410 310Q390 325 390 350Q390 371 404 385T440 400Q457 400 470 390L676 236Q690 276 690 320V1080Q690 1184 617 1257Z" />
<glyph unicode="R" glyph-name="R" horiz-adv-x="880" d="M150 1400H400Q566 1400 683 1283T800 1000Q800 856 710 747T482 608L793 75Q800 63 800 50Q800 29 786 15T750 0Q722 0 707 25L371 600H200V50Q200 29 186 15T150 0T115 14T100 50V1350Q100 1371 114
1385T150 1400ZM200 1300V700H400Q524 700 612 788T700 1000T612 1212T400 1300H200Z" />
<glyph unicode="S" glyph-name="S" horiz-adv-x="850" d="M415 1430Q641 1430 735 1335Q750 1320 750 1300Q750 1279 736 1265T700 1250Q680 1250 665 1265Q637 1293 572 1311T415 1330Q292 1330 229 1280Q180 1241 180 1170Q180 1115 216 1069L713 460Q780 377
780 270Q780 138 693 57Q600 -30 430 -30Q311 -30 230 -10T95 65Q80 80 80 100Q80 121 94 135T130 150Q150 150 165 135Q230 70 430 70Q560 70 625 130Q680 181 680 270Q680 341 635 396L138 1006Q80 1078 80 1170Q80 1286 166 1357Q254 1430 415 1430Z" />
<glyph unicode="T" glyph-name="T" horiz-adv-x="840" d="M120 1400H720Q741 1400 755 1386T770 1350T756 1315T720 1300H470V50Q470 29 456 15T420 0T385 14T370 50V1300H120Q99 1300 85 1314T70 1350T84 1385T120 1400Z" />
<glyph unicode="U" glyph-name="U" horiz-adv-x="900" d="M129 1400T150 1400T185 1386T200 1350V320Q200 216 273 143T450 70T627 143T700 320V1350Q700 1371 714 1385T750 1400T785 1386T800 1350V320Q800 175 698 73T450 -30T203 72T100 320V1350Q100 1371 114 1385Z" />
<glyph unicode="V" glyph-name="V" horiz-adv-x="900" d="M100 1400Q117 1400 130 1390T148 1363L450 242L751 1362Q756 1379 769 1389T800 1400Q821 1400 835 1386T850 1350Q850 1345 848 1337L499 38Q494 21 481 11T450 0T420 10T401 38L52 1337Q50 1345 50
1350Q50 1371 64 1385T100 1400Z" />
<glyph unicode="W" glyph-name="W" horiz-adv-x="1320" d="M110 1400Q128 1400 142 1388T159 1359L373 247L613 966Q625 1000 660 1000Q676 1000 689 990T708 965L947 247L1161 1359Q1164 1376 1178 1388T1210 1400Q1231 1400 1245 1386T1260 1350Q1260 1344 1259
1341L1009 41Q1006 24 992 12T960 0Q944 0 931 10T912 35L660 792L408 35Q403 20 390 10T360 0Q342 0 328 12T311 41L61 1341Q60 1344 60 1350Q60 1371 74 1385T110 1400Z" />
<glyph unicode="X" glyph-name="X" horiz-adv-x="960" d="M130 1400Q161 1400 174 1374L480 806L786 1374Q799 1400 830 1400Q851 1400 865 1386T880 1350Q880 1336 874 1326L537 700L874 74Q880 64 880 50Q880 29 866 15T830 0Q799 0 786 26L480 594L174 26Q161
0 130 0Q109 0 95 14T80 50Q80 64 86 74L423 700L86 1326Q80 1336 80 1350Q80 1371 94 1385T130 1400Z" />
<glyph unicode="Y" glyph-name="Y" horiz-adv-x="900" d="M100 1400Q131 1400 144 1374L450 806L756 1374Q769 1400 800 1400Q821 1400 835 1386T850 1350Q850 1336 844 1326L500 687V50Q500 29 486 15T450 0T415 14T400 50V687L56 1326Q50 1336 50 1350Q50 1371
64 1385T100 1400Z" />
<glyph unicode="Z" glyph-name="Z" horiz-adv-x="840" d="M120 1400H720Q741 1400 755 1386T770 1350Q770 1339 765 1329L198 100H720Q741 100 755 86T770 50T756 15T720 0H120Q99 0 85 14T70 50Q70 61 75 71L642 1300H120Q99 1300 85 1314T70 1350T84 1385T120 1400Z" />
<glyph unicode="[" glyph-name="bracketleft" horiz-adv-x="400" d="M150 1500H250Q271 1500 285 1486T300 1450T286 1415T250 1400H200V0H250Q271 0 285 -14T300 -50T286 -85T250 -100H150Q129 -100 115 -86T100 -50V1450Q100 1471 114 1485T150 1500Z" />
<glyph unicode="\" glyph-name="backslash" horiz-adv-x="1100" d="M150 1700Q182 1700 196 1670L996 -130Q1000 -138 1000 -150Q1000 -171 986 -185T950 -200Q918 -200 904 -170L104 1630Q100 1638 100 1650Q100 1671 114 1685T150 1700Z" />
<glyph unicode="]" glyph-name="bracketright" horiz-adv-x="400" d="M250 1500Q271 1500 285 1486T300 1450V-50Q300 -71 286 -85T250 -100H150Q129 -100 115 -86T100 -50T114 -15T150 0H200V1400H150Q129 1400 115 1414T100 1450T114 1485T150 1500H250Z" />
<glyph unicode="^" glyph-name="asciicircum" horiz-adv-x="600" d="M279 1600T300 1600T335 1585L535 1385Q550 1371 550 1350Q550 1329 536 1315T500 1300Q479 1300 465 1315L300 1479L135 1315Q121 1300 100 1300Q79 1300 65 1314T50 1350Q50 1371 65 1385L265
1585Q279 1600 300 1600Z" />
<glyph unicode="_" glyph-name="underscore" horiz-adv-x="800" d="M50 -100H750Q771 -100 785 -114T800 -150T786 -185T750 -200H50Q29 -200 15 -186T0 -150T14 -115T50 -100Z" />
<glyph unicode="`" glyph-name="grave" horiz-adv-x="300" d="M150 1400Q181 1400 195 1372L245 1272Q250 1260 250 1250Q250 1229 236 1215T200 1200Q169 1200 155 1228L105 1328Q100 1340 100 1350Q100 1371 114 1385T150 1400Z" />
<glyph unicode="a" glyph-name="a" horiz-adv-x="820" d="M340 1000H640Q661 1000 675 986T690 950V150Q690 129 704 115T740 100T775 86T790 50T776 15T740 0Q699 0 665 20T610 76Q521 -20 390 -20Q266 -20 178 68T90 280V750Q90 854 163 927T340 1000ZM340 900Q278
900 234 856T190 750V280Q190 198 249 139T390 80T531 139T590 280V900H340Z" />
<glyph unicode="b" glyph-name="b" horiz-adv-x="790" d="M129 1400T150 1400T185 1386T200 1350V1000H450Q554 1000 627 927T700 750V250Q700 146 627 73T450 0H150Q129 0 115 14T100 50V1350Q100 1371 114 1385ZM200 900V100H450Q512 100 556 144T600 250V750Q600
812 556 856T450 900H200Z" />
<glyph unicode="c" glyph-name="c" horiz-adv-x="670" d="M340 1000H540Q561 1000 575 986T590 950T576 915T540 900H340Q278 900 234 856T190 750V250Q190 188 234 144T340 100H540Q561 100 575 86T590 50T576 15T540 0H340Q236 0 163 73T90 250V750Q90 854 163
927T340 1000Z" />
<glyph unicode="d" glyph-name="d" horiz-adv-x="790" d="M619 1400T640 1400T675 1386T690 1350V50Q690 29 676 15T640 0H340Q236 0 163 73T90 250V750Q90 854 163 927T340 1000H590V1350Q590 1371 604 1385ZM590 900H340Q278 900 234 856T190 750V250Q190 188
234 144T340 100H590V900Z" />
<glyph unicode="e" glyph-name="e" horiz-adv-x="780" d="M266 1020T390 1020T602 932T690 720V500Q690 479 676 465T640 450H190V250Q190 188 234 144T340 100H640Q661 100 675 86T690 50T676 15T640 0H340Q236 0 163 73T90 250V720Q90 844 178 932ZM472 920T390
920T249 861T190 720V550H590V720Q590 802 531 861Z" />
<glyph unicode="f" glyph-name="f" horiz-adv-x="500" d="M350 1400H400Q421 1400 435 1386T450 1350T436 1315T400 1300H350Q309 1300 280 1271T250 1200V1000H400Q421 1000 435 986T450 950T436 915T400 900H250V50Q250 29 236 15T200 0T165 14T150 50V900H100Q79
900 65 914T50 950T64 985T100 1000H150V1200Q150 1282 209 1341T350 1400Z" />
<glyph unicode="g" glyph-name="g" horiz-adv-x="790" d="M340 1000H640Q661 1000 675 986T690 950V-150Q690 -254 617 -327T440 -400H140Q119 -400 105 -386T90 -350T104 -315T140 -300H440Q502 -300 546 -256T590 -150V0H340Q236 0 163 73T90 250V750Q90 854
163 927T340 1000ZM340 900Q278 900 234 856T190 750V250Q190 188 234 144T340 100H590V900H340Z" />
<glyph unicode="h" glyph-name="h" horiz-adv-x="800" d="M129 1400T150 1400T185 1386T200 1350V1000H450Q554 1000 627 927T700 750V50Q700 29 686 15T650 0T615 14T600 50V750Q600 812 556 856T450 900H200V50Q200 29 186 15T150 0T115 14T100 50V1350Q100
1371 114 1385Z" />
<glyph unicode="i" glyph-name="i" horiz-adv-x="300" d="M129 1000T150 1000T185 986T200 950V50Q200 29 186 15T150 0T115 14T100 50V950Q100 971 114 985ZM200 1371T200 1350T186 1315T150 1300T115 1314T100 1350T114 1385T150 1400T185 1386Z" />
<glyph unicode="j" glyph-name="j" horiz-adv-x="300" d="M129 1000T150 1000T185 986T200 950V-150Q200 -254 127 -327T-50 -400Q-71 -400 -85 -386T-100 -350T-86 -315T-50 -300Q12 -300 56 -256T100 -150V950Q100 971 114 985ZM200 1371T200 1350T186 1315T150
1300T115 1314T100 1350T114 1385T150 1400T185 1386Z" />
<glyph unicode="k" glyph-name="k" horiz-adv-x="770" d="M129 1400T150 1400T185 1386T200 1350V571L615 985Q630 1000 650 1000Q671 1000 685 986T700 950Q700 930 685 915L364 593L692 77Q700 64 700 50Q700 29 686 15T650 0Q622 0 607 24L291 521L200 429V50Q200
29 186 15T150 0T115 14T100 50V1350Q100 1371 114 1385Z" />
<glyph unicode="l" glyph-name="l" horiz-adv-x="440" d="M119 1400T140 1400T175 1386T190 1350V250Q190 188 234 144T340 100Q361 100 375 86T390 50T376 15T340 0Q236 0 163 73T90 250V1350Q90 1371 104 1385Z" />
<glyph unicode="m" glyph-name="m" horiz-adv-x="1100" d="M150 1000H750Q854 1000 927 927T1000 750V50Q1000 29 986 15T950 0T915 14T900 50V750Q900 812 856 856T750 900H600V50Q600 29 586 15T550 0T515 14T500 50V900H200V50Q200 29 186 15T150 0T115 14T100
50V950Q100 971 114 985T150 1000Z" />
<glyph unicode="n" glyph-name="n" horiz-adv-x="800" d="M150 1000H450Q554 1000 627 927T700 750V50Q700 29 686 15T650 0T615 14T600 50V750Q600 812 556 856T450 900H200V50Q200 29 186 15T150 0T115 14T100 50V950Q100 971 114 985T150 1000Z" />
<glyph unicode="o" glyph-name="o" horiz-adv-x="780" d="M266 1020T390 1020T602 932T690 720V280Q690 156 602 68T390 -20T178 68T90 280V720Q90 844 178 932ZM472 920T390 920T249 861T190 720V280Q190 198 249 139T390 80T531 139T590 280V720Q590 802 531 861Z" />
<glyph unicode="p" glyph-name="p" horiz-adv-x="790" d="M171 -400T150 -400T115 -386T100 -350V950Q100 971 114 985T150 1000H450Q554 1000 627 927T700 750V250Q700 146 627 73T450 0H200V-350Q200 -371 186 -385ZM200 100H450Q512 100 556 144T600 250V750Q600
812 556 856T450 900H200V100Z" />
<glyph unicode="q" glyph-name="q" horiz-adv-x="790" d="M661 -400T640 -400T605 -386T590 -350V0H340Q236 0 163 73T90 250V750Q90 854 163 927T340 1000H640Q661 1000 675 986T690 950V-350Q690 -371 676 -385ZM590 100V900H340Q278 900 234 856T190 750V250Q190
188 234 144T340 100H590Z" />
<glyph unicode="r" glyph-name="r" horiz-adv-x="650" d="M150 1000H400Q482 1000 541 941T600 800Q600 779 586 765T550 750T515 764T500 800Q500 841 471 870T400 900H200V50Q200 29 186 15T150 0T115 14T100 50V950Q100 971 114 985T150 1000Z" />
<glyph unicode="s" glyph-name="s" horiz-adv-x="750" d="M370 1020Q561 1020 645 935Q660 920 660 900Q660 879 646 865T610 850Q590 850 575 865Q546 894 500 907T370 920Q267 920 217 881Q180 852 180 800Q180 741 226 705L584 427Q680 352 680 230Q680 119
606 52Q526 -20 380 -20Q179 -20 95 65Q80 80 80 100Q80 121 94 135T130 150Q150 150 165 135Q220 80 380 80Q489 80 539 126Q580 164 580 230Q580 303 522 348L165 626Q80 691 80 800Q80 901 155 960Q232 1020 370 1020Z" />
<glyph unicode="t" glyph-name="t" horiz-adv-x="500" d="M179 1400T200 1400T235 1386T250 1350V1000H400Q421 1000 435 986T450 950T436 915T400 900H250V50Q250 29 236 15T200 0T165 14T150 50V900H100Q79 900 65 914T50 950T64 985T100 1000H150V1350Q150
1371 164 1385Z" />
<glyph unicode="u" glyph-name="u" horiz-adv-x="800" d="M650 0H350Q246 0 173 73T100 250V950Q100 971 114 985T150 1000T185 986T200 950V250Q200 188 244 144T350 100H600V950Q600 971 614 985T650 1000T685 986T700 950V50Q700 29 686 15T650 0Z" />
<glyph unicode="v" glyph-name="v" horiz-adv-x="740" d="M120 1000Q137 1000 150 990T168 963L370 237L572 963Q577 979 590 989T620 1000Q641 1000 655 986T670 950Q670 945 668 937L418 37Q413 21 400 11T370 0T340 10T322 37L72 937Q70 945 70 950Q70 971
84 985T120 1000Z" />
<glyph unicode="w" glyph-name="w" horiz-adv-x="1160" d="M130 1000Q148 1000 161 989T179 961L341 230L533 767Q545 800 580 800T627 767L819 230L981 961Q985 978 998 989T1030 1000Q1051 1000 1065 986T1080 950Q1080 942 1079 939L879 40Q875 23 862 12T830
0Q795 0 783 33L580 601L377 33Q365 0 330 0Q312 0 299 11T281 40L81 939Q80 942 80 950Q80 971 94 985T130 1000Z" />
<glyph unicode="x" glyph-name="x" horiz-adv-x="760" d="M130 1000Q158 1000 174 974L380 603L586 974Q602 1000 630 1000Q651 1000 665 986T680 950Q680 936 674 926L437 500L674 74Q680 64 680 50Q680 29 666 15T630 0Q602 0 586 26L380 397L174 26Q158 0 130
0Q109 0 95 14T80 50Q80 64 86 74L323 500L86 926Q80 936 80 950Q80 971 94 985T130 1000Z" />
<glyph unicode="y" glyph-name="y" horiz-adv-x="750" d="M130 1000Q147 1000 160 989T178 962L380 237L582 963Q587 979 600 989T630 1000Q651 1000 665 986T680 950Q680 945 678 937L362 -200Q330 -313 276 -356T130 -400Q109 -400 95 -386T80 -350T94 -315T130
-300Q169 -300 207 -273T259 -200L328 50L82 937Q80 945 80 950Q80 971 94 985T130 1000Z" />
<glyph unicode="z" glyph-name="z" horiz-adv-x="760" d="M130 1000H630Q651 1000 665 986T680 950Q680 936 674 926L215 100H630Q651 100 665 86T680 50T666 15T630 0H130Q109 0 95 14T80 50Q80 64 86 74L545 900H130Q109 900 95 914T80 950T94 985T130 1000Z" />
<glyph unicode="{" glyph-name="braceleft" horiz-adv-x="500" d="M350 1500Q371 1500 385 1486T400 1450T386 1415T350 1400T315 1386T300 1350V800Q300 743 262 700Q300 657 300 600V50Q300 29 314 15T350 0T385 -14T400 -50T386 -85T350 -100Q288 -100 244
-56T200 50V600Q200 621 186 635T150 650T115 664T100 700T114 735T150 750T185 764T200 800V1350Q200 1412 244 1456T350 1500Z" />
<glyph unicode="|" glyph-name="bar" horiz-adv-x="300" d="M129 1500T150 1500T185 1486T200 1450V-50Q200 -71 186 -85T150 -100T115 -86T100 -50V1450Q100 1471 114 1485Z" />
<glyph unicode="}" glyph-name="braceright" horiz-adv-x="500" d="M150 1500Q212 1500 256 1456T300 1350V800Q300 779 314 765T350 750T385 736T400 700T386 665T350 650T315 636T300 600V50Q300 -12 256 -56T150 -100Q129 -100 115 -86T100 -50T114 -15T150
0T185 14T200 50V600Q200 657 238 700Q200 743 200 800V1350Q200 1371 186 1385T150 1400T115 1414T100 1450T114 1485T150 1500Z" />
<glyph unicode="~" glyph-name="asciitilde" horiz-adv-x="900" d="M300 600Q394 600 479 541Q537 500 600 500T721 541Q733 550 750 550Q771 550 785 536T800 500Q800 474 776 457Q694 400 600 400T421 459Q363 500 300 500T180 460Q165 450 150 450Q129 450
115 464T100 500Q100 527 123 542Q208 600 300 600Z" />
</font>
</defs>
</svg>
