<?xml version="1.0" encoding="UTF-8" standalone="no"?>
<!-- Created with Inkscape (http://www.inkscape.org/) -->
<svg
   xmlns:dc="http://purl.org/dc/elements/1.1/"
   xmlns:cc="http://creativecommons.org/ns#"
   xmlns:rdf="http://www.w3.org/1999/02/22-rdf-syntax-ns#"
   xmlns:svg="http://www.w3.org/2000/svg"
   xmlns="http://www.w3.org/2000/svg"
   xmlns:sodipodi="http://sodipodi.sourceforge.net/DTD/sodipodi-0.dtd"
   xmlns:inkscape="http://www.inkscape.org/namespaces/inkscape"
   width="744.09448819"
   height="1052.3622047"
   id="svg2"
   sodipodi:version="0.32"
   inkscape:version="0.46"
   sodipodi:docname="t1.svg"
   inkscape:output_extension="org.inkscape.output.svg.inkscape">
  <defs
     id="defs4">
    <pattern
       inkscape:stockid="Stripes 1:1"
       id="Strips1_1"
       patternTransform="translate(0,0) scale(10,10)"
       height="1"
       width="2"
       patternUnits="userSpaceOnUse"
       inkscape:collect="always">
      <rect
         id="rect3891"
         height="2"
         width="1"
         y="-0.5"
         x="0"
         style="fill:black;stroke:none" />
    </pattern>
    <inkscape:perspective
       sodipodi:type="inkscape:persp3d"
       inkscape:vp_x="0 : 526.18109 : 1"
       inkscape:vp_y="0 : 1000 : 0"
       inkscape:vp_z="744.09448 : 526.18109 : 1"
       inkscape:persp3d-origin="372.04724 : 350.78739 : 1"
       id="perspective10" />
  </defs>
  <sodipodi:namedview
     id="base"
     pagecolor="#ffffff"
     bordercolor="#666666"
     borderopacity="1.0"
     gridtolerance="10000"
     guidetolerance="10"
     objecttolerance="10"
     inkscape:pageopacity="0.0"
     inkscape:pageshadow="2"
     inkscape:zoom="5.0321285"
     inkscape:cx="211.42857"
     inkscape:cy="637.94892"
     inkscape:document-units="px"
     inkscape:current-layer="layer1"
     showgrid="false"
     inkscape:window-width="1280"
     inkscape:window-height="738"
     inkscape:window-x="0"
     inkscape:window-y="0" />
  <metadata
     id="metadata7">
    <rdf:RDF>
      <cc:Work
         rdf:about="">
        <dc:format>image/svg+xml</dc:format>
        <dc:type
           rdf:resource="http://purl.org/dc/dcmitype/StillImage" />
      </cc:Work>
    </rdf:RDF>
  </metadata>
  <g
     inkscape:label="Layer 1"
     inkscape:groupmode="layer"
     id="layer1">
    <path
       sodipodi:type="arc"
       style="fill:#ffffff;fill-rule:evenodd;stroke:#000000;stroke-width:1px;stroke-linecap:butt;stroke-linejoin:miter;stroke-opacity:1;fill-opacity:1"
       id="path2383"
       sodipodi:cx="211.42857"
       sodipodi:cy="422.36218"
       sodipodi:rx="48.57143"
       sodipodi:ry="52.857143"
       d="M 260,422.36218 A 48.57143,52.857143 0 1 1 162.85714,422.36218 A 48.57143,52.857143 0 1 1 260,422.36218 z" />
    <path
       sodipodi:type="arc"
       style="fill:#ffffff;fill-opacity:1"
       id="path3155"
       sodipodi:cx="159.47527"
       sodipodi:cy="391.40927"
       sodipodi:rx="7.8495612"
       sodipodi:ry="2.7821229"
       d="M 167.32483,391.40927 A 7.8495612,2.7821229 0 1 1 151.6257,391.40927 A 7.8495612,2.7821229 0 1 1 167.32483,391.40927 z" />
    <path
       sodipodi:type="arc"
       style="fill:#ffffff;fill-opacity:1"
       id="path3157"
       sodipodi:cx="157.58739"
       sodipodi:cy="391.40927"
       sodipodi:rx="6.1604152"
       sodipodi:ry="5.1667995"
       d="M 163.7478,391.40927 A 6.1604152,5.1667995 0 1 1 151.42697,391.40927 A 6.1604152,5.1667995 0 1 1 163.7478,391.40927 z" />
    <rect
       style="fill:url(#Strips1_1);fill-opacity:1.0"
       id="rect3161"
       width="14.705507"
       height="14.109338"
       x="155.79889"
       y="381.67184" />
    <path
       style="fill:none;fill-rule:evenodd;stroke:#000000;stroke-width:1px;stroke-linecap:butt;stroke-linejoin:miter;stroke-opacity:1"
       d="M 170.50439,451.22491 C 175.47747,450.03118 182.90169,449.46696 188.58819,448.04534 C 189.87553,447.7235 191.284,447.12298 192.36393,446.853 C 196.34879,445.85678 210.08162,442.87854 213.6273,442.87854 C 223.36382,442.87854 236.72079,438.96338 246.61533,437.31429 C 247.34585,437.19254 248.07263,437.04933 248.80128,436.91685 C 250.03095,436.69327 249.90474,439.21265 250.78851,440.09641 C 251.4914,440.79931 253.23095,441.31186 254.1668,441.6862 C 254.47509,441.80952 254.62211,441.80003 254.96169,441.88492"
       id="path4607" />
    <path
       style="fill:none;fill-rule:evenodd;stroke:#000000;stroke-width:1px;stroke-linecap:butt;stroke-linejoin:miter;stroke-opacity:1"
       d="M 164.34398,429.16665 C 164.4949,429.22701 183.92124,418.09595 186.00479,416.84582 C 193.07236,412.60527 201.7117,407.30711 210.249,407.30711 C 217.01788,407.30711 223.88719,405.58111 230.12131,408.69817 C 233.86056,410.56779 237.00838,411.08285 241.05108,411.08285 C 242.77737,411.08285 244.29183,411.06757 245.82043,411.67902 C 247.78111,412.46329 249.49137,413.28758 251.38468,413.66625 C 252.49656,413.88862 253.92193,414.77429 254.56425,415.25603 C 255.44098,415.91358 256.33747,416.63945 257.14765,417.04454 C 257.48673,417.21408 257.57333,417.15096 257.94254,417.24326"
       id="path4609" />
    <path
       style="fill:none;fill-rule:evenodd;stroke:#000000;stroke-width:1px;stroke-linecap:butt;stroke-linejoin:miter;stroke-opacity:1"
       d="M 169.31205,398.96074 C 169.53894,399.07418 183.48462,394.48646 184.81245,394.19139 C 198.05354,391.24892 212.54658,389.59172 225.15323,393.79394 C 228.5854,394.93799 231.79294,396.54684 235.08939,397.37095 C 237.31185,397.92657 239.79741,397.45764 241.84597,396.77479 C 244.50069,395.88988 245.91709,395.65458 248.40383,394.58883 C 249.05685,394.30897 250.49193,394.58883 251.18596,394.58883"
       id="path4611" />
    <path
       style="fill:none;fill-rule:evenodd;stroke:#000000;stroke-width:1px;stroke-linecap:butt;stroke-linejoin:miter;stroke-opacity:1"
       d="M 187.59457,394.98628 C 187.91352,394.84959 193.06408,408.41395 193.55627,409.89051 C 195.81458,416.66545 189.44015,421.3869 187.99202,427.17941 C 187.58076,428.82445 186.99841,430.11381 186.99841,431.94877 C 186.99841,432.79316 189.82809,436.51094 190.17797,437.91046 C 190.47192,439.08625 191.17159,439.98537 191.17159,441.28875 C 191.17159,442.67981 191.17159,444.07088 191.17159,445.46194 C 191.17159,445.7269 191.17159,445.99187 191.17159,446.25683"
       id="path4613" />
    <path
       style="fill:none;fill-rule:evenodd;stroke:#000000;stroke-width:1px;stroke-linecap:butt;stroke-linejoin:miter;stroke-opacity:1"
       d="M 228.92897,438.90408 C 228.92897,439.4004 232.52915,438.56454 229.32642,430.55771 C 227.32102,425.5442 221.20986,418.73977 223.166,412.87135 C 224.21149,409.7349 227.43784,408.25281 228.53153,405.5186 C 228.98383,404.38784 228.75918,402.65348 228.53153,401.74286 C 228.14563,400.19926 228.51103,398.48129 228.13408,396.97351 C 227.0751,392.73758 222.17239,393.02522 222.17239,388.22969 C 222.17239,386.61646 223.27147,385.59356 224.75579,384.8514 C 225.29262,384.58298 225.85609,384.49997 226.34557,384.25523"
       id="path4615" />
    <path
       style="fill:none;fill-rule:evenodd;stroke:#000000;stroke-width:1px;stroke-linecap:butt;stroke-linejoin:miter;stroke-opacity:1"
       d="M 188.78691,377.49865 C 189.85502,376.9646 187.59457,379.68276 187.59457,380.87694 C 187.59457,384.24411 190.57542,387.12835 190.57542,390.81309 C 190.57542,392.22832 190.39831,393.64055 190.17797,394.19139 C 190.12274,394.32946 188.41596,394.97303 188.38947,394.98628"
       id="path4617" />
    <path
       style="fill:none;fill-rule:evenodd;stroke:#000000;stroke-width:1px;stroke-linecap:butt;stroke-linejoin:miter;stroke-opacity:1"
       d="M 191.96648,448.44278 C 191.77025,448.93335 196.57987,456.40674 196.93456,458.18021 C 197.46912,460.85301 194.84462,463.05228 193.15882,464.73807 C 191.50567,466.39123 193.10431,466.39996 194.54988,467.12275 C 195.42209,467.55886 196.24916,468.02714 196.73584,468.51381"
       id="path4619" />
    <path
       style="fill:none;fill-rule:evenodd;stroke:#000000;stroke-width:1px;stroke-linecap:butt;stroke-linejoin:miter;stroke-opacity:1"
       d="M 229.1277,442.87854 C 232.28842,444.4589 226.70742,450.58278 225.35196,452.61597 C 222.34748,457.12269 214.31649,464.6087 217.9992,470.50104 C 218.98781,472.0828 221.37636,478.64983 223.166,476.86018 C 224.39816,475.62803 223.41663,473.08741 222.37111,471.69338 C 222.19337,471.45639 222.10615,472.22331 221.97367,472.48827"
       id="path4621" />
    <rect
       style="fill:url(#Strips1_1);fill-opacity:1.0"
       id="rect4623"
       width="18.083799"
       height="15.897845"
       x="168.91461"
       y="459.37256" />
    <rect
       style="fill:#ffffff;fill-opacity:1"
       id="rect4639"
       width="12.519553"
       height="0"
       x="169.90822"
       y="470.10361" />
    <rect
       style="fill:url(#Strips1_1);fill-opacity:1.0"
       id="rect4641"
       width="15.102953"
       height="13.513168"
       x="241.2498"
       y="373.32547" />
  </g>
</svg>
