<?xml version="1.0" encoding="UTF-8" standalone="no"?>
<!-- Generator: Adobe Illustrator 13.0.0, SVG Export Plug-In . SVG Version: 6.00 Build 14948)  -->
<svg
   xmlns:dc="http://purl.org/dc/elements/1.1/"
   xmlns:cc="http://creativecommons.org/ns#"
   xmlns:rdf="http://www.w3.org/1999/02/22-rdf-syntax-ns#"
   xmlns:svg="http://www.w3.org/2000/svg"
   xmlns="http://www.w3.org/2000/svg"
   xmlns:sodipodi="http://sodipodi.sourceforge.net/DTD/sodipodi-0.dtd"
   xmlns:inkscape="http://www.inkscape.org/namespaces/inkscape"
   version="1.0"
   id="Слой_1"
   x="0px"
   y="0px"
   width="319.10706"
   height="295.2825"
   viewBox="0 0 370.012 332"
   enable-background="new 0 0 370.012 332"
   xml:space="preserve"
   sodipodi:version="0.32"
   inkscape:version="0.46"
   sodipodi:docname="Trtl1.svg"
   inkscape:output_extension="org.inkscape.output.svg.inkscape"><metadata
   id="metadata2626"><rdf:RDF><cc:Work
       rdf:about=""><dc:format>image/svg+xml</dc:format><dc:type
         rdf:resource="http://purl.org/dc/dcmitype/StillImage" /></cc:Work></rdf:RDF></metadata><defs
   id="defs2624"><inkscape:perspective
     sodipodi:type="inkscape:persp3d"
     inkscape:vp_x="0 : 166 : 1"
     inkscape:vp_y="0 : 1000 : 0"
     inkscape:vp_z="370.01199 : 166 : 1"
     inkscape:persp3d-origin="185.006 : 110.66667 : 1"
     id="perspective2628" /></defs><sodipodi:namedview
   inkscape:window-height="731"
   inkscape:window-width="736"
   inkscape:pageshadow="2"
   inkscape:pageopacity="0.0"
   guidetolerance="10.0"
   gridtolerance="10.0"
   objecttolerance="10.0"
   borderopacity="1.0"
   bordercolor="#666666"
   pagecolor="#ffffff"
   id="base"
   showgrid="false"
   inkscape:zoom="1.7215658"
   inkscape:cx="55.620364"
   inkscape:cy="333.43873"
   inkscape:window-x="0"
   inkscape:window-y="0"
   inkscape:current-layer="Слой_1"
   showguides="true"
   inkscape:guide-bbox="true"
   inkscape:snap-center="true"
   inkscape:snap-guide="false" />
<g
   id="XMLID_1_"
   transform="translate(0.238,-5.1934376)">
	<g
   id="g2405">
		<path
   d="M 338.402,113.35 C 338.442,113.2 338.482,113.06 338.504,112.94 C 339.334,113.49 342.544,115.55 343.934,116.36 C 346.104,117.6 350.364,122.57 351.104,123.44 C 349.644,122.57 344.125,119.4 341.804,119.4 C 340.413,119.4 336.134,119.07 336.134,119.07 L 335.913,118.94 C 336.902,117.24 337.743,115.35 338.392,113.39 C 338.392,113.38 338.402,113.36 338.402,113.35 z"
   id="path2407" />
		<path
   d="M 346.302,297.5 C 346.302,297.5 338.672,298.59 336.212,299.3 C 334.512,299.79 330.182,301.67 328.762,302.3 C 329.312,300.77 329.812,299.12 330.102,297.442 C 331.172,297.242 334.902,296.532 336.302,296.502 C 338.822,296.43 346.302,297.5 346.302,297.5 z"
   id="path2409" />
		<path
   d="M 338.502,112.94 C 338.481,113.06 338.44,113.2 338.4,113.35 C 338.4,113.36 338.39,113.38 338.39,113.39 C 337.741,115.35 336.9,117.24 335.911,118.94 C 334.542,121.31 332.911,123.28 331.14,124.47 L 331.14,124.48 C 331.039,124.56 330.93,124.62 330.829,124.69 C 330.608,124.83 330.34,124.92 330.1,125.03 C 329.14,125.47 328.161,125.82 327.17,126.1 C 325.489,126.59 323.77,126.87 321.989,127.02 C 321.058,127.1 320.13,127.16 319.199,127.21 C 317.678,127.3 316.159,127.35 314.638,127.35 C 313.239,127.37 311.848,127.34 310.458,127.29 C 306.178,127.12 301.878,126.67 297.618,126.2 C 293.556,125.76 289.597,124.82 285.588,124.11 C 283.928,123.82 282.288,123.53 280.688,122.98 C 279.678,122.63 278.688,122.2 277.709,121.75 C 276.619,121.24 275.219,120.78 274.259,120.05 C 272.839,118.95 271.379,117.69 270.799,116 C 269.829,113.23 268.469,110.12 267.129,107.07 C 265.959,104.38 265.317,101.91 262.099,96.99 C 261.129,95.5 260.12,94.05 259.201,92.5 C 256.421,88.34 249.599,82.9 250.501,79.88 C 252.069,74.58 287.101,72.26 295.131,73.92 C 307.791,76.54 332.651,102.98 338.351,110.96 C 338.632,111.35 338.772,111.8 338.502,112.94 z"
   id="path2411" />
		<path
   d="M 334.372,129.46 C 335.401,131.66 337.332,138.57 337.452,139 C 337.213,138.62 333.351,132.41 331.763,130.5 C 330.483,128.96 327.533,126.41 327.173,126.1 C 328.162,125.82 329.143,125.47 330.103,125.03 C 330.343,124.92 330.613,124.83 330.832,124.69 C 330.933,124.62 331.042,124.56 331.143,124.48 L 331.213,124.57 C 331.212,124.57 333.672,127.97 334.372,129.46 z"
   id="path2413" />
		<path
   d="M 332.442,309.48 C 334.083,310.019 338.472,312.83 338.472,312.83 C 338.472,312.83 332.442,311.88 330.422,311.939 C 328.871,311.99 324.302,313 324.302,313 L 324.292,313 C 325.012,311.43 325.621,309.96 326.121,308.67 C 326.762,308.72 331.031,309.02 332.442,309.48 z"
   id="path2415" />
		<path
   d="M 337.302,276.5 C 337.302,276.5 331.812,282.561 330.741,285.03 C 330.18,286.3 329.802,290.5 329.802,290.5 L 329.772,290.51 C 329.493,289.731 329.123,288.981 328.623,288.26 C 327.862,287.17 325.703,286.83 322.934,286.811 C 324.094,285.821 326.974,283.362 328.144,282.481 C 330.342,280.85 337.302,276.5 337.302,276.5 z"
   id="path2417" />
		<path
   d="M 257.322,276.66 C 260.012,272.65 268.692,259.16 270.902,256.25 C 274.862,251.07 282.602,263.891 288.544,270.1 C 292.442,274.17 297.862,280.33 303.134,286.202 C 305.424,288.742 316.054,286.77 322.934,286.811 C 325.705,286.832 327.864,287.17 328.623,288.26 C 329.123,288.981 329.493,289.731 329.772,290.51 C 330.543,292.7 330.532,295.1 330.102,297.442 C 329.812,299.122 329.312,300.77 328.762,302.3 C 327.842,304.84 326.762,307.061 326.172,308.55 C 326.151,308.59 326.142,308.63 326.121,308.67 C 325.621,309.96 325.012,311.43 324.291,313 C 322.77,316.32 320.78,320.08 318.32,323.42 C 314.491,328.27 292.912,322.46 288.702,321.7 C 281.431,320.38 258.242,310.38 256.302,308.609 C 249.962,302.83 245.892,291.58 249.842,286.4 C 252.752,282.58 254.732,279.71 257.322,276.66 z"
   id="path2419" />
		<path
   d="M 320.922,133.12 C 321.092,134.84 320.272,140 320.272,140 C 320.272,140 318.732,134.09 317.862,132.26 C 317.312,131.09 315.282,128.24 314.642,127.35 C 316.163,127.35 317.682,127.3 319.203,127.21 C 319.562,128.22 320.792,131.75 320.922,133.12 z"
   id="path2421" />
		<path
   d="M 159.142,276.97 L 159.142,276.93 C 161.642,277.21 164.812,277.43 167.792,277.62 C 171.812,277.88 175.552,277.99 177.36,278 C 177.372,278 177.372,278 177.381,278 C 179.191,277.99 182.931,277.88 186.951,277.62 C 189.68,277.45 192.569,277.25 194.961,277 L 194.961,277.04 C 204.761,275.95 213.541,274.03 219.751,271.32 C 225.859,268.65 232.649,262.38 238.971,254.57 C 240.621,253.359 242.831,249.888 244.141,247.689 C 247.381,243.08 250.371,238.179 252.953,233.338 C 253.043,233.158 253.141,232.988 253.231,232.808 C 255.671,228.308 258.141,223.008 259.861,217.37 C 259.971,217.058 260.061,216.74 260.141,216.42 C 260.801,214.26 261.282,212.21 261.561,210.32 C 261.571,210.29 261.582,210.258 261.582,210.218 C 261.992,207.788 262.222,205.32 262.202,202.868 C 263.132,180.108 257.092,143.768 244.742,120.058 C 244.592,119.748 244.452,119.498 244.342,119.298 C 239.702,110.558 234.172,103.618 227.802,99.828 C 222.162,96.478 197.172,94.238 182.192,94.088 C 180.533,94.028 178.982,93.998 177.762,94.008 L 177.762,94 C 177.612,94 177.462,93.99 177.312,93.99 C 163.432,93.66 133.172,96.13 126.953,99.83 C 120.583,103.61 115.053,110.55 110.402,119.29 C 110.373,119.36 110.323,119.45 110.272,119.54 C 110.192,119.69 110.102,119.86 110.002,120.06 C 110.002,120.07 109.992,120.09 109.981,120.1 C 97.651,143.81 91.611,180.13 92.542,202.87 C 92.521,205.32 92.752,207.79 93.162,210.22 C 93.162,210.26 93.172,210.29 93.182,210.321 C 93.462,212.212 93.942,214.26 94.602,216.422 C 94.682,216.742 94.772,217.062 94.882,217.372 C 96.602,223.012 99.072,228.311 101.512,232.811 C 101.602,232.992 101.702,233.162 101.792,233.34 C 104.372,238.18 107.361,243.08 110.602,247.692 C 111.913,249.891 114.123,253.362 115.772,254.571 C 122.092,262.382 128.882,268.651 134.993,271.321 C 141.062,273.97 149.602,275.87 159.142,276.97 z M 238.922,77.5 C 271.162,96.67 286.482,179.52 282.012,216.76 C 279.172,240.362 250.472,285.96 228.692,295.49 C 216.463,300.849 196.342,303.75 175.762,304.08 C 175.702,304.08 175.652,304.08 175.592,304.08 C 155.002,303.75 134.892,300.85 122.662,295.49 C 100.882,285.96 72.172,240.359 69.342,216.76 C 64.872,179.52 80.182,96.67 112.432,77.5 C 120.432,72.74 158.642,68.75 176.012,69.25 C 193.012,69.5 231.092,72.85 238.922,77.5 z"
   id="path2423" />
		<path
   d="M 233.272,154.01 L 233.272,153.91 C 236.942,153.81 240.744,153.56 242.982,153.62 C 247.482,153.75 255.544,154.97 256.112,154 C 256.932,152.59 247.704,126.1 244.744,120.06 C 257.094,143.77 263.134,180.109 262.204,202.87 C 262.204,202.3 262.183,201.74 262.152,201.17 C 262.124,200.72 240.972,201.09 235.562,201.17 L 235.562,201 C 229.932,200.92 215.083,200.08 214.812,199.58 C 211.982,194.33 200.732,176.58 200.732,176.58 L 212.612,156.62 C 212.612,156.62 228.182,154.19 233.272,154.01 z"
   id="path2425" />
		<path
   d="M 262.152,201.17 C 262.182,201.74 262.204,202.3 262.204,202.87 C 262.102,205.2 261.933,207.38 261.692,209.391 C 261.664,209.662 261.624,209.942 261.584,210.22 C 261.584,210.26 261.572,210.29 261.563,210.321 C 261.213,212.382 260.733,214.422 260.143,216.422 C 260.063,216.742 259.973,217.062 259.863,217.372 C 258.343,222.142 256.053,227.442 253.233,232.811 C 253.143,232.992 253.045,233.162 252.955,233.34 C 249.515,239.611 246.205,244.231 245.233,245.83 C 245.125,246.01 244.723,246.73 244.143,247.689 C 242.483,250.07 240.745,252.378 238.973,254.57 C 238.613,254.84 238.273,254.99 237.983,255 C 234.153,255.08 230.983,253.33 229.403,252.58 C 227.973,252.03 228.553,252.15 208.313,243.67 L 195.983,221.08 L 215.153,200.17 C 215.153,200.17 230.273,201.2 235.563,201.17 C 240.972,201.09 262.123,200.72 262.152,201.17 z"
   id="path2427" />
		<path
   d="M 244.743,120.06 C 247.703,126.1 256.931,152.59 256.111,154 C 255.543,154.97 247.481,153.75 242.981,153.62 C 240.743,153.56 236.941,153.81 233.271,153.91 C 232.663,153.93 232.061,153.94 231.471,153.95 C 231.461,153.95 231.451,153.95 231.441,153.95 C 229.631,154.13 219.361,155.25 219.361,155.25 C 219.361,155.25 215.981,155.88 212.561,156.33 L 199.231,132.25 L 200.391,130.34 L 200.412,130.3 C 202.1,127.9 205.6,122.75 207.03,119.43 L 207.042,119.42 L 207.98,117.88 C 207.98,117.88 223.98,114.17 227.98,115.33 C 231.51,115.26 243.28,117.66 244.251,119.16 C 244.279,119.2 244.311,119.25 244.341,119.3 C 244.453,119.5 244.592,119.75 244.743,120.06 z"
   id="path2429" />
		<path
   d="M 244.342,119.3 C 244.312,119.25 244.28,119.2 244.252,119.16 C 243.28,117.66 231.512,115.26 227.981,115.33 C 223.981,114.17 207.981,117.88 207.981,117.88 L 207.043,119.42 C 207.313,118.78 207.513,118.22 207.611,117.75 C 208.821,111.85 203.882,98.4 194.981,95.35 C 193.361,94.79 187.231,94.29 182.191,94.09 C 197.171,94.24 222.163,96.48 227.801,99.83 C 234.172,103.62 239.703,110.56 244.342,119.3 z"
   id="path2431" />
		<path
   d="M 237.982,255 C 238.272,254.99 238.612,254.84 238.972,254.57 C 232.652,262.38 225.862,268.65 219.752,271.32 C 213.542,274.03 204.762,275.95 194.962,277.04 L 194.962,277 C 196.052,276.88 197.042,276.76 197.86,276.62 C 200.51,276.18 192.202,255.84 186.48,253.88 C 185.73,253.62 184.07,253.71 182.23,253.85 L 182.23,253.79 C 185.22,253.59 187.89,253.26 189.792,252.78 C 195.182,251.439 208.312,243.67 208.312,243.67 C 228.552,252.15 227.972,252.03 229.402,252.58 C 230.982,253.33 234.152,255.08 237.982,255 z"
   id="path2433" />
		<path
   d="M 153.882,176.78 C 153.972,176.65 154.012,176.58 154.012,176.58 L 142.142,156.62 C 142.142,156.62 125.542,154.03 121.012,154 C 116.382,153.93 98.452,153.92 98.012,155.25 C 96.012,161.25 94.382,174.25 93.762,180 C 93.272,184.55 92.512,200.25 92.512,200.25 C 95.012,200.92 113.162,200.96 119.012,201 C 124.512,200.939 139.662,200.08 139.932,199.58 C 142.582,194.66 152.642,178.75 153.882,176.78 z M 159.993,220.73 C 159.423,220.74 159.093,220.75 159.093,220.75 L 139.593,200.17 C 139.593,200.17 124.473,201.2 119.183,201.17 C 113.773,201.09 92.623,200.72 92.593,201.17 C 92.563,201.74 92.543,202.3 92.543,202.87 C 91.612,180.13 97.652,143.81 109.982,120.1 C 107.003,126.23 97.812,152.59 98.642,154 C 99.203,154.97 107.262,153.75 111.762,153.62 C 114.372,153.55 119.092,153.9 123.272,153.95 C 123.283,153.95 123.293,153.95 123.302,153.95 C 125.112,154.13 135.382,155.25 135.382,155.25 C 135.382,155.25 138.762,155.88 142.182,156.33 L 154.142,176.12 C 154.142,176.12 170.692,174.79 177.283,174.84 L 177.464,174.84 C 184.054,174.79 200.612,176.12 200.612,176.12 L 212.562,156.33 C 215.982,155.88 219.362,155.25 219.362,155.25 C 219.362,155.25 229.633,154.13 231.442,153.95 C 231.454,153.95 231.463,153.95 231.472,153.95 C 232.062,153.94 232.662,153.93 233.272,153.91 L 233.272,154.01 C 228.182,154.19 212.612,156.62 212.612,156.62 L 200.732,176.58 C 200.732,176.58 211.982,194.33 214.812,199.58 C 215.083,200.08 229.932,200.92 235.562,201 L 235.562,201.17 C 230.272,201.2 215.152,200.17 215.152,200.17 L 195.982,221.08 L 208.312,243.67 L 195.652,220.75 C 195.652,220.75 182.562,220.49 177.374,220.51 C 173.002,220.5 163.042,220.68 159.993,220.73 z"
   id="path2435" />
		<path
   d="M 199.232,132.25 L 212.562,156.33 L 200.612,176.12 C 200.612,176.12 184.052,174.79 177.464,174.84 L 177.283,174.84 C 170.692,174.79 154.142,176.12 154.142,176.12 L 142.182,156.33 L 155.512,132.25 C 155.512,132.25 171.462,131.68 177.242,131.74 C 177.32,131.74 177.412,131.74 177.502,131.74 C 183.292,131.68 199.232,132.25 199.232,132.25 z"
   id="path2437" />
		<path
   d="M 192.623,9 C 204.263,10.33 212.253,44.36 210.852,57.25 C 210.842,57.25 208.672,63.25 207.244,65.5 C 198.682,64.57 184.642,63.72 175.682,63.5 C 166.994,63.72 154.542,64.63 146.372,65.48 C 144.952,63.22 142.802,57.25 142.782,57.25 C 141.382,44.36 149.372,10.33 161.011,9 C 165.461,8.49 170.561,0.6 177.621,0.5 C 184.682,0.6 188.172,8.49 192.623,9 z"
   id="path2439" />
		<path
   d="M 177.373,220.51 C 182.561,220.49 195.651,220.75 195.651,220.75 L 208.311,243.67 C 208.311,243.67 195.181,251.441 189.791,252.78 C 187.891,253.259 185.221,253.59 182.229,253.79 C 180.741,253.891 179.169,253.939 177.581,253.97 C 177.439,253.97 177.301,253.97 177.161,253.97 C 172.381,253.901 167.801,253.491 164.961,252.782 C 159.561,251.442 146.431,243.672 146.431,243.672 L 159.091,220.752 C 159.091,220.752 159.421,220.742 159.991,220.731 C 163.042,220.68 173.002,220.5 177.373,220.51 z"
   id="path2441" />
		<path
   d="M 154.352,130.34 L 154.332,130.3 L 147.742,119.5 C 147.452,118.83 147.242,118.24 147.141,117.75 C 145.921,111.85 150.861,98.4 159.761,95.35 C 161.971,94.59 172.511,93.94 177.311,94.01 L 177.311,93.99 C 177.461,93.99 177.611,94 177.761,94 L 177.761,94.01 C 178.981,94 180.532,94.031 182.191,94.09 C 187.231,94.29 193.361,94.79 194.981,95.35 C 203.881,98.4 208.821,111.85 207.611,117.75 C 207.511,118.22 207.311,118.78 207.043,119.42 L 207.031,119.43 L 200.413,130.3 L 200.392,130.34 L 199.232,132.25 C 199.232,132.25 183.294,131.68 177.503,131.74 C 177.413,131.74 177.321,131.74 177.243,131.74 C 171.463,131.68 155.513,132.25 155.513,132.25 L 154.352,130.34 z"
   id="path2443" />
		<path
   d="M 186.482,253.88 C 192.204,255.84 200.512,276.18 197.862,276.62 C 197.044,276.76 196.052,276.88 194.964,277 C 192.572,277.25 189.684,277.45 186.954,277.62 C 182.933,277.88 179.192,277.99 177.384,278 C 177.374,278 177.374,278 177.363,278 C 175.553,277.99 171.813,277.88 167.795,277.62 C 164.815,277.43 161.645,277.21 159.145,276.93 C 158.305,276.83 157.545,276.731 156.885,276.62 C 154.235,276.18 162.545,255.84 168.265,253.88 C 169.685,253.391 174.286,254.141 177.365,254.192 C 177.377,254.192 177.377,254.192 177.386,254.192 C 178.825,254.162 180.606,253.992 182.236,253.85 C 184.072,253.71 185.732,253.62 186.482,253.88 z"
   id="path2445" />
		<path
   d="M 177.163,253.97 C 177.303,253.97 177.441,253.97 177.583,253.97 C 179.173,253.942 180.743,253.891 182.231,253.79 L 182.231,253.85 C 180.601,253.992 178.821,254.162 177.381,254.192 C 177.371,254.192 177.371,254.192 177.36,254.192 C 174.28,254.141 169.68,253.391 168.26,253.88 C 162.54,255.84 154.23,276.18 156.88,276.62 C 157.54,276.73 158.3,276.83 159.14,276.93 L 159.14,276.97 C 149.6,275.87 141.06,273.97 134.991,271.322 C 128.881,268.651 122.091,262.382 115.77,254.572 C 116.13,254.842 116.47,254.992 116.76,255.002 C 120.59,255.082 123.76,253.332 125.34,252.582 C 126.77,252.032 126.19,252.151 146.43,243.672 C 146.43,243.672 159.56,251.443 164.96,252.782 C 167.802,253.49 172.382,253.9 177.163,253.97 z"
   id="path2447" />
		<path
   d="M 177.312,93.99 L 177.312,94.01 C 172.512,93.94 161.972,94.59 159.762,95.35 C 150.862,98.4 145.922,111.85 147.142,117.75 C 147.243,118.24 147.453,118.83 147.743,119.5 L 146.763,117.88 C 146.763,117.88 130.763,114.17 126.763,115.33 C 123.233,115.26 111.463,117.66 110.493,119.16 C 110.463,119.2 110.442,119.24 110.402,119.29 C 115.052,110.55 120.583,103.61 126.953,99.83 C 133.172,96.13 163.432,93.66 177.312,93.99 z"
   id="path2449" />
		<path
   d="M 139.592,200.17 L 158.762,221.08 L 146.432,243.67 C 126.192,252.15 126.772,252.03 125.342,252.58 C 123.762,253.33 120.592,255.08 116.762,255 C 116.472,254.99 116.132,254.84 115.772,254.57 C 114.002,252.38 112.262,250.07 110.602,247.689 C 110.022,246.73 109.623,246.008 109.512,245.83 C 108.542,244.23 105.232,239.609 101.792,233.34 C 101.702,233.16 101.602,232.99 101.512,232.811 C 98.692,227.442 96.402,222.141 94.882,217.372 C 94.772,217.061 94.682,216.742 94.602,216.422 C 94.012,214.422 93.533,212.382 93.182,210.321 C 93.172,210.292 93.162,210.26 93.162,210.22 C 93.122,209.942 93.082,209.66 93.052,209.391 C 92.812,207.38 92.642,205.202 92.542,202.87 C 92.542,202.3 92.562,201.74 92.592,201.17 C 92.622,200.72 113.772,201.09 119.182,201.17 C 124.472,201.2 139.592,200.17 139.592,200.17 z"
   id="path2451" />
		<path
   d="M 154.352,130.34 L 155.512,132.25 L 142.182,156.33 C 138.762,155.88 135.382,155.25 135.382,155.25 C 135.382,155.25 125.111,154.13 123.302,153.95 C 123.292,153.95 123.282,153.95 123.272,153.95 C 119.092,153.9 114.373,153.55 111.762,153.62 C 107.262,153.75 99.202,154.97 98.642,154 C 97.812,152.59 107.002,126.23 109.982,120.1 C 109.993,120.09 110.003,120.07 110.003,120.06 C 110.093,119.88 110.183,119.71 110.273,119.54 C 110.323,119.45 110.374,119.36 110.403,119.29 C 110.443,119.24 110.464,119.2 110.494,119.16 C 111.464,117.66 123.233,115.26 126.764,115.33 C 130.764,114.17 146.764,117.88 146.764,117.88 L 147.744,119.5 C 149.193,122.82 152.653,127.91 154.334,130.3 L 154.352,130.34 z"
   id="path2453" />
		<path
   d="M 142.142,156.62 L 154.012,176.58 C 154.012,176.58 153.972,176.65 153.882,176.779 C 152.642,178.75 142.582,194.66 139.932,199.58 C 139.662,200.08 124.512,200.939 119.012,201 C 113.162,200.96 95.012,200.92 92.512,200.25 C 92.512,200.25 93.272,184.55 93.762,180 C 94.382,174.25 96.012,161.25 98.012,155.25 C 98.452,153.92 116.382,153.93 121.012,154 C 125.542,154.03 142.142,156.62 142.142,156.62 z"
   id="path2455" />
		<path
   d="M 28.762,286.93 C 35.642,286.87 46.222,288.79 48.492,286.242 C 53.742,280.362 59.141,274.18 63.032,270.092 C 68.952,263.872 76.641,251.023 80.611,256.183 C 82.851,259.092 91.622,272.642 94.301,276.592 C 96.891,279.613 98.871,282.472 101.781,286.262 C 105.751,291.433 102.081,302.693 95.76,308.502 C 93.83,310.282 70.31,320.353 63.04,321.692 C 58.83,322.47 37.269,328.35 33.43,323.52 C 30.92,320.141 28.89,316.322 27.35,312.96 C 26.64,311.4 26.031,309.939 25.52,308.67 C 24.93,307.17 23.82,304.91 22.9,302.34 C 22.331,300.8 21.831,299.141 21.531,297.46 C 21.121,295.12 21.11,292.74 21.9,290.561 C 22.171,289.811 22.541,289.09 23.01,288.401 C 23.782,287.3 25.962,286.939 28.762,286.93 z"
   id="path2457" />
		<path
   d="M 37.192,127.3 C 35.652,127.3 34.112,127.25 32.572,127.17 C 31.612,127.12 30.652,127.06 29.692,126.98 C 27.942,126.84 26.262,126.57 24.612,126.11 C 23.583,125.83 22.572,125.47 21.572,125.02 C 21.333,124.91 21.062,124.82 20.843,124.68 C 20.763,124.63 20.683,124.58 20.613,124.52 C 18.843,123.36 17.193,121.41 15.803,119.05 C 14.793,117.33 13.923,115.39 13.253,113.39 C 13.253,113.37 13.243,113.36 13.243,113.34 C 13.213,113.25 13.192,113.16 13.173,113.08 C 12.853,111.85 12.993,111.38 13.283,110.97 C 18.972,102.98 43.762,76.47 56.413,73.82 C 64.433,72.14 99.473,74.37 101.062,79.66 C 101.962,82.68 95.152,88.14 92.392,92.3 C 91.472,93.85 90.472,95.31 89.502,96.81 C 86.292,101.73 85.662,104.21 84.492,106.89 C 83.162,109.95 81.811,113.06 80.851,115.84 C 80.271,117.53 78.821,118.79 77.391,119.89 C 76.441,120.62 75.041,121.09 73.952,121.6 C 72.981,122.06 71.992,122.49 70.972,122.84 C 69.382,123.4 67.732,123.69 66.082,123.98 C 62.061,124.7 58.111,125.65 54.052,126.11 C 49.792,126.58 45.502,127.04 41.222,127.22 C 39.882,127.28 38.542,127.3 37.192,127.3 z"
   id="path2459" />
		<path
   d="M 37.192,127.3 C 36.713,127.96 34.463,131.11 33.862,132.36 C 32.993,134.19 31.453,140.1 31.453,140.1 C 31.453,140.1 30.633,134.94 30.803,133.22 C 30.933,131.781 32.303,127.93 32.573,127.17 C 34.112,127.25 35.652,127.3 37.192,127.3 z"
   id="path2461" />
		<path
   d="M 27.352,312.96 L 27.262,313 C 27.262,313 22.692,311.99 21.142,311.939 C 19.122,311.878 13.092,312.83 13.092,312.83 C 13.092,312.83 17.492,310.019 19.132,309.48 C 20.662,308.98 25.522,308.668 25.522,308.668 C 26.032,309.939 26.642,311.4 27.352,312.96 z"
   id="path2463" />
		<path
   d="M 23.422,282.48 C 24.651,283.388 27.692,286 28.762,286.929 C 25.962,286.939 23.783,287.298 23.012,288.4 C 22.542,289.088 22.172,289.808 21.902,290.558 L 21.762,290.498 C 21.762,290.498 21.382,286.298 20.832,285.028 C 19.752,282.557 14.262,276.498 14.262,276.498 C 14.262,276.498 21.222,280.85 23.422,282.48 z"
   id="path2465" />
		<path
   d="M 24.612,126.11 L 24.592,126.17 C 24.592,126.17 21.321,128.96 19.962,130.6 C 18.372,132.51 14.512,138.72 14.272,139.1 C 14.392,138.67 16.322,131.76 17.362,129.56 C 18.062,128.07 20.512,124.67 20.512,124.67 L 20.612,124.52 C 20.682,124.58 20.762,124.63 20.842,124.68 C 21.062,124.82 21.332,124.91 21.571,125.02 C 22.572,125.47 23.582,125.83 24.612,126.11 z"
   id="path2467" />
		<path
   d="M 21.532,297.46 C 21.832,299.141 22.332,300.8 22.901,302.34 C 21.601,301.77 17.091,299.8 15.351,299.3 C 12.891,298.59 5.261,297.5 5.261,297.5 C 5.261,297.5 12.751,296.43 15.261,296.5 C 16.692,296.53 20.552,297.27 21.532,297.46 z"
   id="path2469" />
		<path
   d="M 15.802,119.05 L 15.592,119.17 C 15.592,119.17 11.312,119.5 9.932,119.5 C 7.612,119.5 2.082,122.67 0.622,123.54 C 1.361,122.67 5.632,117.7 7.792,116.46 C 9.142,115.68 12.212,113.71 13.151,113.09 C 13.181,113.17 13.212,113.26 13.242,113.34 C 13.242,113.36 13.252,113.37 13.252,113.39 C 13.922,115.39 14.792,117.33 15.802,119.05 z"
   id="path2471" />
		<path
   d="M 13.172,113.08 C 13.192,113.16 13.212,113.25 13.242,113.34 C 13.212,113.26 13.181,113.17 13.151,113.09 C 13.162,113.1 13.162,113.09 13.172,113.08 z"
   id="path2473" />
	</g>
	<g
   id="g2475">
		<path
   d="M 146.572,65.77 C 146.512,65.68 146.442,65.59 146.373,65.48 C 144.953,63.22 142.803,57.25 142.783,57.25 C 141.383,44.36 149.373,10.33 161.012,9 C 165.462,8.49 170.562,0.6 177.622,0.5"
   id="path2477"
   style="fill:none;stroke:#000000" />
		<path
   d="M 146.142,65.5 C 146.222,65.49 146.292,65.48 146.372,65.48 C 154.542,64.63 166.993,63.72 175.682,63.5"
   id="path2479"
   style="fill:none;stroke:#000000" />
		<path
   d="M 175.592,304.08 C 155.002,303.75 134.892,300.85 122.662,295.49 C 100.882,285.96 72.172,240.359 69.342,216.76 C 64.872,179.52 80.182,96.67 112.432,77.5 C 120.432,72.74 158.642,68.75 176.012,69.25"
   id="path2481"
   style="fill:none;stroke:#000000" />
		<path
   d="M 92.392,92.3 C 95.152,88.14 101.962,82.68 101.062,79.66 C 99.472,74.37 64.432,72.14 56.413,73.82 C 43.763,76.47 18.973,102.98 13.283,110.97 C 12.993,111.38 12.852,111.85 13.173,113.08 C 13.193,113.16 13.213,113.25 13.243,113.34"
   id="path2483"
   style="fill:none;stroke:#000000" />
		<path
   d="M 207.262,65.5 C 207.252,65.5 207.252,65.5 207.242,65.5 C 198.68,64.57 184.64,63.72 175.68,63.5"
   id="path2485"
   style="fill:none;stroke:#000000" />
		<path
   d="M 175.592,304.08 C 175.652,304.08 175.702,304.08 175.762,304.08 C 196.342,303.75 216.462,300.85 228.692,295.49 C 250.472,285.96 279.172,240.359 282.012,216.76 C 286.482,179.52 271.162,96.67 238.922,77.5 C 231.092,72.85 193.012,69.5 176.012,69.25"
   id="path2487"
   style="fill:none;stroke:#000000" />
		<path
   d="M 92.392,92.3 C 91.472,93.85 90.472,95.31 89.502,96.81 C 86.292,101.73 85.662,104.21 84.492,106.89 C 83.162,109.95 81.811,113.06 80.851,115.84 C 80.271,117.53 78.821,118.79 77.391,119.89 C 76.441,120.62 75.041,121.09 73.952,121.6 C 72.981,122.06 71.992,122.49 70.972,122.84 C 69.382,123.4 67.732,123.69 66.082,123.98 C 62.061,124.7 58.111,125.65 54.052,126.11 C 49.792,126.58 45.502,127.04 41.222,127.22 C 39.882,127.281 38.542,127.3 37.192,127.3 C 35.652,127.3 34.112,127.25 32.572,127.17 C 31.612,127.12 30.652,127.06 29.692,126.98 C 27.942,126.84 26.262,126.57 24.612,126.11 C 23.583,125.83 22.572,125.47 21.572,125.02 C 21.333,124.91 21.062,124.82 20.843,124.68 C 20.763,124.63 20.683,124.58 20.613,124.52 C 18.843,123.36 17.193,121.41 15.803,119.05 C 14.793,117.33 13.923,115.39 13.253,113.39 C 13.253,113.37 13.243,113.36 13.243,113.34 C 13.213,113.26 13.182,113.17 13.152,113.09 C 13.152,113.08 13.142,113.06 13.142,113.05"
   id="path2489"
   style="fill:none;stroke:#000000" />
		<path
   d="M 257.192,276.85 C 257.232,276.79 257.272,276.731 257.322,276.662 C 260.012,272.651 268.692,259.162 270.902,256.252 C 274.862,251.072 282.602,263.892 288.544,270.103 C 292.442,274.172 297.862,280.332 303.134,286.204 C 305.424,288.744 316.054,286.773 322.934,286.812 C 325.705,286.833 327.864,287.172 328.623,288.263 C 329.123,288.984 329.493,289.734 329.772,290.513 C 330.543,292.702 330.532,295.103 330.102,297.443 C 329.812,299.124 329.312,300.773 328.762,302.302 C 327.842,304.842 326.762,307.062 326.172,308.552 C 326.151,308.592 326.142,308.632 326.121,308.672 C 325.621,309.962 325.012,311.433 324.291,313.002 C 322.77,316.322 320.78,320.082 318.32,323.422"
   id="path2491"
   style="fill:none;stroke:#000000" />
		<path
   d="M 257.532,276.41 C 257.463,276.49 257.391,276.58 257.321,276.66 C 254.731,279.71 252.753,282.58 249.842,286.4 C 245.892,291.58 249.962,302.83 256.302,308.609 C 258.242,310.38 281.432,320.38 288.702,321.7 C 292.912,322.46 314.491,328.269 318.32,323.42"
   id="path2493"
   style="fill:none;stroke:#000000" />
		<path
   d="M 94.402,276.74 C 94.373,276.689 94.333,276.638 94.302,276.59 C 91.622,272.641 82.852,259.09 80.612,256.18 C 76.642,251.02 68.953,263.87 63.033,270.09 C 59.142,274.18 53.743,280.361 48.493,286.24 C 46.222,288.79 35.642,286.87 28.763,286.928 C 25.963,286.939 23.784,287.298 23.013,288.4 C 22.543,289.088 22.173,289.808 21.903,290.558 C 21.113,292.74 21.124,295.12 21.534,297.458 C 21.834,299.138 22.334,300.798 22.903,302.338 C 23.823,304.908 24.933,307.168 25.523,308.668 C 26.034,309.939 26.643,311.397 27.353,312.958 C 28.893,316.317 30.923,320.138 33.433,323.519"
   id="path2495"
   style="fill:none;stroke:#000000" />
		<path
   d="M 94.052,276.3 C 94.132,276.401 94.222,276.49 94.302,276.59 C 96.892,279.611 98.872,282.47 101.782,286.26 C 105.752,291.43 102.082,302.692 95.761,308.5 C 93.831,310.28 70.311,320.35 63.041,321.689 C 58.831,322.468 37.27,328.349 33.431,323.519"
   id="path2497"
   style="fill:none;stroke:#000000" />
		<path
   id="path2499"
   style="fill:none;stroke:#000000" />
		<path
   id="path2501"
   style="fill:none;stroke:#000000" />
		<path
   d="M 259.203,92.5 C 256.423,88.34 249.601,82.9 250.503,79.88 C 252.071,74.58 287.103,72.26 295.133,73.92 C 307.793,76.54 332.653,102.98 338.353,110.96 C 338.633,111.35 338.773,111.8 338.503,112.94 C 338.482,113.06 338.441,113.2 338.401,113.35"
   id="path2503"
   style="fill:none;stroke:#000000" />
		<path
   d="M 259.203,92.5 C 260.123,94.05 261.133,95.5 262.101,96.99 C 265.321,101.91 265.961,104.38 267.131,107.07 C 268.471,110.12 269.831,113.23 270.801,116 C 271.381,117.69 272.841,118.95 274.261,120.05 C 275.221,120.78 276.621,121.24 277.711,121.75 C 278.69,122.2 279.681,122.63 280.69,122.98 C 282.292,123.53 283.93,123.82 285.59,124.11 C 289.6,124.82 293.56,125.76 297.62,126.2 C 301.88,126.67 306.18,127.12 310.46,127.29 C 311.85,127.34 313.239,127.37 314.64,127.35 C 316.161,127.35 317.68,127.3 319.201,127.21 C 320.132,127.16 321.06,127.1 321.991,127.02 C 323.77,126.87 325.491,126.59 327.172,126.1 C 328.161,125.82 329.142,125.47 330.102,125.03 C 330.342,124.92 330.612,124.83 330.831,124.69 C 330.932,124.62 331.042,124.56 331.142,124.48 L 331.142,124.47 C 332.913,123.28 334.542,121.31 335.913,118.94 C 336.902,117.24 337.743,115.35 338.392,113.39 C 338.392,113.38 338.402,113.36 338.402,113.35 C 338.432,113.25 338.472,113.15 338.504,113.05"
   id="path2505"
   style="fill:none;stroke:#000000" />
		<path
   d="M 207.072,65.77 C 207.134,65.69 207.192,65.6 207.244,65.5 C 208.674,63.25 210.844,57.25 210.852,57.25 C 212.252,44.36 204.262,10.33 192.623,9 C 188.173,8.49 184.683,0.6 177.623,0.5"
   id="path2507"
   style="fill:none;stroke:#000000" />
		<path
   d="M 328.302,302.5 C 328.302,302.5 328.472,302.42 328.762,302.3 C 330.182,301.67 334.512,299.79 336.212,299.3 C 338.672,298.59 346.302,297.5 346.302,297.5"
   id="path2509"
   style="fill:none;stroke:#000000" />
		<path
   d="M 346.302,297.5 C 346.302,297.5 338.822,296.43 336.302,296.5 C 334.902,296.53 331.172,297.24 330.102,297.439 C 329.913,297.48 329.802,297.5 329.802,297.5"
   id="path2511"
   style="fill:none;stroke:#000000" />
		<path
   d="M 329.802,290.5 C 329.802,290.5 330.182,286.3 330.741,285.03 C 331.81,282.558 337.302,276.5 337.302,276.5"
   id="path2513"
   style="fill:none;stroke:#000000" />
		<path
   d="M 337.302,276.5 C 337.302,276.5 330.342,280.85 328.142,282.48 C 326.972,283.359 324.092,285.82 322.932,286.808 C 322.621,287.088 322.432,287.248 322.432,287.248"
   id="path2515"
   style="fill:none;stroke:#000000" />
		<path
   d="M 326.042,308.67 C 326.042,308.67 326.07,308.67 326.121,308.67 C 326.762,308.72 331.03,309.02 332.44,309.481 C 334.081,310.02 338.47,312.832 338.47,312.832"
   id="path2517"
   style="fill:none;stroke:#000000" />
		<path
   d="M 338.472,312.83 C 338.472,312.83 332.442,311.88 330.422,311.939 C 328.871,311.99 324.302,313 324.302,313"
   id="path2519"
   style="fill:none;stroke:#000000" />
		<path
   d="M 24.592,126.17 C 24.592,126.17 21.321,128.96 19.962,130.6 C 18.372,132.51 14.512,138.72 14.272,139.1"
   id="path2521"
   style="fill:none;stroke:#000000" />
		<path
   d="M 14.262,139.12 C 14.262,139.12 14.262,139.11 14.272,139.1 C 14.392,138.67 16.322,131.76 17.362,129.56 C 18.062,128.07 20.512,124.67 20.512,124.67"
   id="path2523"
   style="fill:none;stroke:#000000" />
		<path
   d="M 15.592,119.17 C 15.592,119.17 11.312,119.5 9.932,119.5 C 7.612,119.5 2.082,122.67 0.622,123.54 C 0.392,123.67 0.262,123.75 0.262,123.75"
   id="path2525"
   style="fill:none;stroke:#000000" />
		<path
   d="M 0.512,123.67 C 0.512,123.67 0.552,123.62 0.622,123.54 C 1.361,122.67 5.632,117.7 7.792,116.46 C 9.142,115.68 12.212,113.71 13.151,113.09 C 13.162,113.1 13.162,113.09 13.172,113.08 C 13.342,112.98 13.432,112.92 13.432,112.92"
   id="path2527"
   style="fill:none;stroke:#000000" />
		<path
   d="M 32.622,127.04 C 32.622,127.04 32.601,127.09 32.571,127.17 C 32.301,127.93 30.931,131.78 30.801,133.22 C 30.631,134.94 31.451,140.1 31.451,140.1"
   id="path2529"
   style="fill:none;stroke:#000000" />
		<path
   d="M 31.452,140.1 C 31.452,140.1 32.992,134.19 33.861,132.36 C 34.462,131.11 36.712,127.96 37.191,127.3 C 37.252,127.22 37.282,127.18 37.282,127.18"
   id="path2531"
   style="fill:none;stroke:#000000" />
		<path
   d="M 327.132,126.07 C 327.132,126.07 327.142,126.08 327.172,126.1 C 327.53,126.41 330.482,128.96 331.762,130.5 C 333.352,132.41 337.212,138.62 337.451,139"
   id="path2533"
   style="fill:none;stroke:#000000" />
		<path
   d="M 337.462,139.02 C 337.462,139.02 337.462,139.01 337.451,139 C 337.331,138.57 335.4,131.66 334.371,129.46 C 333.672,127.97 331.212,124.57 331.212,124.57"
   id="path2535"
   style="fill:none;stroke:#000000" />
		<path
   d="M 336.132,119.07 C 336.132,119.07 340.411,119.4 341.802,119.4 C 344.121,119.4 349.642,122.57 351.102,123.44 C 351.331,123.57 351.462,123.65 351.462,123.65"
   id="path2537"
   style="fill:none;stroke:#000000" />
		<path
   d="M 351.212,123.57 C 351.212,123.57 351.172,123.52 351.102,123.44 C 350.362,122.57 346.102,117.6 343.932,116.36 C 342.542,115.55 339.331,113.49 338.502,112.94 C 338.371,112.87 338.302,112.82 338.302,112.82"
   id="path2539"
   style="fill:none;stroke:#000000" />
		<path
   d="M 319.102,126.94 C 319.102,126.94 319.142,127.04 319.203,127.21 C 319.562,128.22 320.794,131.75 320.924,133.12 C 321.094,134.84 320.274,140 320.274,140"
   id="path2541"
   style="fill:none;stroke:#000000" />
		<path
   d="M 320.272,140 C 320.272,140 318.732,134.09 317.862,132.26 C 317.312,131.09 315.282,128.24 314.642,127.35 C 314.512,127.18 314.442,127.08 314.442,127.08"
   id="path2543"
   style="fill:none;stroke:#000000" />
		<path
   d="M 110.402,119.29 C 115.052,110.55 120.583,103.61 126.953,99.83 C 133.173,96.13 163.432,93.66 177.312,93.99 C 177.462,93.99 177.612,94 177.762,94"
   id="path2545"
   style="fill:none;stroke:#ffffff;stroke-width:3" />
		<path
   d="M 110.002,120.06 C 110.092,119.88 110.182,119.71 110.272,119.54"
   id="path2547"
   style="fill:none;stroke:#ffffff;stroke-width:3" />
		<path
   d="M 93.162,210.22 C 93.122,209.942 93.082,209.66 93.052,209.391 C 92.812,207.38 92.642,205.202 92.542,202.87 C 91.611,180.13 97.651,143.81 109.981,120.1"
   id="path2549"
   style="fill:none;stroke:#ffffff;stroke-width:3" />
		<path
   d="M 94.602,216.42 C 93.942,214.26 93.462,212.21 93.182,210.32"
   id="path2551"
   style="fill:none;stroke:#ffffff;stroke-width:3" />
		<path
   d="M 101.512,232.811 C 98.692,227.442 96.402,222.141 94.882,217.372"
   id="path2553"
   style="fill:none;stroke:#ffffff;stroke-width:3" />
		<path
   d="M 176.772,278.08 C 170.744,277.99 164.762,277.62 159.142,276.97 C 149.602,275.87 141.062,273.97 134.993,271.322 C 128.883,268.651 122.093,262.382 115.772,254.572 C 114.002,252.382 112.262,250.072 110.602,247.692 C 107.362,243.082 104.373,238.18 101.792,233.34"
   id="path2555"
   style="fill:none;stroke:#ffffff;stroke-width:3" />
		<path
   d="M 154.333,130.3 C 152.651,127.91 149.191,122.82 147.743,119.5 C 147.453,118.83 147.243,118.24 147.142,117.75 C 145.922,111.85 150.862,98.4 159.762,95.35 C 161.972,94.59 172.512,93.94 177.312,94.01"
   id="path2557"
   style="fill:none;stroke:#ffffff;stroke-width:3" />
		<path
   d="M 177.123,131.24 C 171.423,131.2 155.263,131.62 155.263,131.62 C 155.263,131.62 154.913,131.14 154.353,130.34"
   id="path2559"
   style="fill:none;stroke:#ffffff;stroke-width:3" />
		<path
   d="M 154.012,176.58 C 154.012,176.58 170.292,175.05 176.162,175.13"
   id="path2561"
   style="fill:none;stroke:#ffffff;stroke-width:3" />
		<polyline
   points="159.092,220.75 139.592,200.17 153.882,176.78   "
   id="polyline2563"
   style="fill:none;stroke:#ffffff;stroke-width:3" />
		<path
   d="M 176.932,220.5 C 171.162,220.46 162.732,220.66 159.994,220.73"
   id="path2565"
   style="fill:none;stroke:#ffffff;stroke-width:3" />
		<path
   d="M 155.512,132.25 C 155.512,132.25 171.462,131.68 177.242,131.74"
   id="path2567"
   style="fill:none;stroke:#ffffff;stroke-width:3" />
		<path
   d="M 177.282,174.84 C 170.691,174.79 154.141,176.12 154.141,176.12 L 142.181,156.33"
   id="path2569"
   style="fill:none;stroke:#ffffff;stroke-width:3" />
		<path
   d="M 177.163,253.97 C 172.383,253.901 167.803,253.491 164.963,252.782 C 159.563,251.442 146.433,243.672 146.433,243.672 L 159.093,220.752 C 159.093,220.752 159.423,220.742 159.993,220.731 C 163.043,220.68 173.003,220.502 177.373,220.51 C 177.713,220.51 178.021,220.51 178.293,220.52"
   id="path2571"
   style="fill:none;stroke:#ffffff;stroke-width:3" />
		<path
   d="M 178.123,253.98 C 177.941,253.98 177.763,253.98 177.583,253.968"
   id="path2573"
   style="fill:none;stroke:#ffffff;stroke-width:3" />
		<path
   d="M 177.362,278 C 175.552,277.99 171.812,277.88 167.794,277.62 C 164.814,277.43 161.644,277.21 159.144,276.93 C 158.304,276.83 157.544,276.731 156.884,276.62 C 154.234,276.18 162.544,255.84 168.264,253.88 C 169.684,253.391 174.285,254.141 177.364,254.192"
   id="path2575"
   style="fill:none;stroke:#ffffff;stroke-width:3" />
		<path
   d="M 119.012,201 C 113.162,200.96 95.012,200.92 92.512,200.25 C 92.512,200.25 93.272,184.55 93.762,180 C 94.382,174.25 96.012,161.25 98.012,155.25 C 98.452,153.92 116.382,153.93 121.012,154"
   id="path2577"
   style="fill:none;stroke:#ffffff;stroke-width:3" />
		<path
   d="M 119.012,201 C 124.512,200.939 139.662,200.08 139.932,199.58 C 142.582,194.66 152.642,178.75 153.882,176.78 C 153.972,176.65 154.012,176.58 154.012,176.58 L 142.142,156.62 C 142.142,156.62 125.542,154.03 121.012,154"
   id="path2579"
   style="fill:none;stroke:#ffffff;stroke-width:3" />
		<path
   d="M 123.272,153.95 C 119.092,153.9 114.373,153.55 111.762,153.62 C 107.262,153.75 99.202,154.97 98.642,154 C 97.812,152.59 107.002,126.23 109.982,120.1 C 109.993,120.09 110.003,120.07 110.003,120.06 C 110.103,119.86 110.192,119.69 110.273,119.54 C 110.323,119.45 110.374,119.36 110.403,119.29 C 110.443,119.24 110.464,119.2 110.494,119.16 C 111.464,117.66 123.233,115.26 126.764,115.33"
   id="path2581"
   style="fill:none;stroke:#ffffff;stroke-width:3" />
		<path
   d="M 123.272,153.95 C 123.283,153.95 123.293,153.95 123.302,153.95 C 125.112,154.13 135.382,155.25 135.382,155.25 C 135.382,155.25 138.762,155.88 142.182,156.33 L 155.512,132.25 L 154.352,130.34 L 154.332,130.3 L 147.742,119.5 L 146.762,117.88 C 146.762,117.88 130.762,114.17 126.762,115.33"
   id="path2583"
   style="fill:none;stroke:#ffffff;stroke-width:3" />
		<path
   d="M 125.342,252.58 C 123.762,253.33 120.592,255.08 116.762,255 C 116.472,254.99 116.132,254.84 115.772,254.57 C 114.123,253.359 111.913,249.888 110.602,247.689 C 110.022,246.73 109.623,246.008 109.512,245.83 C 108.542,244.23 105.232,239.609 101.792,233.34 C 101.702,233.16 101.602,232.99 101.512,232.811 C 99.072,228.311 96.602,223.01 94.882,217.372 C 94.772,217.061 94.682,216.742 94.602,216.422 C 94.012,214.422 93.533,212.382 93.182,210.321 C 93.172,210.292 93.162,210.26 93.162,210.22 C 92.752,207.79 92.521,205.321 92.542,202.87 C 92.542,202.3 92.562,201.74 92.592,201.17 C 92.622,200.72 113.772,201.09 119.182,201.17"
   id="path2585"
   style="fill:none;stroke:#ffffff;stroke-width:3" />
		<path
   d="M 125.342,252.58 C 126.772,252.03 126.192,252.15 146.432,243.67 L 158.762,221.08 L 139.592,200.17 C 139.592,200.17 124.472,201.2 119.182,201.17"
   id="path2587"
   style="fill:none;stroke:#ffffff;stroke-width:3" />
		<path
   d="M 244.342,119.3 C 239.702,110.56 234.172,103.62 227.802,99.83 C 222.162,96.48 197.172,94.24 182.192,94.09 C 180.432,94.07 178.812,94.08 177.382,94.12"
   id="path2589"
   style="fill:none;stroke:#ffffff;stroke-width:3" />
		<path
   d="M 261.583,210.22 C 261.623,209.942 261.663,209.66 261.691,209.391 C 261.931,207.38 262.101,205.202 262.203,202.87 C 263.133,180.109 257.093,143.77 244.743,120.06"
   id="path2591"
   style="fill:none;stroke:#ffffff;stroke-width:3" />
		<path
   d="M 260.142,216.42 C 260.802,214.26 261.283,212.21 261.562,210.32"
   id="path2593"
   style="fill:none;stroke:#ffffff;stroke-width:3" />
		<path
   d="M 253.232,232.811 C 256.052,227.442 258.342,222.141 259.862,217.372"
   id="path2595"
   style="fill:none;stroke:#ffffff;stroke-width:3" />
		<path
   d="M 177.972,278.08 C 183.772,277.99 189.522,277.641 194.962,277.04 C 204.762,275.95 213.542,274.029 219.752,271.32 C 225.86,268.65 232.65,262.38 238.972,254.57 C 240.743,252.38 242.482,250.07 244.142,247.689 C 247.382,243.08 250.372,238.178 252.954,233.338"
   id="path2597"
   style="fill:none;stroke:#ffffff;stroke-width:3" />
		<path
   d="M 207.042,119.42 C 207.312,118.78 207.512,118.22 207.61,117.75 C 208.82,111.85 203.881,98.4 194.98,95.35 C 193.36,94.79 187.23,94.29 182.19,94.09 C 180.53,94.03 178.98,94 177.76,94.01 C 177.65,94.01 177.54,94.01 177.43,94.01"
   id="path2599"
   style="fill:none;stroke:#ffffff;stroke-width:3" />
		<path
   d="M 200.413,130.3 C 202.101,127.9 205.601,122.75 207.032,119.43"
   id="path2601"
   style="fill:none;stroke:#ffffff;stroke-width:3" />
		<path
   d="M 177.632,131.24 C 183.32,131.2 199.482,131.62 199.482,131.62 C 199.482,131.62 199.834,131.14 200.392,130.34"
   id="path2603"
   style="fill:none;stroke:#ffffff;stroke-width:3" />
		<path
   d="M 199.232,132.25 C 199.232,132.25 183.294,131.68 177.503,131.74 C 177.413,131.74 177.321,131.74 177.243,131.74"
   id="path2605"
   style="fill:none;stroke:#ffffff;stroke-width:3" />
		<path
   d="M 177.462,174.84 C 184.052,174.79 200.61,176.12 200.61,176.12 L 212.56,156.33"
   id="path2607"
   style="fill:none;stroke:#ffffff;stroke-width:3" />
		<path
   d="M 176.623,253.98 C 176.803,253.98 176.981,253.98 177.163,253.968 C 177.303,253.968 177.441,253.968 177.583,253.968 C 179.173,253.939 180.743,253.888 182.231,253.788 C 185.221,253.588 187.891,253.258 189.793,252.778 C 195.183,251.438 208.313,243.668 208.313,243.668 L 195.653,220.748 C 195.653,220.748 182.563,220.488 177.375,220.508 C 177.034,220.508 176.725,220.508 176.455,220.519"
   id="path2609"
   style="fill:none;stroke:#ffffff;stroke-width:3" />
		<path
   d="M 177.362,278 C 177.374,278 177.374,278 177.383,278 C 179.193,277.99 182.933,277.88 186.953,277.62 C 189.682,277.45 192.571,277.25 194.963,277 C 196.053,276.88 197.043,276.76 197.861,276.62 C 200.511,276.18 192.203,255.84 186.481,253.88 C 185.731,253.62 184.071,253.71 182.231,253.85 C 180.601,253.992 178.821,254.162 177.381,254.192 C 177.371,254.192 177.371,254.192 177.36,254.192"
   id="path2611"
   style="fill:none;stroke:#ffffff;stroke-width:3" />
		<path
   d="M 235.732,201 C 235.682,201 235.624,201 235.562,201 C 229.932,200.92 215.083,200.08 214.812,199.58 C 211.982,194.33 200.732,176.58 200.732,176.58 L 212.612,156.62 C 212.612,156.62 228.182,154.19 233.272,154.01 C 233.432,154 233.592,154 233.732,154"
   id="path2613"
   style="fill:none;stroke:#ffffff;stroke-width:3" />
		<path
   d="M 231.472,153.95 C 232.062,153.94 232.662,153.93 233.272,153.91 C 236.942,153.81 240.744,153.56 242.982,153.62 C 247.482,153.75 255.544,154.97 256.112,154 C 256.932,152.59 247.704,126.1 244.744,120.06 C 244.594,119.75 244.454,119.5 244.344,119.3 C 244.314,119.25 244.283,119.2 244.254,119.16 C 243.283,117.66 231.514,115.26 227.983,115.33"
   id="path2615"
   style="fill:none;stroke:#ffffff;stroke-width:3" />
		<path
   d="M 231.472,153.95 C 231.462,153.95 231.452,153.95 231.442,153.95 C 229.632,154.13 219.362,155.25 219.362,155.25 C 219.362,155.25 215.982,155.88 212.562,156.33 L 199.232,132.25 L 200.392,130.34 L 200.413,130.3 L 207.032,119.43 L 207.043,119.42 L 207.981,117.88 C 207.981,117.88 223.981,114.17 227.981,115.33"
   id="path2617"
   style="fill:none;stroke:#ffffff;stroke-width:3" />
		<path
   d="M 229.402,252.58 C 230.982,253.33 234.152,255.08 237.982,255 C 238.272,254.99 238.612,254.84 238.972,254.57 C 240.622,253.359 242.832,249.888 244.142,247.689 C 244.722,246.73 245.122,246.008 245.232,245.83 C 246.204,244.23 249.512,239.609 252.954,233.34 C 253.044,233.16 253.142,232.99 253.232,232.811 C 255.672,228.311 258.142,223.01 259.862,217.372 C 259.972,217.061 260.062,216.742 260.142,216.422 C 260.732,214.422 261.212,212.382 261.562,210.321 C 261.572,210.292 261.583,210.26 261.583,210.22 C 261.993,207.79 262.223,205.321 262.203,202.87 C 262.203,202.3 262.182,201.74 262.151,201.17 C 262.123,200.72 240.971,201.09 235.561,201.17"
   id="path2619"
   style="fill:none;stroke:#ffffff;stroke-width:3" />
		<path
   d="M 229.402,252.58 C 227.972,252.03 228.552,252.15 208.312,243.67 L 195.982,221.08 L 215.152,200.17 C 215.152,200.17 230.272,201.2 235.562,201.17"
   id="path2621"
   style="fill:none;stroke:#ffffff;stroke-width:3" />
	</g>
</g>
</svg>