<?xml version="1.0" encoding="utf-8"?>
<!-- Generator: Adobe Illustrator 13.0.2, SVG Export Plug-In . SVG Version: 6.00 Build 14948)  -->
<!DOCTYPE svg PUBLIC "-//W3C//DTD SVG 1.1//EN" "http://www.w3.org/Graphics/SVG/1.1/DTD/svg11.dtd">
<svg version="1.1" id="Layer_2" xmlns="http://www.w3.org/2000/svg" xmlns:xlink="http://www.w3.org/1999/xlink" x="0px" y="0px"
	 width="10.043px" height="15.184px" viewBox="0 0 10.043 15.184" enable-background="new 0 0 10.043 15.184" xml:space="preserve">
<g>
	<linearGradient id="SVGID_1_" gradientUnits="userSpaceOnUse" x1="5.021" y1="0" x2="5.021" y2="15.1841">
		<stop  offset="0" style="stop-color:#FF0000"/>
		<stop  offset="0.0365" style="stop-color:#FD2604"/>
		<stop  offset="0.0851" style="stop-color:#FB5009"/>
		<stop  offset="0.1344" style="stop-color:#F9740D"/>
		<stop  offset="0.1839" style="stop-color:#F79010"/>
		<stop  offset="0.2336" style="stop-color:#F6A312"/>
		<stop  offset="0.2838" style="stop-color:#F5AF14"/>
		<stop  offset="0.3352" style="stop-color:#F5B314"/>
		<stop  offset="0.5206" style="stop-color:#F8850F"/>
		<stop  offset="0.94" style="stop-color:#FE1102"/>
		<stop  offset="1" style="stop-color:#FF0000"/>
	</linearGradient>
	<path fill="url(#SVGID_1_)" d="M0.556,13.832c-0.232-0.263-0.372-0.549-0.418-0.858s-0.011-0.592,0.104-0.848
		c0.116-0.255,0.305-0.464,0.568-0.626c0.263-0.163,0.581-0.229,0.952-0.197c0.201,0.031,0.398,0.104,0.592,0.22
		c0.193,0.116,0.375,0.221,0.545,0.313c0.232,0.124,0.499,0.229,0.8,0.313s0.584,0.112,0.847,0.081
		c0.34-0.03,0.657-0.093,0.951-0.186s0.573-0.255,0.835-0.487c0.31-0.294,0.519-0.618,0.627-0.975c0.216-0.604,0.216-1.098,0-1.485
		C6.744,8.712,6.427,8.425,6.01,8.24C5.591,8.054,5.119,7.95,4.594,7.926C4.067,7.903,3.588,7.954,3.155,8.077
		C3.108,8.124,3.062,8.17,3.016,8.216S2.923,8.302,2.876,8.333C2.691,8.518,2.482,8.634,2.25,8.681
		C2.018,8.727,1.793,8.723,1.577,8.669C1.36,8.614,1.163,8.506,0.985,8.344C0.807,8.182,0.68,7.977,0.603,7.729
		C0.494,7.42,0.444,7.091,0.452,6.743C0.459,6.395,0.455,6.066,0.44,5.757C0.424,5.525,0.417,5.289,0.417,5.049
		S0.409,4.566,0.394,4.318c0-0.046,0-0.151,0-0.313S0.39,3.672,0.382,3.495S0.366,3.143,0.359,2.972
		c-0.008-0.17-0.012-0.293-0.012-0.371c-0.139-0.154-0.236-0.333-0.29-0.534s-0.07-0.402-0.046-0.604
		c0.023-0.201,0.085-0.39,0.186-0.568C0.297,0.718,0.44,0.567,0.625,0.443c0.263-0.186,0.561-0.278,0.894-0.278
		c0.333,0,0.653,0,0.963,0c0.186,0,0.479-0.003,0.882-0.012C3.766,0.146,4.18,0.138,4.605,0.13s0.82-0.015,1.184-0.023
		c0.364-0.007,0.592-0.012,0.685-0.012C6.875,0.08,7.208,0.053,7.471,0.014c0.264-0.039,0.55,0.004,0.859,0.127
		c0.278,0.093,0.499,0.248,0.661,0.464c0.162,0.217,0.259,0.453,0.29,0.708c0.03,0.255,0,0.507-0.093,0.754S8.925,2.524,8.678,2.694
		c-0.325,0.232-0.7,0.348-1.125,0.348c-0.426,0-0.816,0-1.172,0c-0.526,0.016-1.049,0.02-1.567,0.012
		C4.295,3.046,3.773,3.05,3.248,3.065c0,0.341,0.004,0.677,0.012,1.01s0.019,0.669,0.035,1.009c0.372-0.077,0.75-0.124,1.137-0.139
		s0.766,0.008,1.137,0.069c0.417,0.078,0.812,0.194,1.184,0.348c0.371,0.155,0.742,0.348,1.113,0.58
		C8.314,6.221,8.693,6.577,9.003,7.01C9.312,7.443,9.56,7.907,9.745,8.402c0.232,0.618,0.328,1.226,0.29,1.821
		c-0.039,0.596-0.182,1.16-0.429,1.693c-0.248,0.534-0.585,1.021-1.01,1.462C8.171,13.82,7.695,14.184,7.17,14.47
		c-0.526,0.286-1.087,0.491-1.683,0.615c-0.596,0.123-1.195,0.131-1.798,0.023c-1.067-0.187-2.081-0.58-3.04-1.184L0.556,13.832z"/>
</g>
</svg>
