<?xml version="1.0" encoding="utf-8"?>
<!-- Generator: Adobe Illustrator 13.0.2, SVG Export Plug-In . SVG Version: 6.00 Build 14948)  -->
<!DOCTYPE svg PUBLIC "-//W3C//DTD SVG 1.1//EN" "http://www.w3.org/Graphics/SVG/1.1/DTD/svg11.dtd">
<svg version="1.1" id="Layer_2" xmlns="http://www.w3.org/2000/svg" xmlns:xlink="http://www.w3.org/1999/xlink" x="0px" y="0px"
	 width="10.2px" height="15.421px" viewBox="0 0 10.2 15.421" enable-background="new 0 0 10.2 15.421" xml:space="preserve">
<g>
	<linearGradient id="SVGID_1_" gradientUnits="userSpaceOnUse" x1="5.0996" y1="0" x2="5.0996" y2="15.4219">
		<stop  offset="0" style="stop-color:#FF0000"/>
		<stop  offset="0.0365" style="stop-color:#FD2604"/>
		<stop  offset="0.0851" style="stop-color:#FB5009"/>
		<stop  offset="0.1344" style="stop-color:#F9740D"/>
		<stop  offset="0.1839" style="stop-color:#F79010"/>
		<stop  offset="0.2336" style="stop-color:#F6A312"/>
		<stop  offset="0.2838" style="stop-color:#F5AF14"/>
		<stop  offset="0.3352" style="stop-color:#F5B314"/>
		<stop  offset="0.5206" style="stop-color:#F8850F"/>
		<stop  offset="0.94" style="stop-color:#FE1102"/>
		<stop  offset="1" style="stop-color:#FF0000"/>
	</linearGradient>
	<path fill="url(#SVGID_1_)" d="M6.646,2.47C6.027,3.026,5.481,3.626,5.01,4.268C4.538,4.91,4.101,5.595,3.699,6.321
		C4.008,6.198,4.325,6.105,4.65,6.043c0.325-0.062,0.665-0.085,1.021-0.069c0.496,0.031,0.944,0.101,1.346,0.208
		c0.402,0.108,0.827,0.279,1.276,0.511c0.588,0.325,1.032,0.77,1.334,1.334c0.302,0.565,0.483,1.172,0.546,1.821
		c0.062,0.65,0.015,1.3-0.14,1.949c-0.155,0.649-0.387,1.223-0.696,1.718c-0.418,0.665-0.99,1.145-1.717,1.438
		c-0.728,0.293-1.462,0.448-2.205,0.464c-0.773,0.03-1.523-0.116-2.25-0.441C2.33,14.621,1.641,14.048,1.1,13.259
		c-0.572-0.819-0.917-1.689-1.033-2.61c-0.116-0.92-0.081-1.836,0.104-2.75C0.357,6.987,0.667,6.093,1.1,5.219
		c0.433-0.874,0.92-1.682,1.462-2.425c0.31-0.433,0.653-0.878,1.033-1.334c0.379-0.456,0.792-0.839,1.241-1.148
		c0.372-0.263,0.735-0.359,1.091-0.29c0.355,0.07,0.642,0.232,0.858,0.487s0.329,0.565,0.337,0.928
		C7.129,1.801,6.97,2.145,6.646,2.47z M3.049,10.243c-0.031,0.062-0.093,0.14-0.186,0.232c0.015,0.046,0.039,0.116,0.069,0.209
		c0.031,0.093,0.062,0.178,0.093,0.255c0.031,0.077,0.05,0.132,0.058,0.162c0.008,0.031-0.011,0.008-0.058-0.069
		c0.093,0.201,0.232,0.398,0.417,0.592s0.363,0.352,0.534,0.476c0.124,0.093,0.259,0.178,0.406,0.255
		c0.146,0.078,0.305,0.132,0.476,0.163c0.309,0.046,0.619,0.054,0.928,0.023c0.309-0.031,0.603-0.147,0.882-0.349
		c0.216-0.139,0.383-0.344,0.498-0.615c0.116-0.271,0.182-0.557,0.197-0.858S7.342,10.124,7.25,9.836
		C7.157,9.55,7.009,9.331,6.808,9.175C6.591,9.006,6.356,8.897,6.1,8.851C5.845,8.804,5.586,8.797,5.323,8.828
		c-0.417,0.046-0.781,0.17-1.09,0.371C4,9.323,3.788,9.477,3.594,9.663C3.4,9.848,3.219,10.042,3.049,10.243z"/>
</g>
</svg>
