<?xml version="1.0" encoding="utf-8"?>
<!-- Generator: Adobe Illustrator 13.0.2, SVG Export Plug-In . SVG Version: 6.00 Build 14948)  -->
<!DOCTYPE svg PUBLIC "-//W3C//DTD SVG 1.1//EN" "http://www.w3.org/Graphics/SVG/1.1/DTD/svg11.dtd">
<svg version="1.1" id="Layer_2" xmlns="http://www.w3.org/2000/svg" xmlns:xlink="http://www.w3.org/1999/xlink" x="0px" y="0px"
	 width="10.546px" height="15.747px" viewBox="0 0 10.546 15.747" enable-background="new 0 0 10.546 15.747" xml:space="preserve">
<g>
	<linearGradient id="SVGID_1_" gradientUnits="userSpaceOnUse" x1="5.2729" y1="0" x2="5.2729" y2="15.7476">
		<stop  offset="0" style="stop-color:#FF0000"/>
		<stop  offset="0.0365" style="stop-color:#FD2604"/>
		<stop  offset="0.0851" style="stop-color:#FB5009"/>
		<stop  offset="0.1344" style="stop-color:#F9740D"/>
		<stop  offset="0.1839" style="stop-color:#F79010"/>
		<stop  offset="0.2336" style="stop-color:#F6A312"/>
		<stop  offset="0.2838" style="stop-color:#F5AF14"/>
		<stop  offset="0.3352" style="stop-color:#F5B314"/>
		<stop  offset="0.5206" style="stop-color:#F8850F"/>
		<stop  offset="0.94" style="stop-color:#FE1102"/>
		<stop  offset="1" style="stop-color:#FF0000"/>
	</linearGradient>
	<path fill="url(#SVGID_1_)" d="M4.174,15.629c-0.278,0.123-0.545,0.15-0.8,0.081c-0.255-0.07-0.476-0.197-0.662-0.383
		s-0.317-0.41-0.395-0.673c-0.078-0.264-0.069-0.526,0.023-0.789c0.077-0.186,0.186-0.345,0.325-0.476
		c0.139-0.132,0.29-0.244,0.453-0.337s0.329-0.182,0.499-0.267c0.17-0.085,0.333-0.182,0.487-0.29
		c0.51-0.355,0.99-0.762,1.438-1.219c0.449-0.456,0.828-0.955,1.138-1.496C6.216,9.874,5.733,9.928,5.23,9.943
		C4.728,9.959,4.232,9.917,3.745,9.815C3.258,9.715,2.801,9.549,2.376,9.316C1.95,9.085,1.576,8.775,1.25,8.389
		C1.019,8.11,0.813,7.824,0.636,7.53C0.458,7.237,0.314,6.919,0.207,6.579c-0.201-0.65-0.255-1.315-0.163-1.996
		s0.305-1.315,0.638-1.903C1.015,2.093,1.444,1.579,1.97,1.138c0.525-0.441,1.114-0.746,1.763-0.917
		C4.306,0.082,4.882,0.008,5.462,0s1.141,0.07,1.683,0.232c0.541,0.163,1.04,0.414,1.496,0.754s0.84,0.789,1.149,1.346
		c0.2,0.34,0.355,0.712,0.464,1.114c0.107,0.402,0.186,0.809,0.231,1.218c0.047,0.41,0.066,0.82,0.059,1.23
		c-0.008,0.41-0.035,0.809-0.081,1.195c-0.108,1.021-0.337,1.949-0.685,2.785c-0.349,0.835-0.793,1.601-1.335,2.297
		c-0.541,0.696-1.168,1.327-1.879,1.892c-0.712,0.564-1.5,1.086-2.367,1.566H4.174z M3.246,6.394
		c0.449,0.402,0.92,0.642,1.416,0.719C5.157,7.19,5.698,7.144,6.286,6.974C6.41,6.942,6.557,6.885,6.727,6.799
		c0.17-0.085,0.333-0.174,0.487-0.267S7.5,6.362,7.609,6.3c0.108-0.062,0.146-0.084,0.116-0.069c0,0.031-0.004-0.008-0.012-0.116
		c-0.008-0.108-0.02-0.244-0.035-0.406C7.663,5.546,7.647,5.38,7.632,5.21C7.617,5.04,7.601,4.908,7.585,4.815
		C7.554,4.599,7.512,4.39,7.458,4.189C7.404,3.988,7.323,3.802,7.214,3.632C6.952,3.214,6.63,2.94,6.251,2.808
		c-0.379-0.131-0.766-0.154-1.16-0.069S4.321,2.99,3.966,3.237C3.609,3.485,3.328,3.783,3.119,4.131S2.801,4.85,2.794,5.245
		C2.786,5.639,2.937,6.022,3.246,6.394z"/>
</g>
</svg>
