<?xml version="1.0" encoding="utf-8"?>
<!-- Generator: Adobe Illustrator 12.0.0, SVG Export Plug-In . SVG Version: 6.00 Build 51448)  -->
<!DOCTYPE svg PUBLIC "-//W3C//DTD SVG 1.1//EN" "http://www.w3.org/Graphics/SVG/1.1/DTD/svg11.dtd" [
	<!ENTITY ns_svg "http://www.w3.org/2000/svg">
	<!ENTITY ns_xlink "http://www.w3.org/1999/xlink">
]>
<svg  version="1.1" id="Layer_1" xmlns="&ns_svg;" xmlns:xlink="&ns_xlink;" width="25" height="25" viewBox="0 0 25 25"
	 overflow="visible" enable-background="new 0 0 25 25" xml:space="preserve">
<path fill="#FFFFFF" stroke="#FFFFFF" stroke-width="0.25" d="M5.939,21.34L5.939,21.34z"/>
<g>
	<path fill="#80CB88" d="M12.157,15.746c4.926,0,9.624,0.607,13.929,1.699L12.094,1.692l-14.008,15.79
		C2.432,16.366,7.179,15.746,12.157,15.746z"/>
	<path d="M12.157,16.246c4.756,0,9.4,0.566,13.806,1.684l0.497-0.816L12.468,1.36H11.72l-14.008,15.79l0.498,0.816
		C2.657,16.824,7.35,16.246,12.157,16.246z M-1.54,17.813l14.008-15.79H11.72l13.992,15.753l0.497-0.816
		c-4.485-1.138-9.214-1.715-14.052-1.715c-4.892,0-9.667,0.589-14.196,1.751L-1.54,17.813z"/>
</g>
</svg>
