<?xml version="1.0" encoding="utf-8"?>
<!-- Generator: Adobe Illustrator 13.0.2, SVG Export Plug-In . SVG Version: 6.00 Build 14948)  -->
<!DOCTYPE svg PUBLIC "-//W3C//DTD SVG 1.1//EN" "http://www.w3.org/Graphics/SVG/1.1/DTD/svg11.dtd">
<svg version="1.1" id="Layer_2" xmlns="http://www.w3.org/2000/svg" xmlns:xlink="http://www.w3.org/1999/xlink" x="0px" y="0px"
	 width="22.199px" height="20.808px" viewBox="0 0 22.199 20.808" enable-background="new 0 0 22.199 20.808" xml:space="preserve">
<g>
	<ellipse fill="#FFFFFF" cx="11.1" cy="19.265" rx="11.1" ry="1.543"/>
	<ellipse fill="#FEFEFE" cx="11.099" cy="19.265" rx="11.052" ry="1.537"/>
	<ellipse fill="#FCFDFD" cx="11.1" cy="19.265" rx="11.005" ry="1.529"/>
	<ellipse fill="#FBFCFC" cx="11.099" cy="19.265" rx="10.958" ry="1.521"/>
	<ellipse fill="#FAFAFB" cx="11.1" cy="19.265" rx="10.91" ry="1.516"/>
	<ellipse fill="#F9F9FA" cx="11.099" cy="19.265" rx="10.864" ry="1.508"/>
	<ellipse fill="#F7F8F9" cx="11.1" cy="19.265" rx="10.816" ry="1.5"/>
	<ellipse fill="#F6F7F8" cx="11.1" cy="19.265" rx="10.769" ry="1.494"/>
	<ellipse fill="#F5F6F7" cx="11.1" cy="19.265" rx="10.721" ry="1.486"/>
	<ellipse fill="#F3F5F6" cx="11.099" cy="19.265" rx="10.674" ry="1.479"/>
	<ellipse fill="#F2F3F5" cx="11.1" cy="19.265" rx="10.627" ry="1.473"/>
	<ellipse fill="#F1F2F4" cx="11.1" cy="19.265" rx="10.58" ry="1.465"/>
	<ellipse fill="#F0F1F3" cx="11.1" cy="19.265" rx="10.532" ry="1.459"/>
	<ellipse fill="#EEF0F2" cx="11.1" cy="19.265" rx="10.485" ry="1.451"/>
	<ellipse fill="#EDEFF1" cx="11.1" cy="19.265" rx="10.438" ry="1.443"/>
	<ellipse fill="#ECEEF1" cx="11.1" cy="19.265" rx="10.39" ry="1.438"/>
	<ellipse fill="#EBECF0" cx="11.099" cy="19.265" rx="10.343" ry="1.43"/>
	<ellipse fill="#E9EBEF" cx="11.099" cy="19.265" rx="10.296" ry="1.422"/>
	<ellipse fill="#E8EAEE" cx="11.1" cy="19.265" rx="10.249" ry="1.416"/>
	<ellipse fill="#E7E9ED" cx="11.1" cy="19.265" rx="10.201" ry="1.408"/>
	<ellipse fill="#E5E8EC" cx="11.1" cy="19.265" rx="10.154" ry="1.4"/>
	<ellipse fill="#E4E7EB" cx="11.099" cy="19.265" rx="10.107" ry="1.395"/>
	<ellipse fill="#E3E6EA" cx="11.1" cy="19.265" rx="10.059" ry="1.387"/>
	<ellipse fill="#E2E4E9" cx="11.1" cy="19.265" rx="10.012" ry="1.381"/>
	<ellipse fill="#E0E3E8" cx="11.1" cy="19.265" rx="9.965" ry="1.373"/>
	<ellipse fill="#DFE2E7" cx="11.099" cy="19.265" rx="9.917" ry="1.365"/>
	<ellipse fill="#DEE1E6" cx="11.099" cy="19.265" rx="9.87" ry="1.357"/>
	<ellipse fill="#DCE0E5" cx="11.1" cy="19.265" rx="9.823" ry="1.352"/>
	<ellipse fill="#DBDFE4" cx="11.099" cy="19.265" rx="9.776" ry="1.344"/>
	<ellipse fill="#DADDE3" cx="11.1" cy="19.265" rx="9.729" ry="1.336"/>
	<ellipse fill="#D9DCE2" cx="11.099" cy="19.265" rx="9.681" ry="1.33"/>
	<ellipse fill="#D7DBE1" cx="11.1" cy="19.265" rx="9.634" ry="1.324"/>
	<ellipse fill="#D6DAE0" cx="11.1" cy="19.265" rx="9.587" ry="1.316"/>
	<ellipse fill="#D5D9DF" cx="11.099" cy="19.265" rx="9.54" ry="1.309"/>
	<ellipse fill="#D4D8DE" cx="11.1" cy="19.265" rx="9.492" ry="1.301"/>
	<ellipse fill="#D2D7DD" cx="11.1" cy="19.265" rx="9.445" ry="1.295"/>
	<ellipse fill="#D1D5DC" cx="11.1" cy="19.265" rx="9.397" ry="1.287"/>
	<ellipse fill="#D0D4DB" cx="11.099" cy="19.265" rx="9.35" ry="1.279"/>
	<ellipse fill="#CED3DA" cx="11.1" cy="19.265" rx="9.303" ry="1.273"/>
	<ellipse fill="#CDD2D9" cx="11.1" cy="19.265" rx="9.256" ry="1.266"/>
	<ellipse fill="#CCD1D8" cx="11.099" cy="19.265" rx="9.208" ry="1.258"/>
	<ellipse fill="#CBD0D7" cx="11.1" cy="19.265" rx="9.161" ry="1.252"/>
	<ellipse fill="#C9CED6" cx="11.1" cy="19.265" rx="9.114" ry="1.244"/>
	<ellipse fill="#C8CDD5" cx="11.1" cy="19.265" rx="9.066" ry="1.238"/>
	<ellipse fill="#C7CCD4" cx="11.1" cy="19.265" rx="9.02" ry="1.23"/>
	<ellipse fill="#C5CBD4" cx="11.099" cy="19.265" rx="8.972" ry="1.223"/>
	<ellipse fill="#C4CAD3" cx="11.1" cy="19.265" rx="8.925" ry="1.217"/>
	<ellipse fill="#C3C9D2" cx="11.1" cy="19.265" rx="8.877" ry="1.209"/>
	<ellipse fill="#C2C7D1" cx="11.1" cy="19.265" rx="8.83" ry="1.201"/>
	<ellipse fill="#C0C6D0" cx="11.099" cy="19.265" rx="8.783" ry="1.193"/>
	<ellipse fill="#BFC5CF" cx="11.1" cy="19.265" rx="8.735" ry="1.188"/>
	<ellipse fill="#BEC4CE" cx="11.1" cy="19.265" rx="8.688" ry="1.18"/>
	<ellipse fill="#BCC3CD" cx="11.1" cy="19.265" rx="8.641" ry="1.174"/>
	<ellipse fill="#BBC2CC" cx="11.099" cy="19.265" rx="8.594" ry="1.166"/>
	<ellipse fill="#BAC1CB" cx="11.099" cy="19.265" rx="8.546" ry="1.16"/>
	<ellipse fill="#B9BFCA" cx="11.1" cy="19.265" rx="8.5" ry="1.152"/>
	<ellipse fill="#B7BEC9" cx="11.1" cy="19.265" rx="8.452" ry="1.145"/>
	<ellipse fill="#B6BDC8" cx="11.099" cy="19.265" rx="8.405" ry="1.137"/>
	<ellipse fill="#B5BCC7" cx="11.1" cy="19.265" rx="8.357" ry="1.131"/>
	<ellipse fill="#B4BBC6" cx="11.1" cy="19.265" rx="8.31" ry="1.123"/>
	<ellipse fill="#B2BAC5" cx="11.1" cy="19.265" rx="8.263" ry="1.117"/>
	<ellipse fill="#B1B8C4" cx="11.1" cy="19.265" rx="8.216" ry="1.109"/>
	<ellipse fill="#B0B7C3" cx="11.1" cy="19.265" rx="8.169" ry="1.102"/>
	<ellipse fill="#AEB6C2" cx="11.1" cy="19.265" rx="8.121" ry="1.096"/>
	<ellipse fill="#ADB5C1" cx="11.1" cy="19.265" rx="8.074" ry="1.088"/>
	<ellipse fill="#ACB4C0" cx="11.099" cy="19.265" rx="8.027" ry="1.08"/>
	<ellipse fill="#ABB3BF" cx="11.1" cy="19.265" rx="7.979" ry="1.074"/>
	<ellipse fill="#A9B2BE" cx="11.1" cy="19.265" rx="7.932" ry="1.066"/>
	<ellipse fill="#A8B0BD" cx="11.1" cy="19.265" rx="7.885" ry="1.059"/>
	<ellipse fill="#A7AFBC" cx="11.099" cy="19.265" rx="7.837" ry="1.053"/>
	<ellipse fill="#A5AEBB" cx="11.1" cy="19.265" rx="7.79" ry="1.045"/>
	<ellipse fill="#A4ADBA" cx="11.1" cy="19.265" rx="7.743" ry="1.039"/>
	<ellipse fill="#A3ACB9" cx="11.099" cy="19.265" rx="7.696" ry="1.031"/>
	<ellipse fill="#A2ABB8" cx="11.1" cy="19.265" rx="7.648" ry="1.023"/>
	<ellipse fill="#A0A9B7" cx="11.099" cy="19.265" rx="7.601" ry="1.018"/>
	<ellipse fill="#9FA8B7" cx="11.1" cy="19.265" rx="7.553" ry="1.01"/>
	<ellipse fill="#9EA7B6" cx="11.1" cy="19.265" rx="7.507" ry="1.002"/>
	<ellipse fill="#9CA6B5" cx="11.1" cy="19.265" rx="7.459" ry="0.996"/>
	<ellipse fill="#9BA5B4" cx="11.1" cy="19.265" rx="7.412" ry="0.988"/>
	<ellipse fill="#9AA4B3" cx="11.1" cy="19.265" rx="7.364" ry="0.98"/>
	<ellipse fill="#99A2B2" cx="11.1" cy="19.265" rx="7.317" ry="0.975"/>
	<ellipse fill="#97A1B1" cx="11.099" cy="19.265" rx="7.27" ry="0.967"/>
	<ellipse fill="#96A0B0" cx="11.1" cy="19.265" rx="7.223" ry="0.959"/>
	<ellipse fill="#959FAF" cx="11.1" cy="19.265" rx="7.176" ry="0.953"/>
	<ellipse fill="#949EAE" cx="11.1" cy="19.265" rx="7.128" ry="0.945"/>
	<ellipse fill="#929DAD" cx="11.1" cy="19.265" rx="7.081" ry="0.938"/>
	<ellipse fill="#919CAC" cx="11.1" cy="19.265" rx="7.033" ry="0.932"/>
	<ellipse fill="#909AAB" cx="11.1" cy="19.265" rx="6.986" ry="0.924"/>
	<ellipse fill="#8E99AA" cx="11.099" cy="19.265" rx="6.939" ry="0.918"/>
	<ellipse fill="#8D98A9" cx="11.1" cy="19.265" rx="6.892" ry="0.91"/>
	<ellipse fill="#8C97A8" cx="11.1" cy="19.265" rx="6.845" ry="0.902"/>
	<ellipse fill="#8B96A7" cx="11.1" cy="19.265" rx="6.797" ry="0.896"/>
	<ellipse fill="#8995A6" cx="11.1" cy="19.265" rx="6.75" ry="0.889"/>
	<ellipse fill="#8893A5" cx="11.1" cy="19.265" rx="6.703" ry="0.881"/>
	<ellipse fill="#8792A4" cx="11.1" cy="19.265" rx="6.655" ry="0.875"/>
	<ellipse fill="#8591A3" cx="11.1" cy="19.265" rx="6.608" ry="0.867"/>
	<ellipse fill="#8490A2" cx="11.1" cy="19.265" rx="6.561" ry="0.859"/>
	<ellipse fill="#838FA1" cx="11.1" cy="19.265" rx="6.514" ry="0.854"/>
	<ellipse fill="#828EA0" cx="11.099" cy="19.265" rx="6.466" ry="0.846"/>
	<ellipse fill="#808D9F" cx="11.1" cy="19.265" rx="6.419" ry="0.84"/>
	<ellipse fill="#7F8B9E" cx="11.1" cy="19.265" rx="6.372" ry="0.832"/>
	<ellipse fill="#7E8A9D" cx="11.099" cy="19.265" rx="6.324" ry="0.824"/>
	<ellipse fill="#7D899C" cx="11.1" cy="19.265" rx="6.277" ry="0.816"/>
	<ellipse fill="#7B889B" cx="11.099" cy="19.265" rx="6.23" ry="0.811"/>
	<ellipse fill="#7A879A" cx="11.1" cy="19.265" rx="6.183" ry="0.803"/>
	<ellipse fill="#79869A" cx="11.1" cy="19.265" rx="6.135" ry="0.797"/>
	<ellipse fill="#778499" cx="11.099" cy="19.265" rx="6.088" ry="0.789"/>
	<ellipse fill="#768398" cx="11.1" cy="19.265" rx="6.041" ry="0.781"/>
	<ellipse fill="#758297" cx="11.099" cy="19.265" rx="5.993" ry="0.775"/>
	<ellipse fill="#748196" cx="11.1" cy="19.265" rx="5.946" ry="0.768"/>
	<ellipse fill="#728095" cx="11.1" cy="19.265" rx="5.899" ry="0.76"/>
	<ellipse fill="#717F94" cx="11.1" cy="19.265" rx="5.852" ry="0.754"/>
	<ellipse fill="#707D93" cx="11.099" cy="19.265" rx="5.804" ry="0.746"/>
	<ellipse fill="#6E7C92" cx="11.1" cy="19.265" rx="5.757" ry="0.738"/>
	<ellipse fill="#6D7B91" cx="11.1" cy="19.265" rx="5.71" ry="0.732"/>
	<ellipse fill="#6C7A90" cx="11.1" cy="19.265" rx="5.663" ry="0.725"/>
	<ellipse fill="#6B798F" cx="11.1" cy="19.265" rx="5.615" ry="0.719"/>
	<ellipse fill="#69788E" cx="11.1" cy="19.265" rx="5.568" ry="0.711"/>
	<ellipse fill="#68778D" cx="11.1" cy="19.265" rx="5.521" ry="0.703"/>
	<ellipse fill="#67758C" cx="11.1" cy="19.265" rx="5.473" ry="0.695"/>
	<ellipse fill="#65748B" cx="11.1" cy="19.265" rx="5.426" ry="0.689"/>
	<ellipse fill="#64738A" cx="11.1" cy="19.265" rx="5.379" ry="0.682"/>
	<ellipse fill="#637289" cx="11.1" cy="19.265" rx="5.332" ry="0.676"/>
	<ellipse fill="#627188" cx="11.1" cy="19.265" rx="5.284" ry="0.668"/>
	<ellipse fill="#607087" cx="11.1" cy="19.265" rx="5.237" ry="0.66"/>
	<ellipse fill="#5F6E86" cx="11.1" cy="19.265" rx="5.19" ry="0.654"/>
	<ellipse fill="#5E6D85" cx="11.1" cy="19.265" rx="5.143" ry="0.646"/>
	<ellipse fill="#5D6C84" cx="11.1" cy="19.265" rx="5.095" ry="0.639"/>
	<ellipse fill="#5B6B83" cx="11.1" cy="19.265" rx="5.048" ry="0.633"/>
	<ellipse fill="#5A6A82" cx="11.1" cy="19.265" rx="5.001" ry="0.625"/>
	<ellipse fill="#596981" cx="11.1" cy="19.265" rx="4.953" ry="0.617"/>
	<ellipse fill="#576880" cx="11.1" cy="19.265" rx="4.906" ry="0.611"/>
	<ellipse fill="#56667F" cx="11.1" cy="19.265" rx="4.858" ry="0.604"/>
	<ellipse fill="#55657E" cx="11.1" cy="19.265" rx="4.812" ry="0.598"/>
	<ellipse fill="#54647D" cx="11.1" cy="19.265" rx="4.765" ry="0.59"/>
	<ellipse fill="#52637D" cx="11.1" cy="19.265" rx="4.717" ry="0.582"/>
	<ellipse fill="#51627C" cx="11.1" cy="19.265" rx="4.67" ry="0.576"/>
	<ellipse fill="#50617B" cx="11.1" cy="19.265" rx="4.622" ry="0.568"/>
	<ellipse fill="#4E5F7A" cx="11.1" cy="19.265" rx="4.575" ry="0.561"/>
	<ellipse fill="#4D5E79" cx="11.1" cy="19.265" rx="4.528" ry="0.555"/>
	<ellipse fill="#4C5D78" cx="11.1" cy="19.265" rx="4.48" ry="0.547"/>
	<ellipse fill="#4B5C77" cx="11.099" cy="19.265" rx="4.433" ry="0.539"/>
	<ellipse fill="#495B76" cx="11.1" cy="19.265" rx="4.386" ry="0.533"/>
	<ellipse fill="#485A75" cx="11.1" cy="19.265" rx="4.339" ry="0.525"/>
	<ellipse fill="#475874" cx="11.1" cy="19.265" rx="4.292" ry="0.518"/>
	<ellipse fill="#455773" cx="11.1" cy="19.265" rx="4.244" ry="0.512"/>
	<ellipse fill="#445672" cx="11.1" cy="19.265" rx="4.197" ry="0.504"/>
	<ellipse fill="#435571" cx="11.099" cy="19.265" rx="4.15" ry="0.496"/>
	<ellipse fill="#425470" cx="11.1" cy="19.265" rx="4.103" ry="0.49"/>
	<ellipse fill="#40536F" cx="11.099" cy="19.265" rx="4.055" ry="0.482"/>
	<ellipse fill="#3F526E" cx="11.1" cy="19.265" rx="4.008" ry="0.477"/>
	<ellipse fill="#3E506D" cx="11.1" cy="19.265" rx="3.961" ry="0.469"/>
	<ellipse fill="#3D4F6C" cx="11.099" cy="19.265" rx="3.913" ry="0.461"/>
	<ellipse fill="#3B4E6B" cx="11.1" cy="19.265" rx="3.866" ry="0.455"/>
	<ellipse fill="#3A4D6A" cx="11.099" cy="19.265" rx="3.819" ry="0.447"/>
	<ellipse fill="#394C69" cx="11.1" cy="19.265" rx="3.771" ry="0.439"/>
	<ellipse fill="#374B68" cx="11.099" cy="19.265" rx="3.724" ry="0.434"/>
	<ellipse fill="#364967" cx="11.099" cy="19.265" rx="3.677" ry="0.426"/>
	<ellipse fill="#354866" cx="11.1" cy="19.265" rx="3.63" ry="0.418"/>
	<ellipse fill="#344765" cx="11.099" cy="19.265" rx="3.582" ry="0.412"/>
	<ellipse fill="#324664" cx="11.1" cy="19.265" rx="3.535" ry="0.404"/>
	<ellipse fill="#314563" cx="11.099" cy="19.265" rx="3.488" ry="0.396"/>
	<ellipse fill="#304462" cx="11.1" cy="19.265" rx="3.44" ry="0.391"/>
	<ellipse fill="#2E4361" cx="11.099" cy="19.265" rx="3.393" ry="0.383"/>
	<ellipse fill="#2D4160" cx="11.1" cy="19.265" rx="3.346" ry="0.375"/>
	<ellipse fill="#2C4060" cx="11.1" cy="19.265" rx="3.299" ry="0.369"/>
	<ellipse fill="#2B3F5F" cx="11.1" cy="19.265" rx="3.252" ry="0.361"/>
	<ellipse fill="#293E5E" cx="11.1" cy="19.265" rx="3.204" ry="0.355"/>
	<ellipse fill="#283D5D" cx="11.1" cy="19.265" rx="3.157" ry="0.348"/>
	<ellipse fill="#273C5C" cx="11.1" cy="19.265" rx="3.109" ry="0.34"/>
	<ellipse fill="#263A5B" cx="11.099" cy="19.265" rx="3.062" ry="0.334"/>
	<ellipse fill="#24395A" cx="11.1" cy="19.265" rx="3.015" ry="0.326"/>
	<ellipse fill="#233859" cx="11.1" cy="19.265" rx="2.968" ry="0.318"/>
	<ellipse fill="#223758" cx="11.1" cy="19.265" rx="2.921" ry="0.313"/>
	<ellipse fill="#203657" cx="11.1" cy="19.265" rx="2.873" ry="0.305"/>
	<ellipse fill="#1F3556" cx="11.1" cy="19.265" rx="2.826" ry="0.297"/>
	<ellipse fill="#1E3355" cx="11.1" cy="19.265" rx="2.778" ry="0.291"/>
	<ellipse fill="#1D3254" cx="11.1" cy="19.265" rx="2.731" ry="0.283"/>
	<ellipse fill="#1B3153" cx="11.1" cy="19.265" rx="2.684" ry="0.275"/>
	<ellipse fill="#1A3052" cx="11.1" cy="19.265" rx="2.637" ry="0.27"/>
</g>
<g>
	<g>
		
			<linearGradient id="SVGID_1_" gradientUnits="userSpaceOnUse" x1="19.4199" y1="9.6611" x2="1.1968" y2="9.6611" gradientTransform="matrix(0.99 -0.141 0.141 0.99 -1.1995 1.9085)">
			<stop  offset="0" style="stop-color:#2947E2"/>
			<stop  offset="1" style="stop-color:#142668"/>
		</linearGradient>
		<path fill="url(#SVGID_1_)" d="M18.314,8.707c0.931,2.306,1.052,3.814,1.052,3.814c0.071,0.877-0.542,1.857-1.361,2.178
			l-9.606,3.748c-0.82,0.32-2.021,0.096-2.67-0.498c0,0-1.39-1.273-2.949-4.986C1.712,10.42,0.679,6.537,0.679,6.537
			C0.453,5.686,0.967,4.819,1.822,4.61l15.306-3.748c0.854-0.209,1.399,0.323,1.211,1.183C18.339,2.045,17.383,6.4,18.314,8.707z"/>
	</g>
	
		<linearGradient id="SVGID_2_" gradientUnits="userSpaceOnUse" x1="1.5098" y1="9.9805" x2="5.0664" y2="9.9805" gradientTransform="matrix(0.99 -0.141 0.141 0.99 -1.486 2.1128)">
		<stop  offset="0" style="stop-color:#29ABE2"/>
		<stop  offset="1" style="stop-color:#2E3192"/>
	</linearGradient>
	<path fill="url(#SVGID_2_)" d="M3.941,13.849c-1.79-4.548-2.67-8.817-2.67-8.817C1.257,4.983,1.255,4.933,1.247,4.884
		C0.755,5.256,0.51,5.901,0.679,6.537c0,0,1.033,3.883,2.101,6.426c1.559,3.713,2.949,4.986,2.949,4.986
		c0.048,0.045,0.119,0.072,0.173,0.113C5.339,17.125,4.685,15.74,3.941,13.849z"/>
	
		<linearGradient id="SVGID_3_" gradientUnits="userSpaceOnUse" x1="32.3467" y1="54.5239" x2="31.8211" y2="39.1286" gradientTransform="matrix(0.8801 -0.3284 -0.7789 -0.8456 18.9144 58.2681)">
		<stop  offset="0" style="stop-color:#7CC0FC"/>
		<stop  offset="0.3563" style="stop-color:#80C6FE"/>
		<stop  offset="1" style="stop-color:#83CAFF"/>
	</linearGradient>
	<path fill="url(#SVGID_3_)" d="M17.229,14.259c0,0-2.319,1.005-5.553,2.045c-3.238,1.045-6.289,1.288-6.289,1.288
		s0.117-1.059-0.71-5.435C3.301,4.874,1.555,2.651,1.555,2.651s3.474,0.417,8.351-0.306c6.017-0.896,5.868-0.914,8.097-1.337
		c0,0,1.223,4.137,0.236,8.492C16.923,15.314,17.229,14.259,17.229,14.259z"/>
	
		<linearGradient id="SVGID_4_" gradientUnits="userSpaceOnUse" x1="20.0859" y1="42.3247" x2="44.8315" y2="52.759" gradientTransform="matrix(0.8801 -0.3284 -0.7789 -0.8456 18.9144 58.2681)">
		<stop  offset="0" style="stop-color:#CDFFFC"/>
		<stop  offset="1" style="stop-color:#83CAFF"/>
	</linearGradient>
	<path fill="url(#SVGID_4_)" d="M18.239,13.251c0,0-3.328,2.013-6.563,3.053c-3.238,1.045-6.059,0.802-6.059,0.802
		s0.203-0.526-0.642-6.225c-1.089-7.352-2.41-9.238-2.41-9.238s3.473,0.418,8.351-0.306C16.933,0.441,16.784,0.423,19.014,0
		c0,0,1.223,4.137,0.236,8.492C17.933,14.305,18.239,13.251,18.239,13.251z"/>
	<g>
		
			<linearGradient id="SVGID_5_" gradientUnits="userSpaceOnUse" x1="4.4443" y1="16.2554" x2="22.1258" y2="5.2068" gradientTransform="matrix(0.99 -0.141 0.141 0.99 -1.1995 1.9085)">
			<stop  offset="0" style="stop-color:#29ABE2"/>
			<stop  offset="1" style="stop-color:#2E3192"/>
		</linearGradient>
		<path fill="url(#SVGID_5_)" d="M19.91,10.12c-0.189,3.395-0.189,3.395-0.189,3.395c0.173,0.199-0.353,0.633-1.167,0.965
			l-10.46,4.273c-0.815,0.332-1.75-0.064-2.079-0.881c0,0-0.317-0.787-0.425-4.51c-0.097-3.347,0.363-4.364,0.363-4.364
			c0.363-0.802,1.35-1.662,2.194-1.911l12.116-3.582c0.844-0.25,1.26,0.212,0.924,1.025C21.186,4.532,20.072,7.226,19.91,10.12z"/>
	</g>
	<path fill="#53D4FF" d="M6.119,13.876c0.093-3.416,0.628-4.495,0.628-4.495c0.391-0.789,1.395-1.658,2.231-1.931l11.97-3.912
		c0.031-0.01,0.06-0.012,0.09-0.021c-0.191-0.095-0.456-0.106-0.776-0.012L8.146,7.088c-0.844,0.25-1.831,1.109-2.194,1.911
		c0,0-0.46,1.017-0.363,4.364c0.108,3.723,0.425,4.512,0.425,4.512c0.056,0.137,0.133,0.258,0.221,0.371
		C6.162,17.796,6.043,16.615,6.119,13.876z"/>
</g>
</svg>
