<?xml version="1.0" encoding="utf-8"?>
<!-- Generator: Adobe Illustrator 13.0.2, SVG Export Plug-In . SVG Version: 6.00 Build 14948)  -->
<!DOCTYPE svg PUBLIC "-//W3C//DTD SVG 1.1//EN" "http://www.w3.org/Graphics/SVG/1.1/DTD/svg11.dtd">
<svg version="1.1" xmlns="http://www.w3.org/2000/svg" xmlns:xlink="http://www.w3.org/1999/xlink" x="0px" y="0px"
	 width="27.209px" height="21.505px" viewBox="0 0 27.209 21.505" enable-background="new 0 0 27.209 21.505" xml:space="preserve">
<g id="Layer_2">
	<g>
		<ellipse fill="#FFFFFF" cx="13.604" cy="19.614" rx="13.604" ry="1.892"/>
		<ellipse fill="#FEFEFE" cx="13.605" cy="19.614" rx="13.557" ry="1.885"/>
		<ellipse fill="#FDFDFD" cx="13.604" cy="19.614" rx="13.51" ry="1.877"/>
		<ellipse fill="#FCFCFD" cx="13.604" cy="19.614" rx="13.462" ry="1.87"/>
		<ellipse fill="#FBFBFC" cx="13.604" cy="19.614" rx="13.415" ry="1.863"/>
		<ellipse fill="#FAFAFB" cx="13.605" cy="19.614" rx="13.368" ry="1.856"/>
		<ellipse fill="#F9F9FA" cx="13.604" cy="19.614" rx="13.32" ry="1.849"/>
		<ellipse fill="#F8F8F9" cx="13.604" cy="19.614" rx="13.272" ry="1.842"/>
		<ellipse fill="#F7F7F9" cx="13.604" cy="19.614" rx="13.226" ry="1.835"/>
		<ellipse fill="#F6F6F8" cx="13.605" cy="19.614" rx="13.178" ry="1.827"/>
		<ellipse fill="#F5F6F7" cx="13.604" cy="19.614" rx="13.131" ry="1.82"/>
		<ellipse fill="#F3F5F6" cx="13.605" cy="19.614" rx="13.083" ry="1.813"/>
		<ellipse fill="#F2F4F6" cx="13.604" cy="19.614" rx="13.036" ry="1.806"/>
		<ellipse fill="#F1F3F5" cx="13.605" cy="19.614" rx="12.989" ry="1.799"/>
		<ellipse fill="#F0F2F4" cx="13.604" cy="19.614" rx="12.941" ry="1.792"/>
		<ellipse fill="#EFF1F3" cx="13.605" cy="19.614" rx="12.894" ry="1.785"/>
		<ellipse fill="#EEF0F2" cx="13.604" cy="19.614" rx="12.847" ry="1.777"/>
		<ellipse fill="#EDEFF2" cx="13.604" cy="19.614" rx="12.799" ry="1.771"/>
		<ellipse fill="#ECEEF1" cx="13.604" cy="19.614" rx="12.752" ry="1.764"/>
		<ellipse fill="#EBEDF0" cx="13.604" cy="19.614" rx="12.704" ry="1.756"/>
		<ellipse fill="#EAECEF" cx="13.604" cy="19.614" rx="12.657" ry="1.749"/>
		<ellipse fill="#E9EBEE" cx="13.604" cy="19.614" rx="12.61" ry="1.742"/>
		<ellipse fill="#E8EAEE" cx="13.604" cy="19.614" rx="12.562" ry="1.734"/>
		<ellipse fill="#E7E9ED" cx="13.605" cy="19.614" rx="12.515" ry="1.728"/>
		<ellipse fill="#E6E8EC" cx="13.604" cy="19.614" rx="12.468" ry="1.72"/>
		<ellipse fill="#E5E7EB" cx="13.605" cy="19.614" rx="12.421" ry="1.714"/>
		<ellipse fill="#E4E6EA" cx="13.604" cy="19.614" rx="12.373" ry="1.706"/>
		<ellipse fill="#E3E5EA" cx="13.604" cy="19.614" rx="12.325" ry="1.699"/>
		<ellipse fill="#E2E5E9" cx="13.604" cy="19.614" rx="12.278" ry="1.692"/>
		<ellipse fill="#E1E4E8" cx="13.605" cy="19.614" rx="12.231" ry="1.685"/>
		<ellipse fill="#E0E3E7" cx="13.605" cy="19.614" rx="12.183" ry="1.678"/>
		<ellipse fill="#DFE2E7" cx="13.605" cy="19.615" rx="12.136" ry="1.67"/>
		<ellipse fill="#DEE1E6" cx="13.604" cy="19.614" rx="12.089" ry="1.663"/>
		<ellipse fill="#DCE0E5" cx="13.604" cy="19.614" rx="12.041" ry="1.656"/>
		<ellipse fill="#DBDFE4" cx="13.605" cy="19.614" rx="11.994" ry="1.649"/>
		<ellipse fill="#DADEE3" cx="13.604" cy="19.614" rx="11.947" ry="1.642"/>
		<ellipse fill="#D9DDE3" cx="13.604" cy="19.614" rx="11.899" ry="1.635"/>
		<ellipse fill="#D8DCE2" cx="13.604" cy="19.614" rx="11.852" ry="1.628"/>
		<ellipse fill="#D7DBE1" cx="13.605" cy="19.614" rx="11.804" ry="1.621"/>
		<ellipse fill="#D6DAE0" cx="13.605" cy="19.614" rx="11.757" ry="1.614"/>
		<ellipse fill="#D5D9DF" cx="13.604" cy="19.614" rx="11.71" ry="1.606"/>
		<ellipse fill="#D4D8DF" cx="13.605" cy="19.614" rx="11.663" ry="1.599"/>
		<ellipse fill="#D3D7DE" cx="13.605" cy="19.614" rx="11.615" ry="1.592"/>
		<ellipse fill="#D2D6DD" cx="13.604" cy="19.614" rx="11.568" ry="1.585"/>
		<ellipse fill="#D1D5DC" cx="13.604" cy="19.614" rx="11.521" ry="1.578"/>
		<ellipse fill="#D0D4DB" cx="13.604" cy="19.614" rx="11.473" ry="1.571"/>
		<ellipse fill="#CFD4DB" cx="13.605" cy="19.614" rx="11.426" ry="1.563"/>
		<ellipse fill="#CED3DA" cx="13.604" cy="19.614" rx="11.378" ry="1.557"/>
		<ellipse fill="#CDD2D9" cx="13.604" cy="19.614" rx="11.331" ry="1.549"/>
		<ellipse fill="#CCD1D8" cx="13.604" cy="19.614" rx="11.283" ry="1.542"/>
		<ellipse fill="#CBD0D8" cx="13.605" cy="19.614" rx="11.236" ry="1.535"/>
		<ellipse fill="#CACFD7" cx="13.604" cy="19.614" rx="11.189" ry="1.527"/>
		<ellipse fill="#C9CED6" cx="13.604" cy="19.614" rx="11.142" ry="1.521"/>
		<ellipse fill="#C8CDD5" cx="13.605" cy="19.614" rx="11.094" ry="1.514"/>
		<ellipse fill="#C7CCD4" cx="13.604" cy="19.614" rx="11.047" ry="1.507"/>
		<ellipse fill="#C5CBD4" cx="13.605" cy="19.615" rx="11" ry="1.499"/>
		<ellipse fill="#C4CAD3" cx="13.604" cy="19.614" rx="10.952" ry="1.492"/>
		<ellipse fill="#C3C9D2" cx="13.604" cy="19.613" rx="10.905" ry="1.486"/>
		<ellipse fill="#C2C8D1" cx="13.604" cy="19.614" rx="10.857" ry="1.478"/>
		<ellipse fill="#C1C7D0" cx="13.604" cy="19.614" rx="10.81" ry="1.472"/>
		<ellipse fill="#C0C6D0" cx="13.604" cy="19.614" rx="10.763" ry="1.464"/>
		<ellipse fill="#BFC5CF" cx="13.604" cy="19.613" rx="10.715" ry="1.457"/>
		<ellipse fill="#BEC4CE" cx="13.604" cy="19.614" rx="10.668" ry="1.449"/>
		<ellipse fill="#BDC3CD" cx="13.604" cy="19.614" rx="10.62" ry="1.442"/>
		<ellipse fill="#BCC3CC" cx="13.604" cy="19.614" rx="10.573" ry="1.436"/>
		<ellipse fill="#BBC2CC" cx="13.604" cy="19.614" rx="10.526" ry="1.428"/>
		<ellipse fill="#BAC1CB" cx="13.604" cy="19.614" rx="10.478" ry="1.421"/>
		<ellipse fill="#B9C0CA" cx="13.605" cy="19.614" rx="10.431" ry="1.414"/>
		<ellipse fill="#B8BFC9" cx="13.604" cy="19.614" rx="10.384" ry="1.407"/>
		<ellipse fill="#B7BEC8" cx="13.604" cy="19.614" rx="10.336" ry="1.399"/>
		<ellipse fill="#B6BDC8" cx="13.604" cy="19.614" rx="10.289" ry="1.393"/>
		<ellipse fill="#B5BCC7" cx="13.605" cy="19.614" rx="10.242" ry="1.386"/>
		<ellipse fill="#B4BBC6" cx="13.604" cy="19.614" rx="10.194" ry="1.378"/>
		<ellipse fill="#B3BAC5" cx="13.604" cy="19.614" rx="10.147" ry="1.371"/>
		<ellipse fill="#B2B9C5" cx="13.604" cy="19.614" rx="10.1" ry="1.364"/>
		<ellipse fill="#B1B8C4" cx="13.604" cy="19.615" rx="10.052" ry="1.356"/>
		<ellipse fill="#B0B7C3" cx="13.604" cy="19.614" rx="10.005" ry="1.35"/>
		<ellipse fill="#AEB6C2" cx="13.604" cy="19.614" rx="9.957" ry="1.343"/>
		<ellipse fill="#ADB5C1" cx="13.604" cy="19.614" rx="9.91" ry="1.335"/>
		<ellipse fill="#ACB4C1" cx="13.604" cy="19.615" rx="9.862" ry="1.327"/>
		<ellipse fill="#ABB3C0" cx="13.604" cy="19.614" rx="9.815" ry="1.321"/>
		<ellipse fill="#AAB2BF" cx="13.604" cy="19.613" rx="9.768" ry="1.314"/>
		<ellipse fill="#A9B1BE" cx="13.604" cy="19.614" rx="9.721" ry="1.308"/>
		<ellipse fill="#A8B1BD" cx="13.605" cy="19.614" rx="9.673" ry="1.3"/>
		<ellipse fill="#A7B0BD" cx="13.604" cy="19.614" rx="9.626" ry="1.293"/>
		<ellipse fill="#A6AFBC" cx="13.604" cy="19.614" rx="9.578" ry="1.285"/>
		<ellipse fill="#A5AEBB" cx="13.604" cy="19.614" rx="9.531" ry="1.278"/>
		<ellipse fill="#A4ADBA" cx="13.604" cy="19.614" rx="9.483" ry="1.271"/>
		<ellipse fill="#A3ACB9" cx="13.604" cy="19.614" rx="9.437" ry="1.264"/>
		<ellipse fill="#A2ABB9" cx="13.604" cy="19.614" rx="9.389" ry="1.257"/>
		<ellipse fill="#A1AAB8" cx="13.604" cy="19.614" rx="9.342" ry="1.25"/>
		<ellipse fill="#A0A9B7" cx="13.604" cy="19.614" rx="9.294" ry="1.243"/>
		<ellipse fill="#9FA8B6" cx="13.605" cy="19.614" rx="9.247" ry="1.235"/>
		<ellipse fill="#9EA7B6" cx="13.604" cy="19.614" rx="9.199" ry="1.229"/>
		<ellipse fill="#9DA6B5" cx="13.604" cy="19.614" rx="9.152" ry="1.222"/>
		<ellipse fill="#9CA5B4" cx="13.604" cy="19.614" rx="9.104" ry="1.215"/>
		<ellipse fill="#9BA4B3" cx="13.605" cy="19.614" rx="9.057" ry="1.207"/>
		<ellipse fill="#9AA3B2" cx="13.604" cy="19.614" rx="9.01" ry="1.2"/>
		<ellipse fill="#99A2B2" cx="13.605" cy="19.614" rx="8.963" ry="1.192"/>
		<ellipse fill="#97A1B1" cx="13.605" cy="19.615" rx="8.916" ry="1.185"/>
		<ellipse fill="#96A0B0" cx="13.605" cy="19.614" rx="8.868" ry="1.179"/>
		<ellipse fill="#95A0AF" cx="13.604" cy="19.614" rx="8.821" ry="1.171"/>
		<ellipse fill="#949FAE" cx="13.605" cy="19.614" rx="8.773" ry="1.165"/>
		<ellipse fill="#939EAE" cx="13.604" cy="19.614" rx="8.726" ry="1.157"/>
		<ellipse fill="#929DAD" cx="13.605" cy="19.614" rx="8.678" ry="1.15"/>
		<ellipse fill="#919CAC" cx="13.604" cy="19.613" rx="8.631" ry="1.144"/>
		<ellipse fill="#909BAB" cx="13.605" cy="19.614" rx="8.584" ry="1.136"/>
		<ellipse fill="#8F9AAA" cx="13.604" cy="19.614" rx="8.536" ry="1.129"/>
		<ellipse fill="#8E99AA" cx="13.605" cy="19.614" rx="8.489" ry="1.121"/>
		<ellipse fill="#8D98A9" cx="13.604" cy="19.614" rx="8.442" ry="1.114"/>
		<ellipse fill="#8C97A8" cx="13.605" cy="19.614" rx="8.394" ry="1.107"/>
		<ellipse fill="#8B96A7" cx="13.604" cy="19.614" rx="8.347" ry="1.1"/>
		<ellipse fill="#8A95A7" cx="13.605" cy="19.614" rx="8.3" ry="1.093"/>
		<ellipse fill="#8994A6" cx="13.604" cy="19.614" rx="8.252" ry="1.086"/>
		<ellipse fill="#8893A5" cx="13.605" cy="19.614" rx="8.205" ry="1.079"/>
		<ellipse fill="#8792A4" cx="13.604" cy="19.614" rx="8.157" ry="1.071"/>
		<ellipse fill="#8691A3" cx="13.605" cy="19.614" rx="8.11" ry="1.064"/>
		<ellipse fill="#8590A3" cx="13.604" cy="19.614" rx="8.062" ry="1.058"/>
		<ellipse fill="#848FA2" cx="13.604" cy="19.614" rx="8.015" ry="1.051"/>
		<ellipse fill="#838FA1" cx="13.604" cy="19.614" rx="7.968" ry="1.043"/>
		<ellipse fill="#828EA0" cx="13.605" cy="19.614" rx="7.921" ry="1.036"/>
		<ellipse fill="#808D9F" cx="13.604" cy="19.614" rx="7.873" ry="1.028"/>
		<ellipse fill="#7F8C9F" cx="13.605" cy="19.614" rx="7.826" ry="1.022"/>
		<ellipse fill="#7E8B9E" cx="13.604" cy="19.614" rx="7.778" ry="1.015"/>
		<ellipse fill="#7D8A9D" cx="13.605" cy="19.614" rx="7.731" ry="1.007"/>
		<ellipse fill="#7C899C" cx="13.604" cy="19.614" rx="7.684" ry="1.001"/>
		<ellipse fill="#7B889B" cx="13.605" cy="19.614" rx="7.636" ry="0.993"/>
		<ellipse fill="#7A879B" cx="13.604" cy="19.614" rx="7.589" ry="0.986"/>
		<ellipse fill="#79869A" cx="13.605" cy="19.614" rx="7.542" ry="0.979"/>
		<ellipse fill="#788599" cx="13.605" cy="19.614" rx="7.495" ry="0.972"/>
		<ellipse fill="#778498" cx="13.605" cy="19.614" rx="7.447" ry="0.965"/>
		<ellipse fill="#768398" cx="13.604" cy="19.614" rx="7.399" ry="0.957"/>
		<ellipse fill="#758297" cx="13.604" cy="19.614" rx="7.353" ry="0.95"/>
		<ellipse fill="#748196" cx="13.604" cy="19.614" rx="7.305" ry="0.943"/>
		<ellipse fill="#738095" cx="13.604" cy="19.614" rx="7.257" ry="0.937"/>
		<ellipse fill="#727F94" cx="13.604" cy="19.614" rx="7.21" ry="0.929"/>
		<ellipse fill="#717E94" cx="13.604" cy="19.614" rx="7.163" ry="0.922"/>
		<ellipse fill="#707E93" cx="13.604" cy="19.614" rx="7.115" ry="0.915"/>
		<ellipse fill="#6F7D92" cx="13.604" cy="19.614" rx="7.068" ry="0.907"/>
		<ellipse fill="#6E7C91" cx="13.604" cy="19.614" rx="7.021" ry="0.9"/>
		<ellipse fill="#6D7B90" cx="13.604" cy="19.614" rx="6.974" ry="0.894"/>
		<ellipse fill="#6C7A90" cx="13.604" cy="19.614" rx="6.926" ry="0.886"/>
		<ellipse fill="#6B798F" cx="13.604" cy="19.614" rx="6.879" ry="0.88"/>
		<ellipse fill="#69788E" cx="13.604" cy="19.614" rx="6.831" ry="0.872"/>
		<ellipse fill="#68778D" cx="13.604" cy="19.614" rx="6.784" ry="0.864"/>
		<ellipse fill="#67768C" cx="13.604" cy="19.614" rx="6.736" ry="0.857"/>
		<ellipse fill="#66758C" cx="13.604" cy="19.614" rx="6.689" ry="0.851"/>
		<ellipse fill="#65748B" cx="13.604" cy="19.614" rx="6.642" ry="0.844"/>
		<ellipse fill="#64738A" cx="13.604" cy="19.614" rx="6.595" ry="0.836"/>
		<ellipse fill="#637289" cx="13.604" cy="19.614" rx="6.547" ry="0.829"/>
		<ellipse fill="#627189" cx="13.604" cy="19.614" rx="6.5" ry="0.822"/>
		<ellipse fill="#617088" cx="13.604" cy="19.614" rx="6.452" ry="0.815"/>
		<ellipse fill="#606F87" cx="13.604" cy="19.614" rx="6.405" ry="0.808"/>
		<ellipse fill="#5F6E86" cx="13.604" cy="19.614" rx="6.357" ry="0.801"/>
		<ellipse fill="#5E6D85" cx="13.604" cy="19.614" rx="6.311" ry="0.794"/>
		<ellipse fill="#5D6C85" cx="13.604" cy="19.614" rx="6.263" ry="0.786"/>
		<ellipse fill="#5C6C84" cx="13.604" cy="19.614" rx="6.216" ry="0.779"/>
		<ellipse fill="#5B6B83" cx="13.604" cy="19.614" rx="6.168" ry="0.772"/>
		<ellipse fill="#5A6A82" cx="13.604" cy="19.614" rx="6.121" ry="0.765"/>
		<ellipse fill="#596981" cx="13.604" cy="19.614" rx="6.073" ry="0.758"/>
		<ellipse fill="#586881" cx="13.604" cy="19.614" rx="6.026" ry="0.751"/>
		<ellipse fill="#576780" cx="13.604" cy="19.614" rx="5.979" ry="0.743"/>
		<ellipse fill="#56667F" cx="13.604" cy="19.614" rx="5.931" ry="0.736"/>
		<ellipse fill="#55657E" cx="13.604" cy="19.614" rx="5.884" ry="0.729"/>
		<ellipse fill="#54647D" cx="13.604" cy="19.614" rx="5.837" ry="0.722"/>
		<ellipse fill="#52637D" cx="13.604" cy="19.614" rx="5.789" ry="0.715"/>
		<ellipse fill="#51627C" cx="13.605" cy="19.614" rx="5.742" ry="0.708"/>
		<ellipse fill="#50617B" cx="13.604" cy="19.614" rx="5.694" ry="0.701"/>
		<ellipse fill="#4F607A" cx="13.605" cy="19.614" rx="5.647" ry="0.693"/>
		<ellipse fill="#4E5F79" cx="13.604" cy="19.614" rx="5.6" ry="0.687"/>
		<ellipse fill="#4D5E79" cx="13.605" cy="19.614" rx="5.552" ry="0.68"/>
		<ellipse fill="#4C5D78" cx="13.604" cy="19.614" rx="5.505" ry="0.673"/>
		<ellipse fill="#4B5C77" cx="13.604" cy="19.614" rx="5.457" ry="0.665"/>
		<ellipse fill="#4A5B76" cx="13.604" cy="19.614" rx="5.41" ry="0.658"/>
		<ellipse fill="#495B76" cx="13.604" cy="19.614" rx="5.363" ry="0.651"/>
		<ellipse fill="#485A75" cx="13.604" cy="19.614" rx="5.316" ry="0.644"/>
		<ellipse fill="#475974" cx="13.605" cy="19.614" rx="5.268" ry="0.637"/>
		<ellipse fill="#465873" cx="13.604" cy="19.614" rx="5.221" ry="0.63"/>
		<ellipse fill="#455772" cx="13.605" cy="19.614" rx="5.174" ry="0.622"/>
		<ellipse fill="#445672" cx="13.604" cy="19.614" rx="5.126" ry="0.615"/>
		<ellipse fill="#435571" cx="13.605" cy="19.614" rx="5.079" ry="0.608"/>
		<ellipse fill="#425470" cx="13.604" cy="19.614" rx="5.031" ry="0.601"/>
		<ellipse fill="#41536F" cx="13.605" cy="19.614" rx="4.984" ry="0.594"/>
		<ellipse fill="#40526E" cx="13.604" cy="19.614" rx="4.937" ry="0.587"/>
		<ellipse fill="#3F516E" cx="13.605" cy="19.614" rx="4.889" ry="0.58"/>
		<ellipse fill="#3E506D" cx="13.604" cy="19.614" rx="4.842" ry="0.572"/>
		<ellipse fill="#3D4F6C" cx="13.604" cy="19.614" rx="4.794" ry="0.565"/>
		<ellipse fill="#3B4E6B" cx="13.604" cy="19.614" rx="4.747" ry="0.559"/>
		<ellipse fill="#3A4D6A" cx="13.604" cy="19.614" rx="4.699" ry="0.551"/>
		<ellipse fill="#394C6A" cx="13.604" cy="19.614" rx="4.652" ry="0.544"/>
		<ellipse fill="#384B69" cx="13.604" cy="19.614" rx="4.605" ry="0.537"/>
		<ellipse fill="#374A68" cx="13.604" cy="19.614" rx="4.558" ry="0.53"/>
		<ellipse fill="#364A67" cx="13.605" cy="19.614" rx="4.51" ry="0.522"/>
		<ellipse fill="#354967" cx="13.604" cy="19.614" rx="4.463" ry="0.516"/>
		<ellipse fill="#344866" cx="13.605" cy="19.614" rx="4.416" ry="0.509"/>
		<ellipse fill="#334765" cx="13.604" cy="19.614" rx="4.368" ry="0.501"/>
		<ellipse fill="#324664" cx="13.605" cy="19.614" rx="4.321" ry="0.494"/>
		<ellipse fill="#314563" cx="13.604" cy="19.614" rx="4.273" ry="0.487"/>
		<ellipse fill="#304463" cx="13.605" cy="19.614" rx="4.226" ry="0.479"/>
		<ellipse fill="#2F4362" cx="13.604" cy="19.614" rx="4.179" ry="0.473"/>
		<ellipse fill="#2E4261" cx="13.604" cy="19.614" rx="4.131" ry="0.466"/>
		<ellipse fill="#2D4160" cx="13.604" cy="19.614" rx="4.084" ry="0.459"/>
		<ellipse fill="#2C405F" cx="13.604" cy="19.614" rx="4.036" ry="0.451"/>
		<ellipse fill="#2B3F5F" cx="13.604" cy="19.614" rx="3.989" ry="0.444"/>
		<ellipse fill="#2A3E5E" cx="13.605" cy="19.614" rx="3.942" ry="0.438"/>
		<ellipse fill="#293D5D" cx="13.604" cy="19.614" rx="3.895" ry="0.43"/>
		<ellipse fill="#283C5C" cx="13.605" cy="19.614" rx="3.847" ry="0.423"/>
		<ellipse fill="#273B5B" cx="13.604" cy="19.614" rx="3.8" ry="0.415"/>
		<ellipse fill="#263A5B" cx="13.605" cy="19.614" rx="3.753" ry="0.408"/>
		<ellipse fill="#24395A" cx="13.604" cy="19.614" rx="3.705" ry="0.401"/>
		<ellipse fill="#233959" cx="13.605" cy="19.614" rx="3.658" ry="0.395"/>
		<ellipse fill="#223858" cx="13.604" cy="19.614" rx="3.61" ry="0.388"/>
		<ellipse fill="#213758" cx="13.605" cy="19.614" rx="3.563" ry="0.38"/>
		<ellipse fill="#203657" cx="13.604" cy="19.614" rx="3.516" ry="0.373"/>
		<ellipse fill="#1F3556" cx="13.604" cy="19.614" rx="3.468" ry="0.366"/>
		<ellipse fill="#1E3455" cx="13.604" cy="19.614" rx="3.421" ry="0.358"/>
		<ellipse fill="#1D3354" cx="13.604" cy="19.614" rx="3.373" ry="0.352"/>
		<ellipse fill="#1C3254" cx="13.604" cy="19.614" rx="3.326" ry="0.344"/>
		<ellipse fill="#1B3153" cx="13.604" cy="19.614" rx="3.279" ry="0.337"/>
		<ellipse fill="#1A3052" cx="13.604" cy="19.614" rx="3.231" ry="0.33"/>
	</g>
	<g>
		<g>
			
				<linearGradient id="SVGID_1_" gradientUnits="userSpaceOnUse" x1="17.2422" y1="7.5439" x2="1.8013" y2="7.5439" gradientTransform="matrix(0.99 -0.141 0.141 0.99 -1.6338 2.4069)">
				<stop  offset="0" style="stop-color:#2947E2"/>
				<stop  offset="1" style="stop-color:#142668"/>
			</linearGradient>
			<path fill="url(#SVGID_1_)" d="M15.653,7.423c0.793,1.966,0.878,3.018,0.878,3.018c0.07,0.877-0.543,1.856-1.362,2.177
				L7.42,15.641c-0.82,0.32-2.022,0.096-2.671-0.498c0,0-1.011-0.926-2.339-4.092c-0.911-2.167-1.73-5.25-1.73-5.25
				C0.453,4.95,0.967,4.083,1.822,3.874l12.59-3.083c0.854-0.209,1.399,0.323,1.211,1.183C15.623,1.974,14.858,5.457,15.653,7.423z"
				/>
		</g>
		
			<linearGradient id="SVGID_2_" gradientUnits="userSpaceOnUse" x1="1.7749" y1="7.9668" x2="4.8066" y2="7.9668" gradientTransform="matrix(0.99 -0.141 0.141 0.99 -1.6338 2.4069)">
			<stop  offset="0" style="stop-color:#29ABE2"/>
			<stop  offset="1" style="stop-color:#2E3192"/>
		</linearGradient>
		<path fill="url(#SVGID_2_)" d="M3.399,11.807C1.873,7.93,1.123,4.291,1.123,4.291C1.111,4.248,1.109,4.206,1.102,4.164
			C0.684,4.481,0.475,5.031,0.619,5.573c0,0,0.88,3.311,1.791,5.479c1.329,3.166,2.514,4.251,2.514,4.251
			c0.042,0.039,0.101,0.062,0.148,0.097C4.592,14.6,4.034,13.419,3.399,11.807z"/>
		
			<linearGradient id="SVGID_3_" gradientUnits="userSpaceOnUse" x1="33.1797" y1="57.8433" x2="32.7316" y2="44.7171" gradientTransform="matrix(0.8801 -0.3284 -0.7789 -0.8456 20.0815 61.1223)">
			<stop  offset="0" style="stop-color:#7CC0FC"/>
			<stop  offset="0.3563" style="stop-color:#80C6FE"/>
			<stop  offset="1" style="stop-color:#83CAFF"/>
		</linearGradient>
		<path fill="url(#SVGID_3_)" d="M14.728,12.157c0,0-1.977,0.857-4.733,1.744c-2.76,0.891-5.361,1.098-5.361,1.098
			s0.1-0.902-0.605-4.633C2.854,4.155,1.365,2.26,1.365,2.26s2.961,0.356,7.12-0.261c5.128-0.764,5.002-0.779,6.902-1.14
			c0,0,1.042,3.527,0.201,7.24C14.467,13.056,14.728,12.157,14.728,12.157z"/>
		
			<linearGradient id="SVGID_4_" gradientUnits="userSpaceOnUse" x1="22.7285" y1="47.4448" x2="43.8243" y2="56.3401" gradientTransform="matrix(0.8801 -0.3284 -0.7789 -0.8456 20.0815 61.1223)">
			<stop  offset="0" style="stop-color:#CDFFFC"/>
			<stop  offset="1" style="stop-color:#83CAFF"/>
		</linearGradient>
		<path fill="url(#SVGID_4_)" d="M15.589,11.298c0,0-2.837,1.716-5.595,2.603c-2.76,0.891-5.165,0.684-5.165,0.684
			s0.173-0.449-0.547-5.307C3.353,3.009,2.227,1.401,2.227,1.401s2.961,0.356,7.12-0.261C14.475,0.376,14.349,0.36,16.249,0
			c0,0,1.043,3.527,0.201,7.24C15.327,12.196,15.589,11.298,15.589,11.298z"/>
		<g>
			
				<linearGradient id="SVGID_5_" gradientUnits="userSpaceOnUse" x1="4.6055" y1="13.1626" x2="19.5217" y2="3.8419" gradientTransform="matrix(0.99 -0.141 0.141 0.99 -1.6338 2.4069)">
				<stop  offset="0" style="stop-color:#29ABE2"/>
				<stop  offset="1" style="stop-color:#2E3192"/>
			</linearGradient>
			<path fill="url(#SVGID_5_)" d="M17.014,8.628c-0.162,2.895-0.162,2.895-0.162,2.895c0.147,0.169-0.398,0.581-1.213,0.913
				l-8.48,3.464c-0.815,0.332-1.75-0.063-2.08-0.88c0,0-0.182-0.452-0.274-3.626C4.722,8.539,5.017,7.887,5.017,7.887
				c0.363-0.802,1.35-1.662,2.194-1.911l9.876-2.92c0.844-0.25,1.26,0.212,0.923,1.025C18.01,4.082,17.151,6.161,17.014,8.628z"/>
		</g>
		<path fill="#53D4FF" d="M5.256,11.831c0.08-2.912,0.536-3.832,0.536-3.832c0.333-0.672,1.189-1.413,1.902-1.646l10.205-3.335
			C17.925,3.008,17.949,3.006,17.976,3c-0.164-0.081-0.39-0.09-0.662-0.01L6.984,6.043c-0.719,0.213-1.561,0.946-1.87,1.629
			c0,0-0.392,0.867-0.31,3.72c0.092,3.174,0.363,3.847,0.363,3.847c0.047,0.116,0.114,0.22,0.188,0.316
			C5.293,15.172,5.192,14.166,5.256,11.831z"/>
	</g>
</g>
<g id="Layer_3_copy">
	<g>
		<path fill="#FFFFFF" d="M18.066,14.626c-0.166-0.152-0.349-0.268-0.547-0.348c-0.159-0.066-0.315-0.09-0.468-0.068
			c-0.048,0.006-0.104,0.005-0.153,0.009c-0.006,0.153-0.009,0.271-0.009,0.347c0.172,0,0.335-0.01,0.487-0.029
			c0.152-0.021,0.309,0.003,0.468,0.068c0.164,0.066,0.31,0.173,0.451,0.288C18.231,14.8,18.156,14.71,18.066,14.626z
			 M15.331,11.236c-0.252,0.014-0.487,0.096-0.706,0.249c-0.219,0.153-0.361,0.368-0.428,0.646
			c-0.079,0.332-0.112,0.674-0.099,1.025c0.013,0.352,0.013,0.705,0,1.064h-0.906c-0.139,0-0.293-0.013-0.439-0.02
			c-0.061,0.103-0.118,0.204-0.18,0.306c0.331,0.026,0.646,0.04,0.944,0.04h0.906c0.013-0.358,0.013-0.713,0-1.064
			c-0.014-0.352,0.02-0.693,0.099-1.024c0.066-0.278,0.209-0.494,0.428-0.646c0.219-0.152,0.454-0.235,0.706-0.249
			c0.245-0.013,0.475,0.043,0.688,0.162c-0.08-0.132-0.178-0.245-0.307-0.319C15.818,11.279,15.583,11.223,15.331,11.236z
			 M14.522,19.001c-0.039-0.226-0.062-0.461-0.069-0.706s-0.003-0.48,0.01-0.706c0.014-0.226,0.014-0.424,0-0.598
			c-0.105,0-0.219-0.002-0.325-0.002c-0.001,0.092,0.006,0.17,0,0.273c-0.013,0.225-0.017,0.461-0.01,0.705
			c0.007,0.246,0.03,0.48,0.069,0.707c0.04,0.225,0.113,0.424,0.219,0.596c0.105,0.161,0.225,0.271,0.352,0.357
			c-0.009-0.013-0.019-0.018-0.026-0.03C14.636,19.425,14.562,19.226,14.522,19.001z M13.22,8.44
			c0.125-0.239,0.262-0.467,0.407-0.686s0.298-0.408,0.458-0.567c0.198-0.186,0.41-0.298,0.636-0.338
			c0.226-0.04,0.438-0.02,0.637,0.06c0.083,0.033,0.158,0.08,0.231,0.13c-0.016-0.021-0.023-0.048-0.04-0.069
			c-0.146-0.179-0.318-0.309-0.517-0.388c-0.199-0.08-0.411-0.1-0.637-0.06c-0.226,0.04-0.438,0.153-0.636,0.338
			c-0.16,0.159-0.312,0.348-0.458,0.567s-0.282,0.447-0.407,0.686c-0.127,0.239-0.249,0.478-0.368,0.716
			c-0.12,0.239-0.232,0.451-0.339,0.637c-0.344,0.61-0.699,1.217-1.063,1.82c-0.364,0.604-0.72,1.218-1.063,1.841
			c-0.094,0.172-0.227,0.377-0.398,0.615s-0.322,0.492-0.447,0.756c-0.127,0.266-0.206,0.535-0.238,0.807
			c-0.033,0.271,0.035,0.533,0.208,0.785c0.082,0.112,0.186,0.184,0.29,0.252c-0.138-0.229-0.203-0.466-0.173-0.711
			c0.032-0.271,0.111-0.541,0.238-0.806c0.125-0.265,0.275-0.518,0.447-0.756c0.172-0.239,0.305-0.444,0.398-0.616
			c0.344-0.623,0.699-1.236,1.063-1.84c0.364-0.603,0.72-1.21,1.063-1.82c0.106-0.186,0.219-0.398,0.339-0.637
			C12.971,8.917,13.093,8.679,13.22,8.44z"/>
		<g>
			<linearGradient id="SVGID_6_" gradientUnits="userSpaceOnUse" x1="14.0693" y1="6.8291" x2="14.0693" y2="20.1191">
				<stop  offset="0" style="stop-color:#FF0000"/>
				<stop  offset="0.0365" style="stop-color:#FD2604"/>
				<stop  offset="0.0851" style="stop-color:#FB5009"/>
				<stop  offset="0.1344" style="stop-color:#F9740D"/>
				<stop  offset="0.1839" style="stop-color:#F79010"/>
				<stop  offset="0.2336" style="stop-color:#F6A312"/>
				<stop  offset="0.2838" style="stop-color:#F5AF14"/>
				<stop  offset="0.3352" style="stop-color:#F5B314"/>
				<stop  offset="0.5206" style="stop-color:#F8850F"/>
				<stop  offset="0.94" style="stop-color:#FE1102"/>
				<stop  offset="1" style="stop-color:#FF0000"/>
			</linearGradient>
			<path fill="url(#SVGID_6_)" d="M16.602,19.558c-0.166,0.212-0.358,0.368-0.577,0.467c-0.219,0.1-0.444,0.12-0.676,0.061
				c-0.232-0.061-0.435-0.223-0.607-0.487c-0.105-0.173-0.179-0.372-0.219-0.597c-0.039-0.226-0.062-0.461-0.069-0.706
				s-0.003-0.48,0.01-0.706c0.014-0.226,0-0.598,0-0.598s-1.021-0.002-1.551-0.01c-0.531-0.006-1.048-0.016-1.551-0.029
				c-0.16,0-0.326,0-0.498,0s-0.342-0.017-0.507-0.05c-0.166-0.032-0.321-0.086-0.468-0.159c-0.146-0.072-0.271-0.182-0.378-0.328
				c-0.173-0.252-0.241-0.514-0.208-0.785c0.032-0.271,0.111-0.541,0.238-0.806c0.125-0.265,0.275-0.518,0.447-0.756
				c0.172-0.239,0.305-0.444,0.398-0.616c0.344-0.623,0.699-1.236,1.063-1.84c0.364-0.603,0.72-1.21,1.063-1.82
				c0.106-0.186,0.219-0.398,0.339-0.637c0.119-0.238,0.241-0.477,0.368-0.716c0.125-0.239,0.262-0.467,0.407-0.686
				s0.298-0.408,0.458-0.567c0.198-0.186,0.41-0.298,0.636-0.338c0.226-0.04,0.438-0.02,0.637,0.06
				c0.198,0.079,0.371,0.208,0.517,0.388c0.146,0.179,0.232,0.401,0.259,0.666c0.013,0.159-0.02,0.338-0.1,0.537
				c-0.079,0.199-0.172,0.395-0.278,0.587c-0.106,0.192-0.212,0.365-0.318,0.517s-0.179,0.262-0.219,0.328
				c-0.186,0.332-0.371,0.656-0.557,0.975s-0.371,0.636-0.557,0.955c-0.252,0.451-0.504,0.895-0.756,1.332s-0.511,0.876-0.775,1.313
				c0.331,0.026,0.646,0.04,0.944,0.04s0.601,0,0.906,0c0.013-0.358,0.013-0.713,0-1.064c-0.014-0.352,0.02-0.693,0.099-1.024
				c0.066-0.278,0.209-0.494,0.428-0.646c0.219-0.152,0.454-0.235,0.706-0.249c0.252-0.013,0.487,0.043,0.706,0.169
				c0.219,0.126,0.368,0.335,0.448,0.627c0.053,0.198,0.086,0.407,0.099,0.626c0.014,0.219,0.017,0.435,0.011,0.646
				c-0.007,0.213-0.014,0.402-0.021,0.567c-0.007,0.166-0.01,0.288-0.01,0.368c0.172,0,0.335-0.01,0.487-0.029
				c0.152-0.021,0.309,0.003,0.468,0.068c0.198,0.08,0.381,0.196,0.547,0.349c0.165,0.153,0.288,0.321,0.368,0.507
				c0.079,0.187,0.103,0.379,0.069,0.577c-0.033,0.199-0.149,0.392-0.349,0.577c-0.238,0.226-0.483,0.352-0.735,0.377
				c-0.252,0.027-0.537,0.041-0.855,0.041v1.789C16.863,19.101,16.767,19.345,16.602,19.558z"/>
		</g>
		<linearGradient id="SVGID_7_" gradientUnits="userSpaceOnUse" x1="13.917" y1="6.8291" x2="13.917" y2="20.0146">
			<stop  offset="0" style="stop-color:#FF0000"/>
			<stop  offset="0.0365" style="stop-color:#FD2604"/>
			<stop  offset="0.0851" style="stop-color:#FB5009"/>
			<stop  offset="0.1344" style="stop-color:#F9740D"/>
			<stop  offset="0.1839" style="stop-color:#F79010"/>
			<stop  offset="0.2336" style="stop-color:#F6A312"/>
			<stop  offset="0.2838" style="stop-color:#F5AF14"/>
			<stop  offset="0.3352" style="stop-color:#F5B314"/>
			<stop  offset="0.5206" style="stop-color:#F8850F"/>
			<stop  offset="0.94" style="stop-color:#FE1102"/>
			<stop  offset="1" style="stop-color:#FF0000"/>
		</linearGradient>
		<path fill="url(#SVGID_7_)" d="M15.656,11.562c-0.252,0.014-0.487,0.096-0.706,0.249c-0.219,0.153-0.361,0.368-0.428,0.646
			c-0.079,0.331-0.112,0.673-0.099,1.024c0.013,0.352,0.013,0.706,0,1.064h-0.906c-0.126,0-0.812-0.035-0.944-0.04
			c-0.057,0.095,0.375,0.31,0.375,0.31s0.646,0.041,0.945,0.041h0.905c0.013-0.359,0.013-0.713,0-1.064
			c-0.014-0.352,0.02-0.693,0.099-1.025c0.066-0.277,0.209-0.493,0.428-0.646c0.219-0.152,0.454-0.234,0.706-0.248
			c0.22-0.012,0.424,0.04,0.618,0.134c-0.077-0.114-0.171-0.208-0.287-0.275C16.144,11.606,15.908,11.549,15.656,11.562z
			 M18.392,14.954c-0.166-0.152-0.349-0.269-0.547-0.349c-0.159-0.065-0.315-0.089-0.468-0.068
			c-0.032,0.004-0.487,0.029-0.487,0.029l0.375,0.311c0,0,0.335-0.01,0.487-0.029c0.152-0.021,0.309,0.002,0.468,0.068
			c0.116,0.047,0.215,0.132,0.319,0.203C18.493,15.063,18.448,15.006,18.392,14.954z M13.595,8.75
			c0.125-0.239,0.262-0.467,0.408-0.686s0.298-0.408,0.458-0.567c0.198-0.186,0.41-0.298,0.636-0.338
			c0.226-0.04,0.438-0.02,0.637,0.06c0.051,0.021,0.096,0.054,0.144,0.081c-0.001-0.001-0.001-0.002-0.002-0.003
			c-0.146-0.179-0.318-0.309-0.517-0.388c-0.199-0.08-0.411-0.1-0.637-0.06c-0.226,0.04-0.438,0.153-0.636,0.338
			c-0.16,0.159-0.313,0.348-0.458,0.567S13.345,8.201,13.22,8.44c-0.127,0.239-0.249,0.478-0.368,0.716
			c-0.12,0.239-0.232,0.451-0.339,0.637c-0.344,0.61-0.699,1.217-1.063,1.82c-0.364,0.604-0.72,1.217-1.063,1.84
			c-0.094,0.172-0.227,0.377-0.398,0.616c-0.172,0.238-0.322,0.491-0.447,0.756c-0.127,0.265-0.206,0.534-0.238,0.806
			c-0.033,0.271,0.035,0.533,0.208,0.785c0.106,0.146,0.231,0.256,0.378,0.328c0.009,0.005,0.02,0.006,0.028,0.01
			c-0.009-0.012-0.022-0.016-0.031-0.027c-0.173-0.252-0.241-0.514-0.208-0.785c0.032-0.271,0.111-0.541,0.238-0.807
			c0.125-0.264,0.275-0.518,0.447-0.756s0.305-0.443,0.398-0.615c0.344-0.623,0.699-1.236,1.063-1.841
			c0.364-0.603,0.72-1.21,1.063-1.82c0.106-0.186,0.219-0.398,0.339-0.637C13.346,9.228,13.468,8.989,13.595,8.75z M14.897,19.312
			c-0.039-0.227-0.062-0.461-0.069-0.707c-0.007-0.244-0.003-0.48,0.01-0.705c0.014-0.227,0-0.598,0-0.598l-0.375-0.311
			c0,0,0.007,0.488,0,0.598c-0.013,0.226-0.017,0.461-0.01,0.706s0.03,0.48,0.069,0.706c0.04,0.225,0.113,0.424,0.219,0.597
			c0.136,0.208,0.296,0.334,0.468,0.416c-0.029-0.038-0.064-0.062-0.093-0.106C15.011,19.736,14.938,19.537,14.897,19.312z"/>
	</g>
</g>
</svg>
