<?xml version="1.0" encoding="utf-8"?>
<!-- Generator: Adobe Illustrator 13.0.2, SVG Export Plug-In . SVG Version: 6.00 Build 14948)  -->
<!DOCTYPE svg PUBLIC "-//W3C//DTD SVG 1.1//EN" "http://www.w3.org/Graphics/SVG/1.1/DTD/svg11.dtd">
<svg version="1.1" xmlns="http://www.w3.org/2000/svg" xmlns:xlink="http://www.w3.org/1999/xlink" x="0px" y="0px"
	 width="27.209px" height="21.505px" viewBox="0 0 27.209 21.505" enable-background="new 0 0 27.209 21.505" xml:space="preserve">
<g id="Layer_2">
	<g>
		<ellipse fill="#FFFFFF" cx="13.604" cy="19.614" rx="13.604" ry="1.892"/>
		<ellipse fill="#FEFEFE" cx="13.605" cy="19.614" rx="13.557" ry="1.885"/>
		<ellipse fill="#FDFDFD" cx="13.604" cy="19.614" rx="13.51" ry="1.877"/>
		<ellipse fill="#FCFCFD" cx="13.604" cy="19.614" rx="13.462" ry="1.87"/>
		<ellipse fill="#FBFBFC" cx="13.604" cy="19.614" rx="13.415" ry="1.863"/>
		<ellipse fill="#FAFAFB" cx="13.605" cy="19.614" rx="13.368" ry="1.856"/>
		<ellipse fill="#F9F9FA" cx="13.604" cy="19.614" rx="13.32" ry="1.849"/>
		<ellipse fill="#F8F8F9" cx="13.604" cy="19.614" rx="13.272" ry="1.842"/>
		<ellipse fill="#F7F7F9" cx="13.604" cy="19.614" rx="13.226" ry="1.835"/>
		<ellipse fill="#F6F6F8" cx="13.605" cy="19.614" rx="13.178" ry="1.827"/>
		<ellipse fill="#F5F6F7" cx="13.604" cy="19.614" rx="13.131" ry="1.82"/>
		<ellipse fill="#F3F5F6" cx="13.605" cy="19.614" rx="13.083" ry="1.813"/>
		<ellipse fill="#F2F4F6" cx="13.604" cy="19.614" rx="13.036" ry="1.806"/>
		<ellipse fill="#F1F3F5" cx="13.605" cy="19.614" rx="12.989" ry="1.799"/>
		<ellipse fill="#F0F2F4" cx="13.604" cy="19.614" rx="12.941" ry="1.792"/>
		<ellipse fill="#EFF1F3" cx="13.605" cy="19.614" rx="12.894" ry="1.785"/>
		<ellipse fill="#EEF0F2" cx="13.604" cy="19.614" rx="12.847" ry="1.777"/>
		<ellipse fill="#EDEFF2" cx="13.604" cy="19.614" rx="12.799" ry="1.771"/>
		<ellipse fill="#ECEEF1" cx="13.604" cy="19.614" rx="12.752" ry="1.764"/>
		<ellipse fill="#EBEDF0" cx="13.604" cy="19.614" rx="12.704" ry="1.756"/>
		<ellipse fill="#EAECEF" cx="13.604" cy="19.614" rx="12.657" ry="1.749"/>
		<ellipse fill="#E9EBEE" cx="13.604" cy="19.614" rx="12.61" ry="1.742"/>
		<ellipse fill="#E8EAEE" cx="13.604" cy="19.614" rx="12.562" ry="1.734"/>
		<ellipse fill="#E7E9ED" cx="13.605" cy="19.614" rx="12.515" ry="1.728"/>
		<ellipse fill="#E6E8EC" cx="13.604" cy="19.614" rx="12.468" ry="1.72"/>
		<ellipse fill="#E5E7EB" cx="13.605" cy="19.614" rx="12.421" ry="1.714"/>
		<ellipse fill="#E4E6EA" cx="13.604" cy="19.614" rx="12.373" ry="1.706"/>
		<ellipse fill="#E3E5EA" cx="13.604" cy="19.614" rx="12.325" ry="1.699"/>
		<ellipse fill="#E2E5E9" cx="13.604" cy="19.614" rx="12.278" ry="1.692"/>
		<ellipse fill="#E1E4E8" cx="13.605" cy="19.614" rx="12.231" ry="1.685"/>
		<ellipse fill="#E0E3E7" cx="13.605" cy="19.614" rx="12.183" ry="1.678"/>
		<ellipse fill="#DFE2E7" cx="13.605" cy="19.615" rx="12.136" ry="1.67"/>
		<ellipse fill="#DEE1E6" cx="13.604" cy="19.614" rx="12.089" ry="1.663"/>
		<ellipse fill="#DCE0E5" cx="13.604" cy="19.614" rx="12.041" ry="1.656"/>
		<ellipse fill="#DBDFE4" cx="13.605" cy="19.614" rx="11.994" ry="1.649"/>
		<ellipse fill="#DADEE3" cx="13.604" cy="19.614" rx="11.947" ry="1.642"/>
		<ellipse fill="#D9DDE3" cx="13.604" cy="19.614" rx="11.899" ry="1.635"/>
		<ellipse fill="#D8DCE2" cx="13.604" cy="19.614" rx="11.852" ry="1.628"/>
		<ellipse fill="#D7DBE1" cx="13.605" cy="19.614" rx="11.804" ry="1.621"/>
		<ellipse fill="#D6DAE0" cx="13.605" cy="19.614" rx="11.757" ry="1.614"/>
		<ellipse fill="#D5D9DF" cx="13.604" cy="19.614" rx="11.71" ry="1.606"/>
		<ellipse fill="#D4D8DF" cx="13.605" cy="19.614" rx="11.663" ry="1.599"/>
		<ellipse fill="#D3D7DE" cx="13.605" cy="19.614" rx="11.615" ry="1.592"/>
		<ellipse fill="#D2D6DD" cx="13.604" cy="19.614" rx="11.568" ry="1.585"/>
		<ellipse fill="#D1D5DC" cx="13.604" cy="19.614" rx="11.521" ry="1.578"/>
		<ellipse fill="#D0D4DB" cx="13.604" cy="19.614" rx="11.473" ry="1.571"/>
		<ellipse fill="#CFD4DB" cx="13.605" cy="19.614" rx="11.426" ry="1.563"/>
		<ellipse fill="#CED3DA" cx="13.604" cy="19.614" rx="11.378" ry="1.557"/>
		<ellipse fill="#CDD2D9" cx="13.604" cy="19.614" rx="11.331" ry="1.549"/>
		<ellipse fill="#CCD1D8" cx="13.604" cy="19.614" rx="11.283" ry="1.542"/>
		<ellipse fill="#CBD0D8" cx="13.605" cy="19.614" rx="11.236" ry="1.535"/>
		<ellipse fill="#CACFD7" cx="13.604" cy="19.614" rx="11.189" ry="1.527"/>
		<ellipse fill="#C9CED6" cx="13.604" cy="19.614" rx="11.142" ry="1.521"/>
		<ellipse fill="#C8CDD5" cx="13.605" cy="19.614" rx="11.094" ry="1.514"/>
		<ellipse fill="#C7CCD4" cx="13.604" cy="19.614" rx="11.047" ry="1.507"/>
		<ellipse fill="#C5CBD4" cx="13.605" cy="19.615" rx="11" ry="1.499"/>
		<ellipse fill="#C4CAD3" cx="13.604" cy="19.614" rx="10.952" ry="1.492"/>
		<ellipse fill="#C3C9D2" cx="13.604" cy="19.613" rx="10.905" ry="1.486"/>
		<ellipse fill="#C2C8D1" cx="13.604" cy="19.614" rx="10.857" ry="1.478"/>
		<ellipse fill="#C1C7D0" cx="13.604" cy="19.614" rx="10.81" ry="1.472"/>
		<ellipse fill="#C0C6D0" cx="13.604" cy="19.614" rx="10.763" ry="1.464"/>
		<ellipse fill="#BFC5CF" cx="13.604" cy="19.613" rx="10.715" ry="1.457"/>
		<ellipse fill="#BEC4CE" cx="13.604" cy="19.614" rx="10.668" ry="1.449"/>
		<ellipse fill="#BDC3CD" cx="13.604" cy="19.614" rx="10.62" ry="1.442"/>
		<ellipse fill="#BCC3CC" cx="13.604" cy="19.614" rx="10.573" ry="1.436"/>
		<ellipse fill="#BBC2CC" cx="13.604" cy="19.614" rx="10.526" ry="1.428"/>
		<ellipse fill="#BAC1CB" cx="13.604" cy="19.614" rx="10.478" ry="1.421"/>
		<ellipse fill="#B9C0CA" cx="13.605" cy="19.614" rx="10.431" ry="1.414"/>
		<ellipse fill="#B8BFC9" cx="13.604" cy="19.614" rx="10.384" ry="1.407"/>
		<ellipse fill="#B7BEC8" cx="13.604" cy="19.614" rx="10.336" ry="1.399"/>
		<ellipse fill="#B6BDC8" cx="13.604" cy="19.614" rx="10.289" ry="1.393"/>
		<ellipse fill="#B5BCC7" cx="13.605" cy="19.614" rx="10.242" ry="1.386"/>
		<ellipse fill="#B4BBC6" cx="13.604" cy="19.614" rx="10.194" ry="1.378"/>
		<ellipse fill="#B3BAC5" cx="13.604" cy="19.614" rx="10.147" ry="1.371"/>
		<ellipse fill="#B2B9C5" cx="13.604" cy="19.614" rx="10.1" ry="1.364"/>
		<ellipse fill="#B1B8C4" cx="13.604" cy="19.615" rx="10.052" ry="1.356"/>
		<ellipse fill="#B0B7C3" cx="13.604" cy="19.614" rx="10.005" ry="1.35"/>
		<ellipse fill="#AEB6C2" cx="13.604" cy="19.614" rx="9.957" ry="1.343"/>
		<ellipse fill="#ADB5C1" cx="13.604" cy="19.614" rx="9.91" ry="1.335"/>
		<ellipse fill="#ACB4C1" cx="13.604" cy="19.615" rx="9.862" ry="1.327"/>
		<ellipse fill="#ABB3C0" cx="13.604" cy="19.614" rx="9.815" ry="1.321"/>
		<ellipse fill="#AAB2BF" cx="13.604" cy="19.613" rx="9.768" ry="1.314"/>
		<ellipse fill="#A9B1BE" cx="13.604" cy="19.614" rx="9.721" ry="1.308"/>
		<ellipse fill="#A8B1BD" cx="13.605" cy="19.614" rx="9.673" ry="1.3"/>
		<ellipse fill="#A7B0BD" cx="13.604" cy="19.614" rx="9.626" ry="1.293"/>
		<ellipse fill="#A6AFBC" cx="13.604" cy="19.614" rx="9.578" ry="1.285"/>
		<ellipse fill="#A5AEBB" cx="13.604" cy="19.614" rx="9.531" ry="1.278"/>
		<ellipse fill="#A4ADBA" cx="13.604" cy="19.614" rx="9.483" ry="1.271"/>
		<ellipse fill="#A3ACB9" cx="13.604" cy="19.614" rx="9.437" ry="1.264"/>
		<ellipse fill="#A2ABB9" cx="13.604" cy="19.614" rx="9.389" ry="1.257"/>
		<ellipse fill="#A1AAB8" cx="13.604" cy="19.614" rx="9.342" ry="1.25"/>
		<ellipse fill="#A0A9B7" cx="13.604" cy="19.614" rx="9.294" ry="1.243"/>
		<ellipse fill="#9FA8B6" cx="13.605" cy="19.614" rx="9.247" ry="1.235"/>
		<ellipse fill="#9EA7B6" cx="13.604" cy="19.614" rx="9.199" ry="1.229"/>
		<ellipse fill="#9DA6B5" cx="13.604" cy="19.614" rx="9.152" ry="1.222"/>
		<ellipse fill="#9CA5B4" cx="13.604" cy="19.614" rx="9.104" ry="1.215"/>
		<ellipse fill="#9BA4B3" cx="13.605" cy="19.614" rx="9.057" ry="1.207"/>
		<ellipse fill="#9AA3B2" cx="13.604" cy="19.614" rx="9.01" ry="1.2"/>
		<ellipse fill="#99A2B2" cx="13.605" cy="19.614" rx="8.963" ry="1.192"/>
		<ellipse fill="#97A1B1" cx="13.605" cy="19.615" rx="8.916" ry="1.185"/>
		<ellipse fill="#96A0B0" cx="13.605" cy="19.614" rx="8.868" ry="1.179"/>
		<ellipse fill="#95A0AF" cx="13.604" cy="19.614" rx="8.821" ry="1.171"/>
		<ellipse fill="#949FAE" cx="13.605" cy="19.614" rx="8.773" ry="1.165"/>
		<ellipse fill="#939EAE" cx="13.604" cy="19.614" rx="8.726" ry="1.157"/>
		<ellipse fill="#929DAD" cx="13.605" cy="19.614" rx="8.678" ry="1.15"/>
		<ellipse fill="#919CAC" cx="13.604" cy="19.613" rx="8.631" ry="1.144"/>
		<ellipse fill="#909BAB" cx="13.605" cy="19.614" rx="8.584" ry="1.136"/>
		<ellipse fill="#8F9AAA" cx="13.604" cy="19.614" rx="8.536" ry="1.129"/>
		<ellipse fill="#8E99AA" cx="13.605" cy="19.614" rx="8.489" ry="1.121"/>
		<ellipse fill="#8D98A9" cx="13.604" cy="19.614" rx="8.442" ry="1.114"/>
		<ellipse fill="#8C97A8" cx="13.605" cy="19.614" rx="8.394" ry="1.107"/>
		<ellipse fill="#8B96A7" cx="13.604" cy="19.614" rx="8.347" ry="1.1"/>
		<ellipse fill="#8A95A7" cx="13.605" cy="19.614" rx="8.3" ry="1.093"/>
		<ellipse fill="#8994A6" cx="13.604" cy="19.614" rx="8.252" ry="1.086"/>
		<ellipse fill="#8893A5" cx="13.605" cy="19.614" rx="8.205" ry="1.079"/>
		<ellipse fill="#8792A4" cx="13.604" cy="19.614" rx="8.157" ry="1.071"/>
		<ellipse fill="#8691A3" cx="13.605" cy="19.614" rx="8.11" ry="1.064"/>
		<ellipse fill="#8590A3" cx="13.604" cy="19.614" rx="8.062" ry="1.058"/>
		<ellipse fill="#848FA2" cx="13.604" cy="19.614" rx="8.015" ry="1.051"/>
		<ellipse fill="#838FA1" cx="13.604" cy="19.614" rx="7.968" ry="1.043"/>
		<ellipse fill="#828EA0" cx="13.605" cy="19.614" rx="7.921" ry="1.036"/>
		<ellipse fill="#808D9F" cx="13.604" cy="19.614" rx="7.873" ry="1.028"/>
		<ellipse fill="#7F8C9F" cx="13.605" cy="19.614" rx="7.826" ry="1.022"/>
		<ellipse fill="#7E8B9E" cx="13.604" cy="19.614" rx="7.778" ry="1.015"/>
		<ellipse fill="#7D8A9D" cx="13.605" cy="19.614" rx="7.731" ry="1.007"/>
		<ellipse fill="#7C899C" cx="13.604" cy="19.614" rx="7.684" ry="1.001"/>
		<ellipse fill="#7B889B" cx="13.605" cy="19.614" rx="7.636" ry="0.993"/>
		<ellipse fill="#7A879B" cx="13.604" cy="19.614" rx="7.589" ry="0.986"/>
		<ellipse fill="#79869A" cx="13.605" cy="19.614" rx="7.542" ry="0.979"/>
		<ellipse fill="#788599" cx="13.605" cy="19.614" rx="7.495" ry="0.972"/>
		<ellipse fill="#778498" cx="13.605" cy="19.614" rx="7.447" ry="0.965"/>
		<ellipse fill="#768398" cx="13.604" cy="19.614" rx="7.399" ry="0.957"/>
		<ellipse fill="#758297" cx="13.604" cy="19.614" rx="7.353" ry="0.95"/>
		<ellipse fill="#748196" cx="13.604" cy="19.614" rx="7.305" ry="0.943"/>
		<ellipse fill="#738095" cx="13.604" cy="19.614" rx="7.257" ry="0.937"/>
		<ellipse fill="#727F94" cx="13.604" cy="19.614" rx="7.21" ry="0.929"/>
		<ellipse fill="#717E94" cx="13.604" cy="19.614" rx="7.163" ry="0.922"/>
		<ellipse fill="#707E93" cx="13.604" cy="19.614" rx="7.115" ry="0.915"/>
		<ellipse fill="#6F7D92" cx="13.604" cy="19.614" rx="7.068" ry="0.907"/>
		<ellipse fill="#6E7C91" cx="13.604" cy="19.614" rx="7.021" ry="0.9"/>
		<ellipse fill="#6D7B90" cx="13.604" cy="19.614" rx="6.974" ry="0.894"/>
		<ellipse fill="#6C7A90" cx="13.604" cy="19.614" rx="6.926" ry="0.886"/>
		<ellipse fill="#6B798F" cx="13.604" cy="19.614" rx="6.879" ry="0.88"/>
		<ellipse fill="#69788E" cx="13.604" cy="19.614" rx="6.831" ry="0.872"/>
		<ellipse fill="#68778D" cx="13.604" cy="19.614" rx="6.784" ry="0.864"/>
		<ellipse fill="#67768C" cx="13.604" cy="19.614" rx="6.736" ry="0.857"/>
		<ellipse fill="#66758C" cx="13.604" cy="19.614" rx="6.689" ry="0.851"/>
		<ellipse fill="#65748B" cx="13.604" cy="19.614" rx="6.642" ry="0.844"/>
		<ellipse fill="#64738A" cx="13.604" cy="19.614" rx="6.595" ry="0.836"/>
		<ellipse fill="#637289" cx="13.604" cy="19.614" rx="6.547" ry="0.829"/>
		<ellipse fill="#627189" cx="13.604" cy="19.614" rx="6.5" ry="0.822"/>
		<ellipse fill="#617088" cx="13.604" cy="19.614" rx="6.452" ry="0.815"/>
		<ellipse fill="#606F87" cx="13.604" cy="19.614" rx="6.405" ry="0.808"/>
		<ellipse fill="#5F6E86" cx="13.604" cy="19.614" rx="6.357" ry="0.801"/>
		<ellipse fill="#5E6D85" cx="13.604" cy="19.614" rx="6.311" ry="0.794"/>
		<ellipse fill="#5D6C85" cx="13.604" cy="19.614" rx="6.263" ry="0.786"/>
		<ellipse fill="#5C6C84" cx="13.604" cy="19.614" rx="6.216" ry="0.779"/>
		<ellipse fill="#5B6B83" cx="13.604" cy="19.614" rx="6.168" ry="0.772"/>
		<ellipse fill="#5A6A82" cx="13.604" cy="19.614" rx="6.121" ry="0.765"/>
		<ellipse fill="#596981" cx="13.604" cy="19.614" rx="6.073" ry="0.758"/>
		<ellipse fill="#586881" cx="13.604" cy="19.614" rx="6.026" ry="0.751"/>
		<ellipse fill="#576780" cx="13.604" cy="19.614" rx="5.979" ry="0.743"/>
		<ellipse fill="#56667F" cx="13.604" cy="19.614" rx="5.931" ry="0.736"/>
		<ellipse fill="#55657E" cx="13.604" cy="19.614" rx="5.884" ry="0.729"/>
		<ellipse fill="#54647D" cx="13.604" cy="19.614" rx="5.837" ry="0.722"/>
		<ellipse fill="#52637D" cx="13.604" cy="19.614" rx="5.789" ry="0.715"/>
		<ellipse fill="#51627C" cx="13.605" cy="19.614" rx="5.742" ry="0.708"/>
		<ellipse fill="#50617B" cx="13.604" cy="19.614" rx="5.694" ry="0.701"/>
		<ellipse fill="#4F607A" cx="13.605" cy="19.614" rx="5.647" ry="0.693"/>
		<ellipse fill="#4E5F79" cx="13.604" cy="19.614" rx="5.6" ry="0.687"/>
		<ellipse fill="#4D5E79" cx="13.605" cy="19.614" rx="5.552" ry="0.68"/>
		<ellipse fill="#4C5D78" cx="13.604" cy="19.614" rx="5.505" ry="0.673"/>
		<ellipse fill="#4B5C77" cx="13.604" cy="19.614" rx="5.457" ry="0.665"/>
		<ellipse fill="#4A5B76" cx="13.604" cy="19.614" rx="5.41" ry="0.658"/>
		<ellipse fill="#495B76" cx="13.604" cy="19.614" rx="5.363" ry="0.651"/>
		<ellipse fill="#485A75" cx="13.604" cy="19.614" rx="5.316" ry="0.644"/>
		<ellipse fill="#475974" cx="13.605" cy="19.614" rx="5.268" ry="0.637"/>
		<ellipse fill="#465873" cx="13.604" cy="19.614" rx="5.221" ry="0.63"/>
		<ellipse fill="#455772" cx="13.605" cy="19.614" rx="5.174" ry="0.622"/>
		<ellipse fill="#445672" cx="13.604" cy="19.614" rx="5.126" ry="0.615"/>
		<ellipse fill="#435571" cx="13.605" cy="19.614" rx="5.079" ry="0.608"/>
		<ellipse fill="#425470" cx="13.604" cy="19.614" rx="5.031" ry="0.601"/>
		<ellipse fill="#41536F" cx="13.605" cy="19.614" rx="4.984" ry="0.594"/>
		<ellipse fill="#40526E" cx="13.604" cy="19.614" rx="4.937" ry="0.587"/>
		<ellipse fill="#3F516E" cx="13.605" cy="19.614" rx="4.889" ry="0.58"/>
		<ellipse fill="#3E506D" cx="13.604" cy="19.614" rx="4.842" ry="0.572"/>
		<ellipse fill="#3D4F6C" cx="13.604" cy="19.614" rx="4.794" ry="0.565"/>
		<ellipse fill="#3B4E6B" cx="13.604" cy="19.614" rx="4.747" ry="0.559"/>
		<ellipse fill="#3A4D6A" cx="13.604" cy="19.614" rx="4.699" ry="0.551"/>
		<ellipse fill="#394C6A" cx="13.604" cy="19.614" rx="4.652" ry="0.544"/>
		<ellipse fill="#384B69" cx="13.604" cy="19.614" rx="4.605" ry="0.537"/>
		<ellipse fill="#374A68" cx="13.604" cy="19.614" rx="4.558" ry="0.53"/>
		<ellipse fill="#364A67" cx="13.605" cy="19.614" rx="4.51" ry="0.522"/>
		<ellipse fill="#354967" cx="13.604" cy="19.614" rx="4.463" ry="0.516"/>
		<ellipse fill="#344866" cx="13.605" cy="19.614" rx="4.416" ry="0.509"/>
		<ellipse fill="#334765" cx="13.604" cy="19.614" rx="4.368" ry="0.501"/>
		<ellipse fill="#324664" cx="13.605" cy="19.614" rx="4.321" ry="0.494"/>
		<ellipse fill="#314563" cx="13.604" cy="19.614" rx="4.273" ry="0.487"/>
		<ellipse fill="#304463" cx="13.605" cy="19.614" rx="4.226" ry="0.479"/>
		<ellipse fill="#2F4362" cx="13.604" cy="19.614" rx="4.179" ry="0.473"/>
		<ellipse fill="#2E4261" cx="13.604" cy="19.614" rx="4.131" ry="0.466"/>
		<ellipse fill="#2D4160" cx="13.604" cy="19.614" rx="4.084" ry="0.459"/>
		<ellipse fill="#2C405F" cx="13.604" cy="19.614" rx="4.036" ry="0.451"/>
		<ellipse fill="#2B3F5F" cx="13.604" cy="19.614" rx="3.989" ry="0.444"/>
		<ellipse fill="#2A3E5E" cx="13.605" cy="19.614" rx="3.942" ry="0.438"/>
		<ellipse fill="#293D5D" cx="13.604" cy="19.614" rx="3.895" ry="0.43"/>
		<ellipse fill="#283C5C" cx="13.605" cy="19.614" rx="3.847" ry="0.423"/>
		<ellipse fill="#273B5B" cx="13.604" cy="19.614" rx="3.8" ry="0.415"/>
		<ellipse fill="#263A5B" cx="13.605" cy="19.614" rx="3.753" ry="0.408"/>
		<ellipse fill="#24395A" cx="13.604" cy="19.614" rx="3.705" ry="0.401"/>
		<ellipse fill="#233959" cx="13.605" cy="19.614" rx="3.658" ry="0.395"/>
		<ellipse fill="#223858" cx="13.604" cy="19.614" rx="3.61" ry="0.388"/>
		<ellipse fill="#213758" cx="13.605" cy="19.614" rx="3.563" ry="0.38"/>
		<ellipse fill="#203657" cx="13.604" cy="19.614" rx="3.516" ry="0.373"/>
		<ellipse fill="#1F3556" cx="13.604" cy="19.614" rx="3.468" ry="0.366"/>
		<ellipse fill="#1E3455" cx="13.604" cy="19.614" rx="3.421" ry="0.358"/>
		<ellipse fill="#1D3354" cx="13.604" cy="19.614" rx="3.373" ry="0.352"/>
		<ellipse fill="#1C3254" cx="13.604" cy="19.614" rx="3.326" ry="0.344"/>
		<ellipse fill="#1B3153" cx="13.604" cy="19.614" rx="3.279" ry="0.337"/>
		<ellipse fill="#1A3052" cx="13.604" cy="19.614" rx="3.231" ry="0.33"/>
	</g>
	<g>
		<g>
			
				<linearGradient id="SVGID_1_" gradientUnits="userSpaceOnUse" x1="17.2422" y1="7.5439" x2="1.8013" y2="7.5439" gradientTransform="matrix(0.99 -0.141 0.141 0.99 -1.6338 2.4069)">
				<stop  offset="0" style="stop-color:#2947E2"/>
				<stop  offset="1" style="stop-color:#142668"/>
			</linearGradient>
			<path fill="url(#SVGID_1_)" d="M15.653,7.423c0.793,1.966,0.878,3.018,0.878,3.018c0.07,0.877-0.543,1.856-1.362,2.177
				L7.42,15.641c-0.82,0.32-2.022,0.096-2.671-0.498c0,0-1.011-0.926-2.339-4.092c-0.911-2.167-1.73-5.25-1.73-5.25
				C0.453,4.95,0.967,4.083,1.822,3.874l12.59-3.083c0.854-0.209,1.399,0.323,1.211,1.183C15.623,1.974,14.858,5.457,15.653,7.423z"
				/>
		</g>
		
			<linearGradient id="SVGID_2_" gradientUnits="userSpaceOnUse" x1="1.7749" y1="7.9668" x2="4.8066" y2="7.9668" gradientTransform="matrix(0.99 -0.141 0.141 0.99 -1.6338 2.4069)">
			<stop  offset="0" style="stop-color:#29ABE2"/>
			<stop  offset="1" style="stop-color:#2E3192"/>
		</linearGradient>
		<path fill="url(#SVGID_2_)" d="M3.399,11.807C1.873,7.93,1.123,4.291,1.123,4.291C1.111,4.248,1.109,4.206,1.102,4.164
			C0.684,4.481,0.475,5.031,0.619,5.573c0,0,0.88,3.311,1.791,5.479c1.329,3.166,2.514,4.251,2.514,4.251
			c0.042,0.039,0.101,0.062,0.148,0.097C4.592,14.6,4.034,13.419,3.399,11.807z"/>
		
			<linearGradient id="SVGID_3_" gradientUnits="userSpaceOnUse" x1="33.1797" y1="57.8433" x2="32.7316" y2="44.7171" gradientTransform="matrix(0.8801 -0.3284 -0.7789 -0.8456 20.0815 61.1223)">
			<stop  offset="0" style="stop-color:#7CC0FC"/>
			<stop  offset="0.3563" style="stop-color:#80C6FE"/>
			<stop  offset="1" style="stop-color:#83CAFF"/>
		</linearGradient>
		<path fill="url(#SVGID_3_)" d="M14.728,12.157c0,0-1.977,0.857-4.733,1.744c-2.76,0.891-5.361,1.098-5.361,1.098
			s0.1-0.902-0.605-4.633C2.854,4.155,1.365,2.26,1.365,2.26s2.961,0.356,7.12-0.261c5.128-0.764,5.002-0.779,6.902-1.14
			c0,0,1.042,3.527,0.201,7.24C14.467,13.056,14.728,12.157,14.728,12.157z"/>
		
			<linearGradient id="SVGID_4_" gradientUnits="userSpaceOnUse" x1="22.7285" y1="47.4448" x2="43.8243" y2="56.3401" gradientTransform="matrix(0.8801 -0.3284 -0.7789 -0.8456 20.0815 61.1223)">
			<stop  offset="0" style="stop-color:#CDFFFC"/>
			<stop  offset="1" style="stop-color:#83CAFF"/>
		</linearGradient>
		<path fill="url(#SVGID_4_)" d="M15.589,11.298c0,0-2.837,1.716-5.595,2.603c-2.76,0.891-5.165,0.684-5.165,0.684
			s0.173-0.449-0.547-5.307C3.353,3.009,2.227,1.401,2.227,1.401s2.961,0.356,7.12-0.261C14.475,0.376,14.349,0.36,16.249,0
			c0,0,1.043,3.527,0.201,7.24C15.327,12.196,15.589,11.298,15.589,11.298z"/>
		<g>
			
				<linearGradient id="SVGID_5_" gradientUnits="userSpaceOnUse" x1="4.6055" y1="13.1626" x2="19.5217" y2="3.8419" gradientTransform="matrix(0.99 -0.141 0.141 0.99 -1.6338 2.4069)">
				<stop  offset="0" style="stop-color:#29ABE2"/>
				<stop  offset="1" style="stop-color:#2E3192"/>
			</linearGradient>
			<path fill="url(#SVGID_5_)" d="M17.014,8.628c-0.162,2.895-0.162,2.895-0.162,2.895c0.147,0.169-0.398,0.581-1.213,0.913
				l-8.48,3.464c-0.815,0.332-1.75-0.063-2.08-0.88c0,0-0.182-0.452-0.274-3.626C4.722,8.539,5.017,7.887,5.017,7.887
				c0.363-0.802,1.35-1.662,2.194-1.911l9.876-2.92c0.844-0.25,1.26,0.212,0.923,1.025C18.01,4.082,17.151,6.161,17.014,8.628z"/>
		</g>
		<path fill="#53D4FF" d="M5.256,11.831c0.08-2.912,0.536-3.832,0.536-3.832c0.333-0.672,1.189-1.413,1.902-1.646l10.205-3.335
			C17.925,3.008,17.949,3.006,17.976,3c-0.164-0.081-0.39-0.09-0.662-0.01L6.984,6.043c-0.719,0.213-1.561,0.946-1.87,1.629
			c0,0-0.392,0.867-0.31,3.72c0.092,3.174,0.363,3.847,0.363,3.847c0.047,0.116,0.114,0.22,0.188,0.316
			C5.293,15.172,5.192,14.166,5.256,11.831z"/>
	</g>
</g>
<g id="Layer_3_copy">
	<g>
		<path fill="#FFFFFF" d="M15.214,10.613c-0.257,0.216-0.528,0.415-0.807,0.605c0.087,0.074,0.162,0.152,0.252,0.226
			c0.318-0.212,0.623-0.441,0.915-0.687c0.291-0.245,0.55-0.533,0.775-0.865c0.053-0.146,0.086-0.252,0.1-0.318
			c0.013-0.066-0.007-0.186-0.06-0.358c-0.187-0.186-0.417-0.311-0.683-0.387c0.117,0.067,0.226,0.147,0.322,0.243
			c0.053,0.172,0.072,0.292,0.06,0.358c-0.014,0.066-0.047,0.172-0.1,0.318C15.764,10.08,15.505,10.368,15.214,10.613z
			 M15.782,15.023c-0.219-0.158-0.444-0.309-0.676-0.447c-0.232-0.139-0.441-0.262-0.627-0.367c-0.019,0.012-0.032,0.025-0.05,0.037
			c0.105,0.062,0.199,0.115,0.316,0.186c0.231,0.139,0.457,0.289,0.676,0.447c0.219,0.16,0.415,0.336,0.587,0.527
			c0.172,0.193,0.285,0.402,0.338,0.627c-0.119,0.398-0.345,0.723-0.676,0.975c-0.332,0.252-0.703,0.414-1.114,0.486
			c-0.378,0.068-0.753,0.044-1.125-0.051c0.088,0.042,0.165,0.098,0.263,0.127c0.405,0.119,0.812,0.143,1.223,0.068
			c0.411-0.072,0.782-0.234,1.114-0.486c0.331-0.252,0.557-0.577,0.676-0.975c-0.053-0.226-0.166-0.435-0.338-0.627
			C16.197,15.359,16.001,15.183,15.782,15.023z M11.546,7.645c0.443-0.424,1.007-0.746,1.69-0.965
			c0.683-0.219,1.373-0.315,2.069-0.289c0.586,0.022,1.139,0.158,1.669,0.364c-0.022-0.011-0.037-0.029-0.061-0.04
			c-0.616-0.285-1.273-0.441-1.969-0.468c-0.696-0.026-1.386,0.07-2.069,0.289c-0.684,0.219-1.247,0.541-1.69,0.965
			c-0.444,0.424-0.723,0.945-0.836,1.561c-0.112,0.617,0.05,1.31,0.487,2.079c0.159,0.305,0.342,0.577,0.547,0.815
			c0.206,0.24,0.428,0.464,0.667,0.677c-0.278,0.172-0.547,0.371-0.806,0.596c-0.259,0.227-0.491,0.471-0.696,0.736
			c-0.206,0.266-0.375,0.551-0.507,0.855c-0.133,0.305-0.199,0.629-0.199,0.975c-0.014,0.266-0.014,0.496,0,0.695
			c0.026,0.332,0.083,0.664,0.169,0.994c0.086,0.332,0.242,0.631,0.468,0.896c0.331,0.396,0.735,0.711,1.213,0.943
			c0.113,0.055,0.233,0.092,0.351,0.139c-0.473-0.232-0.875-0.544-1.203-0.938c-0.226-0.265-0.382-0.563-0.468-0.896
			c-0.086-0.33-0.143-0.662-0.169-0.994c-0.014-0.199-0.014-0.431,0-0.695c0-0.346,0.066-0.67,0.199-0.975
			c0.132-0.306,0.301-0.59,0.507-0.855c0.205-0.266,0.438-0.511,0.696-0.736c0.259-0.225,0.527-0.424,0.806-0.597
			c-0.239-0.212-0.461-0.438-0.667-0.677c-0.205-0.238-0.388-0.51-0.547-0.815c-0.438-0.769-0.6-1.462-0.487-2.079
			C10.824,8.589,11.102,8.069,11.546,7.645z"/>
		<g>
			<linearGradient id="SVGID_6_" gradientUnits="userSpaceOnUse" x1="14.6992" y1="6.3867" x2="14.6992" y2="20.001">
				<stop  offset="0" style="stop-color:#FF0000"/>
				<stop  offset="0.0365" style="stop-color:#FD2604"/>
				<stop  offset="0.0851" style="stop-color:#FB5009"/>
				<stop  offset="0.1344" style="stop-color:#F9740D"/>
				<stop  offset="0.1839" style="stop-color:#F79010"/>
				<stop  offset="0.2336" style="stop-color:#F6A312"/>
				<stop  offset="0.2838" style="stop-color:#F5AF14"/>
				<stop  offset="0.3352" style="stop-color:#F5B314"/>
				<stop  offset="0.5206" style="stop-color:#F8850F"/>
				<stop  offset="0.94" style="stop-color:#FE1102"/>
				<stop  offset="1" style="stop-color:#FF0000"/>
			</linearGradient>
			<path fill="url(#SVGID_6_)" d="M10.204,16.634c-0.014-0.199-0.014-0.431,0-0.695c0-0.346,0.066-0.67,0.199-0.975
				c0.132-0.306,0.301-0.59,0.507-0.855c0.205-0.266,0.438-0.511,0.696-0.736c0.259-0.225,0.527-0.424,0.806-0.597
				c-0.239-0.212-0.461-0.438-0.667-0.677c-0.205-0.238-0.388-0.51-0.547-0.815c-0.438-0.769-0.6-1.462-0.487-2.079
				c0.113-0.616,0.392-1.137,0.836-1.561c0.443-0.424,1.007-0.746,1.69-0.965c0.683-0.219,1.373-0.315,2.069-0.289
				c0.695,0.027,1.353,0.183,1.969,0.468s1.084,0.719,1.402,1.303c0.132,0.239,0.205,0.497,0.219,0.775
				c0.013,0.279,0.013,0.544,0,0.796c-0.014,0.265-0.06,0.524-0.14,0.775c-0.079,0.252-0.186,0.491-0.318,0.716
				c-0.198,0.345-0.45,0.646-0.756,0.905c-0.305,0.259-0.616,0.501-0.935,0.726c0.318,0.239,0.653,0.488,1.005,0.746
				c0.351,0.259,0.64,0.561,0.865,0.905c0.345,0.53,0.537,1.048,0.576,1.552c0.04,0.504-0.036,0.975-0.229,1.412
				s-0.484,0.835-0.875,1.193c-0.392,0.357-0.858,0.656-1.402,0.895c-0.451,0.199-0.948,0.332-1.491,0.398
				c-0.544,0.065-1.084,0.059-1.622-0.021c-0.537-0.079-1.044-0.235-1.521-0.468s-0.882-0.547-1.213-0.944
				c-0.226-0.265-0.382-0.563-0.468-0.896C10.287,17.298,10.23,16.966,10.204,16.634z M14.479,14.208
				c-0.345,0.225-0.66,0.461-0.945,0.705c-0.285,0.246-0.54,0.541-0.766,0.885c0,0.027-0.02,0.07-0.06,0.13s-0.06,0.209-0.06,0.448
				c0,0.066,0.003,0.139,0.01,0.219c0.007,0.079,0.03,0.172,0.07,0.277c0.238,0.346,0.56,0.577,0.964,0.697
				c0.405,0.119,0.812,0.143,1.223,0.068c0.411-0.072,0.782-0.234,1.114-0.486c0.331-0.252,0.557-0.577,0.676-0.975
				c-0.053-0.226-0.166-0.435-0.338-0.627c-0.172-0.191-0.368-0.367-0.587-0.527c-0.219-0.158-0.444-0.309-0.676-0.447
				C14.874,14.437,14.665,14.314,14.479,14.208z M13.187,9.514c-0.026,0.08-0.03,0.152-0.01,0.219
				c0.02,0.066,0.043,0.139,0.069,0.219c0.186,0.292,0.397,0.557,0.636,0.795c0.239,0.239,0.498,0.471,0.776,0.696
				c0.318-0.212,0.623-0.441,0.915-0.687c0.291-0.245,0.55-0.533,0.775-0.865c0.053-0.146,0.086-0.252,0.1-0.318
				c0.013-0.066-0.007-0.186-0.06-0.358c-0.199-0.199-0.445-0.335-0.736-0.408c-0.292-0.073-0.594-0.1-0.905-0.08
				c-0.312,0.02-0.606,0.093-0.885,0.219c-0.279,0.126-0.498,0.288-0.657,0.487C13.194,9.461,13.187,9.488,13.187,9.514z"/>
		</g>
		<linearGradient id="SVGID_7_" gradientUnits="userSpaceOnUse" x1="14.1416" y1="6.3867" x2="14.1416" y2="19.2334">
			<stop  offset="0" style="stop-color:#FF0000"/>
			<stop  offset="0.0365" style="stop-color:#FD2604"/>
			<stop  offset="0.0851" style="stop-color:#FB5009"/>
			<stop  offset="0.1344" style="stop-color:#F9740D"/>
			<stop  offset="0.1839" style="stop-color:#F79010"/>
			<stop  offset="0.2336" style="stop-color:#F6A312"/>
			<stop  offset="0.2838" style="stop-color:#F5AF14"/>
			<stop  offset="0.3352" style="stop-color:#F5B314"/>
			<stop  offset="0.5206" style="stop-color:#F8850F"/>
			<stop  offset="0.94" style="stop-color:#FE1102"/>
			<stop  offset="1" style="stop-color:#FF0000"/>
		</linearGradient>
		<path fill="url(#SVGID_7_)" d="M16.107,15.24c-0.104-0.074-0.213-0.141-0.318-0.211c0.216,0.158,0.41,0.332,0.58,0.521
			c0.172,0.192,0.285,0.401,0.338,0.627c-0.119,0.397-0.345,0.723-0.676,0.975c-0.332,0.252-0.703,0.414-1.114,0.486
			c-0.411,0.074-0.818,0.051-1.223-0.068c-0.121-0.036-0.221-0.103-0.327-0.158c0.188,0.164,0.398,0.3,0.653,0.375
			c0.404,0.119,0.812,0.143,1.223,0.068c0.411-0.072,0.782-0.234,1.114-0.486c0.331-0.252,0.557-0.577,0.676-0.975
			c-0.053-0.226-0.166-0.435-0.338-0.627C16.522,15.576,16.326,15.4,16.107,15.24z M15.574,10.757
			c-0.277,0.233-0.568,0.449-0.869,0.652c0.095,0.083,0.179,0.169,0.279,0.251c0.318-0.212,0.623-0.441,0.915-0.687
			c0.291-0.245,0.55-0.533,0.775-0.865c0.053-0.146,0.086-0.252,0.1-0.318c0.013-0.066-0.007-0.186-0.06-0.358
			c-0.119-0.119-0.259-0.208-0.411-0.281c0.027,0.023,0.061,0.039,0.086,0.064c0.053,0.172,0.072,0.292,0.06,0.358
			c-0.014,0.066-0.047,0.172-0.1,0.318C16.124,10.224,15.865,10.512,15.574,10.757z M17.608,7.081
			c0.164,0.103,0.342,0.191,0.48,0.319C17.934,7.29,17.789,7.167,17.608,7.081z M17.274,6.859c-0.616-0.285-1.273-0.441-1.969-0.468
			c-0.696-0.026-1.386,0.07-2.069,0.289c-0.684,0.219-1.247,0.541-1.69,0.965c-0.444,0.424-0.723,0.945-0.836,1.561
			c-0.112,0.617,0.05,1.31,0.487,2.079c0.159,0.305,0.342,0.577,0.547,0.815c0.206,0.239,0.428,0.465,0.667,0.677
			c-0.278,0.173-0.547,0.372-0.806,0.597c-0.259,0.226-0.491,0.471-0.696,0.736c-0.206,0.266-0.375,0.55-0.507,0.855
			c-0.133,0.305-0.199,0.629-0.199,0.975c-0.014,0.265-0.014,0.496,0,0.695c0.026,0.332,0.083,0.664,0.169,0.994
			c0.086,0.332,0.242,0.631,0.468,0.896c0.236,0.283,0.522,0.51,0.833,0.709c-0.184-0.148-0.355-0.31-0.508-0.492
			c-0.226-0.265-0.382-0.563-0.468-0.896c-0.086-0.33-0.143-0.662-0.169-0.994c-0.014-0.199-0.014-0.431,0-0.695
			c0-0.346,0.066-0.67,0.199-0.975c0.132-0.306,0.301-0.59,0.507-0.855c0.205-0.266,0.438-0.511,0.696-0.736
			c0.259-0.225,0.527-0.424,0.806-0.597c-0.239-0.212-0.461-0.438-0.667-0.677c-0.205-0.238-0.388-0.51-0.547-0.815
			c-0.438-0.769-0.6-1.462-0.487-2.079c0.113-0.616,0.392-1.137,0.836-1.561c0.443-0.424,1.007-0.746,1.69-0.965
			c0.683-0.219,1.373-0.315,2.069-0.289c0.695,0.027,1.353,0.183,1.969,0.468c0.003,0.001,0.006,0.004,0.009,0.005
			C17.494,7.01,17.401,6.917,17.274,6.859z"/>
	</g>
</g>
</svg>
