<?xml version="1.0" encoding="utf-8"?>
<!-- Generator: Adobe Illustrator 13.0.2, SVG Export Plug-In . SVG Version: 6.00 Build 14948)  -->
<!DOCTYPE svg PUBLIC "-//W3C//DTD SVG 1.1//EN" "http://www.w3.org/Graphics/SVG/1.1/DTD/svg11.dtd">
<svg version="1.1" id="Layer_2" xmlns="http://www.w3.org/2000/svg" xmlns:xlink="http://www.w3.org/1999/xlink" x="0px" y="0px"
	 width="14.114px" height="13.122px" viewBox="0 0 14.114 13.122" enable-background="new 0 0 14.114 13.122" xml:space="preserve">
<g>
	<path opacity="0" d="M12.522,8.148c-0.582-0.529-1.953-1.643-3.225-2.662c0.775-1.036,1.669-2.22,2.02-2.67
		c0.673-0.865-0.265-2.96-1.536-2.408C9.04,0.729,7.647,2.188,6.612,3.353C6.309,3.106,2.91,0.357,1.637,0.039
		c-1.333-0.333-2,1.556-1.223,2.222c0.778,0.667,3.889,3.443,3.889,3.443s0.071,0.047,0.193,0.128
		C3.248,7.308,1.994,8.66,1.238,9.693c-1.051,1.432-1.549,2.988-0.383,3.361c1.168,0.373,2.473-0.844,3.897-2.445
		c0.895-1.004,1.655-1.775,2.612-2.742C8.029,8.382,8.66,8.916,9.081,9.371c1.332,1.445,3.441,2.891,4.553,2.445
		C14.744,11.371,13.745,9.259,12.522,8.148z"/>
	<path opacity="0.0217" fill="#010101" d="M12.507,8.143c-0.581-0.528-1.949-1.64-3.219-2.656c0.774-1.034,1.666-2.215,2.016-2.665
		c0.672-0.864-0.264-2.954-1.533-2.404c-0.739,0.32-2.129,1.776-3.163,2.938C6.305,3.111,2.913,0.368,1.643,0.05
		c-1.33-0.333-1.996,1.552-1.22,2.217c0.776,0.666,3.881,3.436,3.881,3.436S4.375,5.75,4.497,5.832
		C3.25,7.305,1.999,8.654,1.244,9.685c-1.048,1.429-1.546,2.982-0.382,3.354c1.166,0.372,2.468-0.842,3.89-2.44
		c0.893-1.002,1.652-1.771,2.607-2.737c0.664,0.515,1.293,1.047,1.713,1.501c1.329,1.443,3.435,2.885,4.543,2.44
		S13.727,9.252,12.507,8.143z"/>
	<path opacity="0.0435" fill="#020202" d="M12.49,8.137C11.91,7.61,10.545,6.5,9.278,5.486c0.772-1.032,1.662-2.211,2.011-2.659
		c0.671-0.862-0.263-2.949-1.529-2.399C9.021,0.748,7.634,2.201,6.603,3.361c-0.301-0.245-3.688-2.983-4.955-3.3
		C0.32-0.271-0.345,1.61,0.43,2.273c0.775,0.665,3.874,3.43,3.874,3.43S4.375,5.75,4.496,5.831C3.252,7.301,2.003,8.647,1.25,9.676
		c-1.046,1.426-1.542,2.977-0.381,3.348c1.164,0.372,2.463-0.84,3.882-2.436c0.891-1,1.649-1.769,2.602-2.731
		c0.662,0.514,1.29,1.045,1.71,1.498c1.326,1.439,3.428,2.88,4.534,2.436C14.703,11.347,13.708,9.245,12.49,8.137z"/>
	<path opacity="0.0652" fill="#030303" d="M12.475,8.132c-0.579-0.526-1.941-1.633-3.206-2.646c0.771-1.03,1.659-2.206,2.008-2.654
		c0.669-0.86-0.264-2.942-1.527-2.394c-0.736,0.319-2.122,1.769-3.15,2.927c-0.301-0.245-3.68-2.977-4.945-3.293
		C0.328-0.26-0.335,1.618,0.438,2.28c0.773,0.663,3.866,3.423,3.866,3.423S4.375,5.75,4.496,5.83
		c-1.242,1.467-2.488,2.811-3.24,3.837c-1.045,1.424-1.54,2.971-0.38,3.342c1.161,0.371,2.458-0.839,3.875-2.431
		c0.889-0.998,1.645-1.765,2.597-2.726c0.661,0.512,1.288,1.042,1.706,1.494c1.324,1.438,3.422,2.874,4.525,2.432
		C14.683,11.335,13.689,9.237,12.475,8.132z"/>
	<path opacity="0.087" fill="#040404" d="M12.458,8.127c-0.577-0.525-1.938-1.63-3.199-2.641c0.77-1.028,1.655-2.203,2.004-2.649
		C11.93,1.979,11-0.099,9.738,0.449C9.003,0.766,7.621,2.214,6.594,3.37c-0.3-0.244-3.673-2.972-4.935-3.287
		C0.336-0.248-0.325,1.625,0.446,2.287c0.771,0.662,3.857,3.416,3.857,3.416S4.375,5.749,4.496,5.83
		c-1.24,1.465-2.484,2.806-3.233,3.83c-1.042,1.421-1.537,2.965-0.38,3.335c1.159,0.37,2.453-0.837,3.867-2.426
		c0.888-0.996,1.642-1.762,2.592-2.721C8,8.36,8.626,8.888,9.044,9.34c1.321,1.434,3.414,2.868,4.517,2.426
		C14.662,11.325,13.671,9.23,12.458,8.127z"/>
	<path opacity="0.1087" fill="#050505" d="M12.442,8.123c-0.577-0.524-1.934-1.627-3.193-2.636c0.768-1.026,1.652-2.198,2-2.644
		c0.666-0.857-0.262-2.931-1.521-2.384C8.994,0.776,7.615,2.22,6.59,3.374c-0.3-0.244-3.666-2.965-4.926-3.28
		c-1.319-0.33-1.98,1.54-1.21,2.199c0.771,0.661,3.851,3.41,3.851,3.41s0.071,0.046,0.191,0.126c-1.236,1.461-2.478,2.8-3.226,3.823
		C0.229,11.07-0.265,12.611,0.89,12.98c1.157,0.369,2.449-0.836,3.859-2.421c0.885-0.994,1.639-1.758,2.586-2.716
		c0.658,0.511,1.283,1.039,1.7,1.489c1.318,1.432,3.407,2.862,4.507,2.421C14.642,11.313,13.652,9.222,12.442,8.123z"/>
	<path opacity="0.1304" fill="#060606" d="M12.426,8.117c-0.575-0.522-1.93-1.623-3.186-2.63c0.766-1.023,1.648-2.193,1.995-2.638
		c0.665-0.855-0.262-2.925-1.518-2.379C8.985,0.786,7.608,2.227,6.585,3.378C6.286,3.135,2.927,0.419,1.67,0.104
		C0.353-0.225-0.307,1.642,0.462,2.3C1.23,2.959,4.304,5.702,4.304,5.702s0.07,0.046,0.191,0.126
		c-1.234,1.458-2.473,2.794-3.22,3.814c-1.038,1.415-1.53,2.953-0.378,3.322c1.154,0.368,2.443-0.834,3.851-2.416
		c0.884-0.992,1.636-1.755,2.581-2.71c0.657,0.51,1.28,1.036,1.696,1.486c1.316,1.428,3.4,2.855,4.499,2.416
		C14.621,11.301,13.635,9.215,12.426,8.117z"/>
	<path opacity="0.1522" fill="#070707" d="M12.41,8.112c-0.574-0.521-1.926-1.62-3.18-2.625c0.764-1.021,1.646-2.188,1.991-2.633
		c0.663-0.853-0.261-2.919-1.515-2.375C8.976,0.795,7.602,2.234,6.581,3.383C6.282,3.14,2.93,0.429,1.675,0.115
		C0.361-0.213-0.297,1.649,0.469,2.306c0.768,0.658,3.835,3.396,3.835,3.396s0.07,0.047,0.19,0.126
		C3.264,7.284,2.026,8.617,1.281,9.635c-1.036,1.412-1.527,2.947-0.377,3.315c1.152,0.367,2.439-0.832,3.844-2.412
		C5.63,9.548,6.38,8.788,7.323,7.834c0.655,0.509,1.278,1.034,1.692,1.483c1.314,1.425,3.395,2.851,4.49,2.411
		S13.615,9.208,12.41,8.112z"/>
	<path opacity="0.1739" fill="#080808" d="M12.395,8.107c-0.573-0.521-1.923-1.618-3.174-2.62c0.763-1.02,1.643-2.184,1.987-2.627
		c0.662-0.852-0.261-2.913-1.512-2.37c-0.729,0.315-2.101,1.751-3.12,2.897C6.279,3.145,2.933,0.439,1.681,0.126
		C0.369-0.202-0.288,1.657,0.478,2.312c0.766,0.656,3.827,3.389,3.827,3.389s0.07,0.046,0.19,0.126
		c-1.229,1.452-2.463,2.783-3.208,3.8c-1.034,1.409-1.525,2.941-0.377,3.309c1.149,0.366,2.434-0.831,3.836-2.407
		c0.88-0.988,1.629-1.747,2.571-2.699c0.654,0.508,1.275,1.033,1.689,1.48c1.312,1.423,3.388,2.845,4.48,2.406
		S13.598,9.201,12.395,8.107z"/>
	<path opacity="0.1957" fill="#090909" d="M12.378,8.102c-0.572-0.521-1.918-1.614-3.167-2.615c0.761-1.018,1.639-2.18,1.983-2.623
		c0.66-0.85-0.26-2.907-1.509-2.365C8.957,0.814,7.589,2.247,6.572,3.392C6.275,3.15,2.936,0.45,1.687,0.137
		C0.377-0.19-0.278,1.665,0.485,2.319c0.765,0.655,3.82,3.382,3.82,3.382s0.07,0.046,0.189,0.126
		c-1.227,1.45-2.458,2.777-3.201,3.792c-1.032,1.406-1.521,2.936-0.376,3.302c1.147,0.366,2.428-0.828,3.828-2.401
		c0.878-0.986,1.625-1.744,2.566-2.693c0.652,0.506,1.272,1.029,1.686,1.477c1.308,1.42,3.38,2.84,4.472,2.402
		C14.561,11.267,13.578,9.193,12.378,8.102z"/>
	<path opacity="0.2174" fill="#0A0A0A" d="M12.362,8.096c-0.571-0.519-1.915-1.61-3.161-2.609c0.76-1.015,1.636-2.176,1.979-2.617
		c0.659-0.849-0.26-2.901-1.506-2.361C8.948,0.823,7.583,2.254,6.568,3.396C6.271,3.155,2.938,0.46,1.691,0.148
		c-1.307-0.326-1.96,1.525-1.198,2.178c0.763,0.653,3.812,3.375,3.812,3.375s0.07,0.046,0.19,0.125
		C3.27,7.273,2.041,8.598,1.3,9.611c-1.029,1.403-1.518,2.93-0.375,3.295c1.145,0.365,2.424-0.827,3.82-2.396
		c0.877-0.984,1.623-1.741,2.561-2.688c0.651,0.506,1.27,1.028,1.683,1.475c1.306,1.416,3.374,2.833,4.463,2.396
		S13.561,9.186,12.362,8.096z"/>
	<path opacity="0.2391" fill="#0B0B0B" d="M12.346,8.091c-0.569-0.518-1.91-1.607-3.154-2.604c0.759-1.013,1.633-2.171,1.976-2.611
		c0.658-0.847-0.259-2.896-1.503-2.356C8.939,0.833,7.576,2.261,6.563,3.4C6.267,3.16,2.942,0.47,1.697,0.159
		C0.393-0.167-0.259,1.681,0.501,2.332c0.761,0.652,3.804,3.369,3.804,3.369s0.07,0.046,0.189,0.125
		C3.272,7.27,2.046,8.592,1.306,9.602c-1.028,1.401-1.515,2.924-0.375,3.289c1.143,0.364,2.419-0.826,3.813-2.392
		C5.62,9.516,6.364,8.762,7.3,7.816c0.65,0.505,1.268,1.026,1.68,1.472c1.303,1.413,3.366,2.827,4.453,2.392
		C14.519,11.244,13.541,9.178,12.346,8.091z"/>
	<path opacity="0.2609" fill="#0C0C0C" d="M12.33,8.086c-0.568-0.518-1.907-1.604-3.148-2.599c0.757-1.012,1.629-2.167,1.972-2.606
		c0.656-0.845-0.259-2.89-1.5-2.352C8.93,0.842,7.57,2.267,6.56,3.404C6.264,3.165,2.945,0.48,1.702,0.17
		C0.401-0.156-0.25,1.688,0.509,2.339c0.76,0.651,3.796,3.362,3.796,3.362s0.07,0.045,0.189,0.125
		c-1.22,1.44-2.443,2.76-3.182,3.769c-1.026,1.397-1.512,2.917-0.374,3.282c1.141,0.364,2.414-0.824,3.806-2.388
		c0.873-0.98,1.616-1.733,2.55-2.677C7.942,8.315,8.559,8.835,8.97,9.28c1.301,1.411,3.36,2.822,4.444,2.388
		C14.498,11.232,13.523,9.171,12.33,8.086z"/>
	<path opacity="0.2826" fill="#0D0D0D" d="M12.313,8.082C11.746,7.565,10.41,6.48,9.172,5.488c0.756-1.01,1.626-2.163,1.968-2.601
		c0.655-0.843-0.258-2.884-1.497-2.347C8.921,0.852,7.563,2.274,6.555,3.409C6.26,3.169,2.948,0.491,1.708,0.18
		C0.409-0.144-0.241,1.696,0.517,2.345C1.275,2.995,4.306,5.7,4.306,5.7s0.069,0.046,0.188,0.125
		C3.277,7.263,2.055,8.58,1.319,9.586c-1.024,1.395-1.509,2.911-0.374,3.274c1.138,0.363,2.41-0.822,3.798-2.382
		C5.615,9.5,6.355,8.749,7.289,7.807C7.936,8.309,8.551,8.83,8.961,9.272c1.297,1.409,3.353,2.816,4.436,2.383
		C14.478,11.221,13.505,9.164,12.313,8.082z"/>
	<path opacity="0.3043" fill="#0E0E0E" d="M12.298,8.076c-0.566-0.515-1.899-1.598-3.136-2.588c0.754-1.007,1.623-2.158,1.964-2.596
		C11.78,2.05,10.868,0.014,9.633,0.55C8.912,0.862,7.557,2.28,6.55,3.413C6.256,3.174,2.951,0.501,1.713,0.192
		c-1.296-0.324-1.945,1.512-1.189,2.16C1.281,3,4.306,5.7,4.306,5.7s0.069,0.045,0.188,0.124C3.279,7.259,2.06,8.574,1.325,9.578
		c-1.021,1.393-1.506,2.906-0.373,3.269c1.135,0.363,2.404-0.82,3.79-2.378c0.87-0.977,1.609-1.727,2.54-2.666
		c0.646,0.502,1.26,1.02,1.669,1.463c1.295,1.404,3.347,2.81,4.427,2.377C14.457,11.209,13.486,9.157,12.298,8.076z"/>
	<path opacity="0.3261" fill="#0F0F0F" d="M12.281,8.071c-0.564-0.515-1.895-1.595-3.129-2.583c0.752-1.005,1.619-2.154,1.959-2.591
		c0.653-0.84-0.256-2.872-1.49-2.336C8.902,0.872,7.55,2.287,6.546,3.417C6.252,3.179,2.954,0.511,1.719,0.202
		c-1.294-0.323-1.94,1.509-1.187,2.156C1.288,3.005,4.306,5.7,4.306,5.7s0.069,0.045,0.188,0.124
		C3.281,7.256,2.064,8.568,1.331,9.57c-1.02,1.39-1.503,2.899-0.372,3.262c1.133,0.361,2.4-0.818,3.783-2.373
		c0.867-0.975,1.605-1.723,2.534-2.66c0.645,0.5,1.257,1.018,1.666,1.459c1.292,1.402,3.339,2.805,4.417,2.372
		C14.438,11.198,13.468,9.149,12.281,8.071z"/>
	<path opacity="0.3478" fill="#101010" d="M12.266,8.066c-0.563-0.514-1.892-1.592-3.123-2.578c0.751-1.003,1.616-2.149,1.955-2.585
		c0.652-0.838-0.256-2.866-1.486-2.332c-0.719,0.31-2.067,1.723-3.07,2.851c-0.293-0.238-3.584-2.9-4.817-3.208
		C0.434-0.109-0.213,1.72,0.54,2.365C1.294,3.01,4.306,5.699,4.306,5.699s0.069,0.046,0.188,0.124
		c-1.21,1.43-2.424,2.738-3.156,3.739c-1.018,1.387-1.5,2.894-0.371,3.255C2.098,13.178,3.361,12,4.741,10.449
		c0.866-0.973,1.603-1.72,2.529-2.655C7.914,8.292,8.525,8.809,8.933,9.25c1.29,1.399,3.333,2.799,4.408,2.367
		C14.416,11.186,13.449,9.142,12.266,8.066z"/>
	<path opacity="0.3696" fill="#111111" d="M12.25,8.061c-0.563-0.513-1.889-1.589-3.117-2.573c0.749-1,1.613-2.145,1.952-2.58
		c0.649-0.836-0.256-2.86-1.485-2.327C8.884,0.89,7.538,2.3,6.537,3.426C6.244,3.188,2.959,0.532,1.729,0.224
		C0.441-0.098-0.203,1.728,0.548,2.371C1.3,3.015,4.307,5.699,4.307,5.699s0.068,0.045,0.187,0.124
		C3.286,7.25,2.074,8.555,1.344,9.553c-1.016,1.384-1.497,2.889-0.37,3.249c1.128,0.36,2.39-0.816,3.767-2.363
		c0.864-0.971,1.6-1.717,2.524-2.65c0.642,0.498,1.252,1.014,1.658,1.453c1.288,1.397,3.327,2.794,4.399,2.363
		C14.396,11.175,13.431,9.134,12.25,8.061z"/>
	<path opacity="0.3913" fill="#121212" d="M12.233,8.055c-0.562-0.511-1.884-1.585-3.11-2.567c0.748-0.999,1.609-2.141,1.948-2.574
		c0.648-0.835-0.255-2.854-1.481-2.323C8.875,0.9,7.531,2.307,6.533,3.43c-0.292-0.237-3.57-2.888-4.797-3.195
		c-1.286-0.321-1.93,1.5-1.18,2.143c0.751,0.644,3.751,3.321,3.751,3.321s0.068,0.045,0.186,0.123
		C3.288,7.246,2.079,8.548,1.35,9.544c-1.013,1.382-1.494,2.883-0.369,3.243c1.126,0.359,2.385-0.814,3.759-2.358
		c0.863-0.969,1.597-1.713,2.52-2.645c0.641,0.497,1.249,1.011,1.655,1.45c1.285,1.394,3.319,2.787,4.391,2.357
		C14.376,11.164,13.412,9.127,12.233,8.055z"/>
	<path opacity="0.413" fill="#131313" d="M12.217,8.05c-0.561-0.51-1.879-1.582-3.104-2.562c0.747-0.996,1.606-2.136,1.943-2.569
		c0.648-0.833-0.254-2.849-1.478-2.318C8.865,0.909,7.524,2.313,6.528,3.435C6.237,3.198,2.965,0.552,1.741,0.246
		c-1.284-0.32-1.925,1.497-1.177,2.139c0.75,0.642,3.743,3.313,3.743,3.313s0.068,0.046,0.186,0.123
		C3.291,7.242,2.083,8.542,1.356,9.537c-1.012,1.379-1.491,2.877-0.369,3.236c1.124,0.358,2.38-0.813,3.752-2.354
		C5.6,9.452,6.332,8.709,7.253,7.78C7.893,8.276,8.5,8.789,8.904,9.227c1.282,1.391,3.312,2.781,4.383,2.353
		C14.355,11.152,13.394,9.12,12.217,8.05z"/>
	<path opacity="0.4348" fill="#141414" d="M12.201,8.044c-0.559-0.508-1.876-1.578-3.098-2.556c0.745-0.995,1.604-2.132,1.939-2.564
		c0.646-0.832-0.254-2.843-1.475-2.313C8.856,0.918,7.519,2.32,6.523,3.439c-0.29-0.236-3.555-2.877-4.777-3.182
		c-1.28-0.32-1.921,1.494-1.174,2.134c0.748,0.64,3.735,3.307,3.735,3.307s0.068,0.045,0.186,0.123
		c-1.2,1.417-2.403,2.716-3.13,3.708c-1.009,1.375-1.487,2.87-0.368,3.229c1.122,0.358,2.376-0.811,3.744-2.349
		c0.859-0.965,1.59-1.706,2.509-2.634C7.885,8.27,8.491,8.783,8.896,9.219c1.279,1.389,3.306,2.776,4.373,2.349
		C14.335,11.14,13.375,9.113,12.201,8.044z"/>
	<path opacity="0.4565" fill="#151515" d="M12.186,8.041c-0.559-0.508-1.873-1.576-3.092-2.552c0.744-0.993,1.6-2.127,1.937-2.559
		c0.644-0.83-0.254-2.837-1.473-2.309C8.848,0.928,7.512,2.327,6.52,3.443c-0.29-0.236-3.549-2.871-4.769-3.176
		c-1.277-0.318-1.917,1.491-1.172,2.13c0.746,0.639,3.728,3.301,3.728,3.301S4.375,5.742,4.492,5.82
		C3.295,7.235,2.093,8.531,1.369,9.521c-1.007,1.372-1.485,2.864-0.367,3.222c1.12,0.357,2.371-0.809,3.736-2.344
		c0.857-0.963,1.587-1.702,2.504-2.628c0.637,0.494,1.241,1.004,1.645,1.441c1.277,1.385,3.3,2.77,4.364,2.343
		S13.357,9.105,12.186,8.041z"/>
	<path opacity="0.4783" fill="#161616" d="M12.169,8.035c-0.557-0.507-1.868-1.572-3.085-2.546c0.742-0.991,1.597-2.123,1.933-2.554
		c0.644-0.828-0.253-2.831-1.47-2.304C8.838,0.938,7.506,2.333,6.515,3.448c-0.29-0.235-3.541-2.865-4.758-3.169
		C0.481-0.041-0.156,1.766,0.587,2.404c0.745,0.638,3.719,3.293,3.719,3.293S4.375,5.742,4.492,5.82
		C3.297,7.232,2.098,8.524,1.375,9.512c-1.005,1.37-1.481,2.858-0.367,3.216c1.117,0.356,2.366-0.808,3.728-2.339
		C5.593,9.427,6.32,8.69,7.235,7.766c0.636,0.493,1.239,1.003,1.642,1.438c1.274,1.382,3.292,2.765,4.354,2.338
		C14.294,11.117,13.338,9.097,12.169,8.035z"/>
	<path opacity="0.5" fill="#171717" d="M12.152,8.03c-0.555-0.506-1.863-1.569-3.078-2.541C9.814,4.5,10.668,3.37,11.002,2.94
		c0.643-0.826-0.252-2.826-1.466-2.299C8.828,0.947,7.499,2.34,6.511,3.452C6.222,3.217,2.977,0.593,1.762,0.29
		C0.49-0.029-0.147,1.774,0.595,2.41c0.743,0.637,3.712,3.287,3.712,3.287s0.068,0.045,0.185,0.122
		C3.299,7.228,2.103,8.518,1.381,9.503c-1.003,1.367-1.479,2.854-0.365,3.209c1.115,0.356,2.36-0.805,3.72-2.334
		c0.854-0.959,1.58-1.695,2.494-2.617c0.634,0.492,1.236,1.001,1.638,1.436c1.271,1.379,3.285,2.759,4.346,2.334
		C14.273,11.105,13.32,9.09,12.152,8.03z"/>
	<path opacity="0.5217" fill="#171717" d="M12.137,8.025c-0.555-0.506-1.86-1.566-3.072-2.536c0.739-0.986,1.591-2.114,1.924-2.543
		c0.642-0.824-0.252-2.82-1.463-2.294C8.819,0.957,7.493,2.347,6.506,3.457C6.218,3.222,2.98,0.604,1.768,0.3
		c-1.27-0.317-1.905,1.482-1.165,2.116c0.741,0.635,3.704,3.28,3.704,3.28s0.068,0.044,0.184,0.122
		C3.302,7.224,2.107,8.512,1.387,9.496c-1,1.364-1.475,2.847-0.364,3.203c1.112,0.354,2.355-0.805,3.713-2.33
		c0.852-0.957,1.577-1.691,2.488-2.611c0.633,0.49,1.233,0.998,1.635,1.432c1.269,1.377,3.278,2.753,4.337,2.328
		C14.253,11.093,13.301,9.083,12.137,8.025z"/>
	<path opacity="0.5435" fill="#181818" d="M12.121,8.019c-0.554-0.504-1.857-1.562-3.065-2.53c0.737-0.984,1.586-2.11,1.919-2.537
		c0.64-0.823-0.251-2.814-1.46-2.29C8.811,0.966,7.486,2.353,6.502,3.46c-0.288-0.233-3.52-2.847-4.729-3.149
		C0.506-0.005-0.128,1.79,0.611,2.423c0.74,0.634,3.697,3.273,3.697,3.273s0.067,0.044,0.184,0.122
		c-1.188,1.403-2.379,2.688-3.098,3.67c-0.999,1.361-1.473,2.841-0.364,3.195c1.11,0.354,2.351-0.802,3.705-2.324
		C5.585,9.404,6.308,8.67,7.218,7.751c0.632,0.49,1.231,0.997,1.631,1.43c1.267,1.374,3.272,2.748,4.328,2.324
		C14.232,11.083,13.283,9.076,12.121,8.019z"/>
	<path opacity="0.5652" fill="#191919" d="M12.104,8.014c-0.552-0.503-1.853-1.559-3.059-2.525c0.735-0.982,1.583-2.105,1.915-2.532
		c0.639-0.821-0.25-2.808-1.457-2.284C8.801,0.976,7.479,2.36,6.497,3.465C6.21,3.232,2.986,0.624,1.778,0.322
		C0.514,0.006-0.119,1.797,0.619,2.429c0.737,0.633,3.688,3.267,3.688,3.267S4.375,5.74,4.491,5.817
		C3.306,7.217,2.117,8.5,1.399,9.479c-0.997,1.358-1.469,2.835-0.363,3.189c1.108,0.354,2.347-0.801,3.698-2.319
		c0.848-0.953,1.57-1.686,2.478-2.602C7.842,8.237,8.44,8.742,8.84,9.174c1.264,1.37,3.265,2.741,4.318,2.318
		C14.212,11.071,13.265,9.068,12.104,8.014z"/>
	<path opacity="0.587" fill="#1A1A1A" d="M12.089,8.009c-0.552-0.502-1.849-1.556-3.053-2.521c0.734-0.98,1.58-2.101,1.911-2.527
		c0.637-0.819-0.25-2.802-1.454-2.28c-0.701,0.303-2.02,1.685-3,2.787C6.207,3.236,2.988,0.634,1.784,0.333
		C0.521,0.018-0.109,1.805,0.626,2.436c0.737,0.631,3.681,3.26,3.681,3.26S4.375,5.74,4.491,5.816
		C3.309,7.214,2.122,8.494,1.406,9.471c-0.995,1.356-1.467,2.829-0.362,3.183c1.105,0.353,2.34-0.8,3.689-2.314
		C5.58,9.387,6.3,8.658,7.206,7.743C7.835,8.231,8.432,8.736,8.83,9.167c1.262,1.368,3.259,2.736,4.311,2.313
		C14.191,11.059,13.246,9.061,12.089,8.009z"/>
	<path opacity="0.6087" fill="#1B1B1B" d="M12.072,8.004c-0.55-0.501-1.845-1.553-3.046-2.516c0.732-0.978,1.577-2.097,1.907-2.521
		c0.636-0.817-0.25-2.796-1.451-2.275C8.783,0.995,7.467,2.373,6.489,3.474c-0.286-0.233-3.497-2.829-4.7-3.13
		C0.53,0.029-0.101,1.813,0.635,2.442c0.734,0.63,3.673,3.253,3.673,3.253S4.375,5.74,4.491,5.816
		C3.311,7.21,2.126,8.487,1.412,9.462c-0.992,1.354-1.463,2.824-0.361,3.177c1.103,0.352,2.335-0.798,3.682-2.31
		C5.578,9.379,6.296,8.651,7.2,7.738c0.628,0.487,1.224,0.991,1.621,1.421c1.259,1.365,3.251,2.73,4.301,2.31
		C14.171,11.048,13.228,9.054,12.072,8.004z"/>
	<path opacity="0.6304" fill="#1C1C1C" d="M12.057,8c-0.549-0.5-1.842-1.55-3.04-2.51c0.73-0.977,1.573-2.093,1.903-2.517
		c0.635-0.816-0.249-2.791-1.448-2.27C8.773,1.004,7.461,2.38,6.484,3.478c-0.285-0.232-3.49-2.823-4.689-3.124
		C0.538,0.041-0.091,1.821,0.643,2.449c0.733,0.628,3.666,3.246,3.666,3.246s0.066,0.044,0.182,0.121
		c-1.178,1.392-2.36,2.665-3.073,3.639c-0.99,1.351-1.46,2.818-0.36,3.169c1.101,0.353,2.331-0.796,3.674-2.305
		c0.844-0.947,1.561-1.675,2.463-2.585C7.82,8.22,8.415,8.722,8.812,9.152c1.257,1.361,3.245,2.724,4.292,2.304
		C14.15,11.037,13.209,9.046,12.057,8z"/>
	<path opacity="0.6522" fill="#1D1D1D" d="M12.041,7.994c-0.548-0.499-1.838-1.546-3.034-2.504c0.729-0.975,1.57-2.089,1.899-2.512
		c0.633-0.814-0.248-2.785-1.444-2.266c-0.697,0.302-2.008,1.674-2.982,2.77C6.195,3.25,2.998,0.665,1.8,0.366
		c-1.254-0.313-1.882,1.463-1.15,2.09c0.731,0.627,3.658,3.239,3.658,3.239s0.067,0.043,0.182,0.12
		c-1.175,1.389-2.354,2.66-3.065,3.632c-0.989,1.348-1.458,2.812-0.36,3.162c1.099,0.351,2.326-0.794,3.667-2.3
		c0.841-0.945,1.557-1.671,2.458-2.58c0.625,0.485,1.218,0.986,1.614,1.415c1.253,1.359,3.238,2.719,4.282,2.299
		C14.13,11.025,13.19,9.039,12.041,7.994z"/>
	<path opacity="0.6739" fill="#1E1E1E" d="M12.024,7.989c-0.546-0.498-1.833-1.543-3.027-2.499c0.728-0.973,1.567-2.084,1.896-2.506
		c0.632-0.813-0.248-2.779-1.441-2.261c-0.695,0.301-2.004,1.67-2.976,2.764C6.191,3.255,3,0.675,1.806,0.376
		c-1.251-0.312-1.878,1.46-1.147,2.085c0.73,0.626,3.65,3.233,3.65,3.233s0.066,0.043,0.182,0.12
		c-1.173,1.387-2.35,2.654-3.06,3.624c-0.986,1.345-1.454,2.806-0.359,3.156c1.097,0.351,2.321-0.792,3.659-2.295
		C5.57,9.355,6.284,8.631,7.183,7.725c0.624,0.483,1.216,0.983,1.611,1.411c1.25,1.356,3.23,2.713,4.273,2.295
		C14.109,11.013,13.172,9.032,12.024,7.989z"/>
	<path opacity="0.6957" fill="#1F1F1F" d="M12.008,7.984c-0.545-0.497-1.829-1.54-3.021-2.494c0.727-0.97,1.563-2.08,1.892-2.501
		c0.631-0.811-0.248-2.772-1.438-2.256c-0.694,0.3-2,1.667-2.969,2.758c-0.284-0.23-3.467-2.805-4.66-3.104
		C0.562,0.075-0.062,1.844,0.666,2.468c0.729,0.625,3.643,3.226,3.643,3.226s0.066,0.044,0.182,0.12
		C3.319,7.197,2.146,8.462,1.437,9.43c-0.983,1.342-1.451,2.8-0.358,3.149c1.094,0.349,2.317-0.791,3.651-2.291
		C5.567,9.347,6.28,8.625,7.177,7.72C7.799,8.203,8.39,8.703,8.784,9.128c1.248,1.354,3.224,2.708,4.265,2.29
		C14.09,11.001,13.153,9.024,12.008,7.984z"/>
	<path opacity="0.7174" fill="#202020" d="M11.992,7.978c-0.544-0.495-1.826-1.536-3.015-2.488c0.726-0.968,1.561-2.075,1.888-2.495
		c0.629-0.81-0.247-2.768-1.436-2.252c-0.693,0.3-1.995,1.664-2.963,2.753c-0.283-0.23-3.46-2.8-4.65-3.098
		C0.57,0.087-0.053,1.852,0.674,2.475c0.728,0.623,3.635,3.219,3.635,3.219s0.067,0.043,0.181,0.119
		C3.322,7.193,2.15,8.457,1.443,9.421c-0.982,1.34-1.448,2.795-0.358,3.143c1.092,0.35,2.312-0.789,3.644-2.285
		c0.836-0.939,1.548-1.66,2.442-2.563c0.62,0.481,1.211,0.979,1.604,1.405c1.247,1.349,3.217,2.702,4.256,2.285
		C14.068,10.99,13.135,9.017,11.992,7.978z"/>
	<path opacity="0.7391" fill="#212121" d="M11.977,7.973C11.434,7.478,10.154,6.44,8.968,5.49c0.724-0.966,1.558-2.07,1.884-2.49
		c0.628-0.807-0.246-2.761-1.433-2.246C8.728,1.052,7.429,2.414,6.463,3.5C6.18,3.27,3.01,0.706,1.822,0.409
		C0.578,0.098-0.044,1.86,0.682,2.481c0.726,0.622,3.627,3.212,3.627,3.212s0.066,0.043,0.18,0.12
		C3.324,7.19,2.155,8.451,1.449,9.414c-0.98,1.336-1.445,2.788-0.356,3.137c1.089,0.348,2.307-0.788,3.635-2.281
		C5.562,9.332,6.272,8.612,7.165,7.71c0.619,0.481,1.208,0.979,1.601,1.403c1.242,1.348,3.211,2.695,4.246,2.28
		C14.049,10.979,13.116,9.009,11.977,7.973z"/>
	<path opacity="0.7609" fill="#222222" d="M11.96,7.968c-0.542-0.494-1.817-1.53-3.002-2.478c0.723-0.964,1.554-2.066,1.88-2.485
		c0.626-0.805-0.246-2.755-1.43-2.241c-0.689,0.298-1.986,1.656-2.95,2.741c-0.282-0.23-3.446-2.788-4.63-3.084
		C0.586,0.11-0.035,1.868,0.689,2.488c0.724,0.621,3.62,3.205,3.62,3.205s0.065,0.043,0.18,0.119
		c-1.163,1.374-2.33,2.632-3.034,3.593c-0.978,1.334-1.442,2.783-0.356,3.13c1.087,0.347,2.302-0.786,3.628-2.275
		C5.56,9.323,6.268,8.605,7.159,7.707c0.618,0.479,1.205,0.976,1.598,1.399c1.239,1.345,3.203,2.69,4.237,2.275
		C14.027,10.967,13.098,9.002,11.96,7.968z"/>
	<path opacity="0.7826" fill="#232323" d="M11.944,7.962C11.403,7.47,10.13,6.436,8.948,5.49c0.721-0.962,1.551-2.062,1.876-2.48
		c0.625-0.804-0.245-2.749-1.427-2.237C8.709,1.071,7.416,2.426,6.454,3.509C6.172,3.279,3.015,0.727,1.833,0.431
		c-1.238-0.31-1.858,1.444-1.136,2.063C1.42,3.114,4.31,5.693,4.31,5.693s0.066,0.043,0.179,0.119
		c-1.16,1.371-2.325,2.626-3.027,3.585c-0.975,1.331-1.438,2.776-0.355,3.123c1.085,0.347,2.297-0.784,3.62-2.271
		c0.831-0.934,1.538-1.649,2.426-2.547C7.77,8.181,8.355,8.675,8.747,9.099c1.237,1.342,3.197,2.684,4.229,2.27
		C14.008,10.956,13.079,8.995,11.944,7.962z"/>
	<path opacity="0.8043" fill="#242424" d="M11.928,7.958c-0.54-0.491-1.81-1.523-2.989-2.467c0.719-0.96,1.548-2.058,1.872-2.474
		c0.623-0.803-0.244-2.744-1.424-2.232C8.7,1.08,7.409,2.433,6.449,3.513C6.168,3.284,3.018,0.737,1.838,0.441
		C0.603,0.133-0.016,1.883,0.705,2.5C1.426,3.119,4.31,5.692,4.31,5.692s0.066,0.043,0.179,0.118
		c-1.158,1.369-2.32,2.622-3.021,3.579c-0.974,1.327-1.436,2.771-0.354,3.116c1.083,0.346,2.292-0.782,3.612-2.267
		c0.83-0.932,1.535-1.646,2.421-2.542c0.616,0.479,1.201,0.972,1.591,1.395c1.234,1.339,3.189,2.678,4.22,2.266
		C13.987,10.944,13.061,8.988,11.928,7.958z"/>
	<path opacity="0.8261" fill="#252525" d="M11.912,7.953c-0.539-0.49-1.807-1.521-2.982-2.462c0.717-0.958,1.543-2.053,1.867-2.469
		c0.622-0.801-0.244-2.738-1.421-2.228C8.69,1.09,7.402,2.439,6.445,3.517c-0.28-0.228-3.424-2.77-4.601-3.064
		c-1.233-0.308-1.85,1.438-1.131,2.055C1.433,3.124,4.31,5.692,4.31,5.692S4.375,5.735,4.489,5.81
		C3.333,7.176,2.174,8.425,1.474,9.38c-0.972,1.326-1.433,2.766-0.354,3.11c1.08,0.345,2.287-0.781,3.604-2.262
		c0.828-0.93,1.531-1.644,2.417-2.537c0.614,0.478,1.197,0.971,1.587,1.392c1.232,1.336,3.184,2.673,4.211,2.261
		S13.043,8.98,11.912,7.953z"/>
	<path opacity="0.8478" fill="#262626" d="M11.896,7.948C11.358,7.458,10.094,6.43,8.92,5.491c0.715-0.956,1.54-2.049,1.863-2.464
		c0.621-0.799-0.244-2.732-1.418-2.223C8.682,1.1,7.396,2.446,6.44,3.521C6.161,3.294,3.024,0.757,1.849,0.463
		c-1.23-0.308-1.846,1.436-1.128,2.05C1.438,3.129,4.31,5.692,4.31,5.692S4.375,5.735,4.488,5.81
		C3.335,7.172,2.178,8.419,1.48,9.373c-0.97,1.322-1.43,2.759-0.353,3.103c1.078,0.345,2.282-0.778,3.597-2.256
		C5.55,9.292,6.252,8.58,7.136,7.688c0.613,0.476,1.195,0.968,1.583,1.388c1.229,1.334,3.177,2.667,4.202,2.256
		C13.946,10.921,13.023,8.973,11.896,7.948z"/>
	<path opacity="0.8696" fill="#272727" d="M11.88,7.942c-0.536-0.488-1.799-1.513-2.97-2.451c0.714-0.954,1.537-2.044,1.859-2.458
		c0.619-0.797-0.243-2.726-1.414-2.218C8.673,1.109,7.39,2.453,6.436,3.526C6.157,3.299,3.027,0.768,1.854,0.475
		C0.627,0.167,0.013,1.907,0.729,2.52C1.445,3.134,4.31,5.691,4.31,5.691s0.065,0.043,0.178,0.118
		C3.337,7.168,2.183,8.414,1.486,9.364c-0.967,1.319-1.426,2.753-0.352,3.097c1.076,0.344,2.278-0.777,3.589-2.251
		c0.824-0.927,1.524-1.637,2.406-2.526C7.741,8.158,8.322,8.649,8.71,9.068c1.227,1.331,3.17,2.662,4.192,2.251
		C13.926,10.91,13.006,8.965,11.88,7.942z"/>
	<path opacity="0.8913" fill="#282828" d="M11.863,7.937C11.328,7.45,10.069,6.427,8.9,5.491c0.713-0.952,1.533-2.04,1.855-2.453
		c0.618-0.796-0.242-2.72-1.412-2.213C8.663,1.119,7.383,2.459,6.432,3.53C6.153,3.304,3.03,0.778,1.86,0.485
		c-1.225-0.306-1.838,1.43-1.123,2.042c0.714,0.612,3.574,3.164,3.574,3.164s0.064,0.043,0.178,0.118
		C3.34,7.165,2.188,8.408,1.493,9.356c-0.965,1.317-1.423,2.747-0.351,3.09c1.073,0.343,2.272-0.776,3.581-2.247
		c0.823-0.924,1.521-1.633,2.401-2.521c0.61,0.475,1.19,0.964,1.578,1.383c1.224,1.327,3.162,2.655,4.184,2.245
		C13.905,10.898,12.987,8.958,11.863,7.937z"/>
	<path opacity="0.913" fill="#292929" d="M11.848,7.932c-0.534-0.486-1.791-1.508-2.957-2.441c0.711-0.95,1.53-2.035,1.852-2.448
		c0.617-0.793-0.242-2.714-1.408-2.208c-0.68,0.293-1.957,1.631-2.907,2.7C6.149,3.309,3.033,0.788,1.865,0.496
		C0.643,0.191,0.031,1.922,0.744,2.533c0.713,0.611,3.566,3.158,3.566,3.158s0.065,0.042,0.177,0.117
		C3.342,7.162,2.193,8.401,1.499,9.347c-0.963,1.314-1.42,2.742-0.351,3.084c1.071,0.342,2.268-0.774,3.574-2.242
		C5.542,9.267,6.24,8.56,7.118,7.674c0.609,0.473,1.187,0.961,1.574,1.379c1.222,1.325,3.156,2.649,4.175,2.241
		S12.969,8.951,11.848,7.932z"/>
	<path opacity="0.9348" fill="#2A2A2A" d="M11.831,7.927c-0.532-0.485-1.786-1.504-2.95-2.437c0.71-0.947,1.527-2.031,1.848-2.442
		c0.615-0.792-0.242-2.708-1.405-2.204c-0.679,0.292-1.953,1.628-2.9,2.694c-0.277-0.226-3.387-2.74-4.552-3.032
		C0.651,0.202,0.041,1.93,0.752,2.54C1.464,3.149,4.311,5.69,4.311,5.69s0.065,0.042,0.177,0.117
		c-1.143,1.351-2.29,2.588-2.982,3.532c-0.961,1.312-1.417,2.735-0.35,3.076c1.068,0.342,2.263-0.771,3.566-2.236
		c0.818-0.92,1.515-1.626,2.39-2.51c0.607,0.472,1.185,0.959,1.57,1.376c1.22,1.322,3.149,2.645,4.166,2.236
		C13.864,10.875,12.95,8.943,11.831,7.927z"/>
	<path opacity="0.9565" fill="#2B2B2B" d="M11.815,7.921c-0.531-0.484-1.783-1.5-2.944-2.43c0.708-0.946,1.524-2.027,1.844-2.438
		c0.614-0.791-0.241-2.703-1.402-2.199C8.636,1.147,7.364,2.479,6.418,3.543c-0.276-0.225-3.38-2.734-4.542-3.025
		C0.659,0.213,0.05,1.938,0.76,2.546c0.71,0.608,3.55,3.144,3.55,3.144s0.065,0.043,0.177,0.117
		C3.347,7.155,2.202,8.389,1.511,9.332c-0.958,1.309-1.414,2.729-0.349,3.069c1.066,0.341,2.258-0.771,3.559-2.231
		C5.538,9.25,6.232,8.546,7.106,7.665c0.606,0.471,1.182,0.958,1.567,1.373c1.217,1.319,3.143,2.639,4.156,2.231
		C13.844,10.863,12.932,8.936,11.815,7.921z"/>
	<path opacity="0.9783" fill="#2C2C2C" d="M11.799,7.917c-0.53-0.483-1.778-1.498-2.938-2.425c0.707-0.943,1.521-2.022,1.84-2.432
		c0.612-0.789-0.24-2.697-1.399-2.194C8.626,1.156,7.357,2.486,6.414,3.547C6.138,3.323,3.042,0.819,1.882,0.528
		C0.667,0.226,0.06,1.946,0.768,2.552C1.477,3.16,4.311,5.69,4.311,5.69s0.065,0.042,0.176,0.116
		c-1.138,1.345-2.28,2.576-2.969,3.518c-0.957,1.305-1.411,2.724-0.348,3.062c1.063,0.34,2.253-0.769,3.55-2.228
		C5.535,9.243,6.228,8.541,7.1,7.66C7.705,8.13,8.28,8.616,8.664,9.031c1.213,1.316,3.135,2.633,4.147,2.227
		C13.823,10.852,12.913,8.928,11.799,7.917z"/>
	<path fill="#2D2D2D" d="M11.783,7.912c-0.529-0.482-1.775-1.495-2.932-2.42c0.705-0.941,1.518-2.018,1.836-2.427
		c0.611-0.787-0.24-2.691-1.396-2.189C8.617,1.166,7.351,2.493,6.41,3.552C6.134,3.328,3.044,0.829,1.887,0.54
		c-1.212-0.303-1.818,1.414-1.111,2.02c0.707,0.606,3.535,3.13,3.535,3.13s0.064,0.042,0.176,0.116
		C3.351,7.148,2.211,8.376,1.524,9.315c-0.955,1.303-1.408,2.718-0.348,3.057c1.062,0.339,2.248-0.768,3.543-2.223
		c0.813-0.914,1.505-1.615,2.375-2.493c0.604,0.469,1.177,0.953,1.56,1.367c1.211,1.313,3.129,2.627,4.139,2.222
		C13.803,10.84,12.895,8.921,11.783,7.912z"/>
</g>
<g>
	<radialGradient id="SVGID_1_" cx="6.6797" cy="6.2632" r="6.467" gradientUnits="userSpaceOnUse">
		<stop  offset="0" style="stop-color:#969696"/>
		<stop  offset="0" style="stop-color:#51A4F7"/>
		<stop  offset="0" style="stop-color:#4BA5FF"/>
		<stop  offset="0.1268" style="stop-color:#4F98FF"/>
		<stop  offset="0.3603" style="stop-color:#5976FF"/>
		<stop  offset="0.675" style="stop-color:#6A40FF"/>
		<stop  offset="1" style="stop-color:#7E00FF"/>
	</radialGradient>
	<path fill="url(#SVGID_1_)" d="M11.844,7.775c-0.556-0.506-1.859-1.566-3.07-2.536c0.739-0.986,1.588-2.113,1.922-2.542
		c0.642-0.824-0.25-2.818-1.463-2.293C8.526,0.709,7.202,2.099,6.216,3.208C5.928,2.974,2.691,0.356,1.479,0.053
		C0.209-0.264-0.425,1.534,0.315,2.168c0.741,0.635,3.702,3.279,3.702,3.279s0.068,0.044,0.185,0.121
		C3.012,6.976,1.818,8.261,1.099,9.244c-1,1.365-1.475,2.847-0.364,3.202c1.111,0.355,2.354-0.804,3.711-2.328
		c0.852-0.957,1.576-1.691,2.486-2.61c0.633,0.49,1.233,0.998,1.633,1.432c1.269,1.375,3.278,2.75,4.336,2.327
		C13.959,10.842,13.008,8.833,11.844,7.775z"/>
	<radialGradient id="SVGID_2_" cx="6.5728" cy="6.0981" r="6.3265" gradientUnits="userSpaceOnUse">
		<stop  offset="0" style="stop-color:#969696"/>
		<stop  offset="0" style="stop-color:#51A4F7"/>
		<stop  offset="0" style="stop-color:#4BA5FF"/>
		<stop  offset="0.1268" style="stop-color:#4F98FF"/>
		<stop  offset="0.3603" style="stop-color:#5976FF"/>
		<stop  offset="0.675" style="stop-color:#6A40FF"/>
		<stop  offset="1" style="stop-color:#7E00FF"/>
	</radialGradient>
	<path fill="url(#SVGID_2_)" d="M11.844,7.775c-0.506-0.461-3.07-2.536-3.07-2.536l0.203,0.429c0,0,2.515,2.03,3.07,2.536
		c0.419,0.381,0.808,0.886,1.087,1.395C12.864,8.955,12.382,8.264,11.844,7.775z M4.237,5.583c0,0-2.448,2.717-3.139,3.66
		c-0.838,1.144-1.294,2.36-0.77,2.938c-0.113-0.646,0.307-1.599,0.973-2.508c0.72-0.982,3.237-3.785,3.237-3.785L4.237,5.583z
		 M10.802,1.378C10.565,0.679,9.958,0.09,9.232,0.404C8.526,0.709,7.202,2.099,6.216,3.208C5.928,2.974,2.691,0.356,1.479,0.053
		C0.266-0.25-0.354,1.368,0.239,2.067C0.086,1.294,0.68,0.232,1.682,0.482c1.212,0.303,4.449,2.92,4.737,3.155
		c0.985-1.109,2.311-2.499,3.017-2.804C10.004,0.587,10.499,0.897,10.802,1.378z"/>
</g>
</svg>
